<ttFont>
          <CharString index="0">
            -17 7 -23 8 -10 vhcurveto
            return
          </CharString>
          <CharString index="1">
            -104 callgsubr
            endchar
          </CharString>
          <CharString index="2">
            203 callgsubr
            -86 -54 46 66 -24 hvcurveto
            179 callgsubr
            return
          </CharString>
          <CharString index="3">
            -10 22 -18 31 vhcurveto
            return
          </CharString>
          <CharString index="4">
            hhcurveto
            -69 -46 -50 252 callgsubr
            -45 68 105 callsubr
            -22 callsubr
            hvcurveto
            -88 callgsubr
            -42 18 vhcurveto
            -7 -21 -3 -17 118 callsubr
            return
          </CharString>
          <CharString index="5">
            rmoveto
            -106 callgsubr
            return
          </CharString>
          <CharString index="6">
            -98 callgsubr
            rrcurveto
            -21 44 57 -10 55 hhcurveto
            return
          </CharString>
          <CharString index="7">
            -52 -48 -1 -2 -31 hvcurveto
            -45 -3 -23 -15 -24 vvcurveto
            -42 45 -54 15 -5 vhcurveto
            -1 4 4 -1 4 hhcurveto
            10 10 4 10 7 hvcurveto
            10 15 10 40 2 28 rrcurveto
            1 19 return
          </CharString>
          <CharString index="8">
            rmoveto
            -64 -44 -60 -32 -51 hhcurveto
            -56 -46 38 72 82 61 45 69 51 45 -25 -29 31 hvcurveto
            return
          </CharString>
          <CharString index="9">
            hlineto
            -14 -19 -9 -24 -29 callsubr
            34 31 vvcurveto
            41 32 27 37 5 vhcurveto
            27 hlineto
            56 -8 17 -54 -37 vvcurveto
            -102 -84 -74 -69 -15 vhcurveto
            26 -20 -30 25 -23 hhcurveto
            -21 -37 175 callgsubr
            50 -67 callsubr
            return
          </CharString>
          <CharString index="10">
            16 callgsubr
            -94 78 -83 104 54 44 23 33 36 -38 callgsubr
            return
          </CharString>
          <CharString index="11">
            21 8 21 17 9 12 -15 33 -44 51 -42 40 rrcurveto
            15 20 9 24 28 vvcurveto
            36 -17 19 -19 -19 -49 -19 -37 -11 5 -20 17 -21 vhcurveto
            -13 -19 -33 -13 -45 hhcurveto
            -77 -88 51 96 108 71 50 126 hvcurveto
            37 23 -7 10 hhcurveto
            9 18 19 13 hvcurveto
            return
          </CharString>
          <CharString index="12">
            -94 callsubr
            33 49 52 62 hhcurveto
            return
          </CharString>
          <CharString index="13">
            -93 callsubr
            43 return
          </CharString>
          <CharString index="14">
            -97 callsubr
            286 vlineto
            return
          </CharString>
          <CharString index="15">
            6 callgsubr
            -11 35 -41 11 14 39 36 9 13 -36 41 -10 hvcurveto
            return
          </CharString>
          <CharString index="16">
            hhcurveto
            -41 -40 7 12 -31 hvcurveto
            15 30 6 38 41 vvcurveto
            45 -7 44 -9 34 vhcurveto
            return
          </CharString>
          <CharString index="17">
            rmoveto
            -37 -35 -53 -26 -53 hhcurveto
            -62 -38 35 60 47 33 40 87 56 41 -15 -15 24 hvcurveto
            55 -150 rmoveto
            299 vlineto
            153 -130 13 -49 -91 -61 -43 -54 -38 23 -10 23 2 vhcurveto
            34 4 14 65 94 hhcurveto
            81 37 -60 -65 hvcurveto
            -89 vlineto
            9 -30 -40 7 -45 hhcurveto
            -153 -37 -79 -61 -84 56 -49 93 70 57 34 32 30 hvcurveto
            -39 4 17 -28 45 hhcurveto
            24 31 8 35 hvcurveto
            endchar
          </CharString>
          <CharString index="18">
            12 11 5 5 9 16 rrcurveto
            -81 59 -89 83 97 vvcurveto
            64 40 51 59 56 return
          </CharString>
          <CharString index="19">
            -34 -1 -28 -6 -7 -16 69 callgsubr
            -38 56 -53 25 11 13 4 10 7 vhcurveto
            10 15 4 35 return
          </CharString>
          <CharString index="20">
            -65 hlineto
            -64 -3 -42 -47 -65 vvcurveto
            -81 67 -46 51 -23 vhcurveto
            9 6 5 7 1 9 rrcurveto
            -45 27 -31 36 53 vvcurveto
            52 31 23 37 50 34 -42 -78 -137 -100 -142 -167 -86 -37 40 56 71 82 34 54 7 vhcurveto
            -10 22 -7 9 -14 16 rrcurveto
            -7 -34 -7 -20 -41 hvcurveto
            -41 10 -49 39 51 vvcurveto
            37 25 32 52 43 20 -19 -20 17 vhcurveto
            5 1 7 5 3 3 rrcurveto
            31 -8 -29 52 -73 hhcurveto
            247 callsubr
            return
          </CharString>
          <CharString index="21">
            rmoveto
            96 328 97 -328 rlineto
            132 -236 rmoveto
            -1 hlineto
            -193 631 -19 3 -18 0 -19 -3 rlinecurve
            -194 -633 rlineto
            0 vlineto
            -40 -8 callsubr
            56 191 rlineto
            220 hlineto
            57 -193 -50 -74 callgsubr
            181 111 callgsubr
          </CharString>
          <CharString index="22">
            hlineto
            -81 callgsubr
            return
          </CharString>
          <CharString index="23">
            rmoveto
            -11 22 -24 21 -23 1 -164 -124 rcurveline
            6 -10 8 -10 12 -6 rrcurveto
            return
          </CharString>
          <CharString index="24">
            -3 -1 -16 -20 -3 -11 rrcurveto
            28 -31 54 -58 -65 vvcurveto
            -56 -38 -22 -38 -113 -63 159 129 -37 vhcurveto
            return
          </CharString>
          <CharString index="25">
            -83 callsubr
            -10 -18 -4 -9 -9 hvcurveto
            return
          </CharString>
          <CharString index="26">
            33 callsubr
            -394 vlineto
            -142 -68 -64 -110 -92 -66 56 151 vhcurveto
            1 395 50 -49 callgsubr
            -186 71 callgsubr
            -402 vlineto
            -133 46 -110 162 168 64 110 149 vhcurveto
            68 callgsubr
            return
          </CharString>
          <CharString index="27">
            550 -102 callsubr
            return
          </CharString>
          <CharString index="28">
            hmoveto
            -106 callgsubr
            return
          </CharString>
          <CharString index="29">
            -16 callsubr
            -77 callsubr
            return
          </CharString>
          <CharString index="30">
            11 6 21 14 10 13 -57 46 -97 101 -56 90 return
          </CharString>
          <CharString index="31">
            229 -240 hlineto
            -54 -32 -53 -35 -55 hhcurveto
            -68 -21 52 149 hvcurveto
            return
          </CharString>
          <CharString index="32">
            rmoveto
            90 19 54 61 69 hhcurveto
            73 36 -69 -82 -2 hvcurveto
            62 -39 rmoveto
            46 vlineto
            83 -37 103 -120 -114 -110 -93 -184 -162 86 -76 112 90 82 49 33 7 -3 8 -7 5 vhcurveto
            21 callgsubr
            endchar
          </CharString>
          <CharString index="33">
            hvcurveto
            71 46 22 40 50 vvcurveto
            84 -63 49 -79 -84 -53 -56 -61 -62 57 -54 36 -25 vhcurveto
            -100 -64 -40 -38 -68 vvcurveto
            -84 63 -84 118 38 37 9 17 29 vhcurveto
            33 -46 19 -47 22 -44 21 8 19 19 9 12 -17 31 -43 52 -37 36 rrcurveto
            19 18 11 24 27 vvcurveto
            38 -22 16 -16 -19 -47 -22 -34 -13 7 -22 8 -13 vhcurveto
            -11 -23 -34 -4 -28 hhcurveto
            -65 -52 41 58 62 return
          </CharString>
          <CharString index="34">
            -107 callsubr
            130 -59 callsubr
            return
          </CharString>
          <CharString index="35">
            -157 vlineto
            -104 callsubr
            return
          </CharString>
          <CharString index="36">
            rmoveto
            -76 callsubr
            return
          </CharString>
          <CharString index="37">
            17 callgsubr
            -22 -5 -10 -20 vhcurveto
            return
          </CharString>
          <CharString index="38">
            -58 44 -51 78 -39 vhcurveto
            7 6 6 12 3 10 rrcurveto
            -45 24 -39 35 51 vvcurveto
            33 17 25 38 63 9 -66 -93 vhcurveto
            return
          </CharString>
          <CharString index="39">
            -165 hlineto
            38 -38 -56 19 -51 hhcurveto
            return
          </CharString>
          <CharString index="40">
            -62 callgsubr
            196 callgsubr
            return
          </CharString>
          <CharString index="41">
            -60 callsubr
            43 -1 -1 37 hvcurveto
            return
          </CharString>
          <CharString index="42">
            58 -97 115 -121 -58 callsubr
            return
          </CharString>
          <CharString index="43">
            -7 -16 69 callgsubr
            -38 58 -53 23 1 callsubr
            vhcurveto
            -25 callgsubr
            return
          </CharString>
          <CharString index="44">
            10 -61 callsubr
            return
          </CharString>
          <CharString index="45">
            -134 184 25 callsubr
            -138 56 105 vvcurveto
            63 58 47 86 63 28 -26 -31 -38 -24 -24 -40 -16 vhcurveto
            7 -20 16 -21 9 -9 rrcurveto
            42 17 33 42 44 vvcurveto
            55 -42 81 -110 -36 -36 -9 -17 -31 82 callsubr
            endchar
          </CharString>
          <CharString index="46">
            11 -67 callgsubr
            return
          </CharString>
          <CharString index="47">
            -85 callsubr
            51 return
          </CharString>
          <CharString index="48">
            -542 hlineto
            -103 callgsubr
            return
          </CharString>
          <CharString index="49">
            19 -15 -59 callgsubr
            return
          </CharString>
          <CharString index="50">
            rmoveto
            -130 -88 -107 -168 2 hvcurveto
            -151 2 72 -89 127 hhcurveto
            140 80 115 161 -2 hvcurveto
            204 -2 -124 35 -77 hhcurveto
            -6 -45 rmoveto
            108 1 41 -109 -104 vvcurveto
            -121 -52 -91 -98 -1 vhcurveto
            -104 -1 -45 99 113 vvcurveto
            117 51 96 99 1 vhcurveto
            return
          </CharString>
          <CharString index="51">
            rmoveto
            1 hlineto
            61 3 rlineto
            97 5 98 -7 -135 vvcurveto
            -87 -65 -54 -124 -18 -26 1 2 -24 vhcurveto
            -109 315 rmoveto
            -29 6 -25 -14 hvcurveto
            73 -6 rlineto
            -589 vlineto
            -50 -3 rlineto
            -33 -2 5 -28 -10 vvcurveto
            188 hlineto
            25 -2 26 13 hvcurveto
            -74 6 rlineto
            275 vlineto
            -2 25 28 -1 22 hhcurveto
            3 hlineto
            -144 52 117 -188 83 hhcurveto
            23 17 20 32 hvcurveto
            -57 -98 98 186 -88 hvcurveto
            102 15 89 60 118 vvcurveto
            86 -44 77 -167 vhcurveto
            endchar
          </CharString>
          <CharString index="52">
            -44 callsubr
            -28 -21 -31 -37 48 -22 49 -56 callgsubr
            return
          </CharString>
          <CharString index="53">
            hhcurveto
            73 40 52 69 68 -42 53 -20 24 hvcurveto
            return
          </CharString>
          <CharString index="54">
            vvcurveto
            -22 13 -30 20 -33 vhcurveto
            -65 callsubr
            return
          </CharString>
          <CharString index="55">
            hhcurveto
            -38 -65 22 84 82 63 29 61 52 19 -7 -20 28 hvcurveto
            18 32 rlineto
            23 -24 -43 22 -65 hhcurveto
            -81 -84 -47 -94 -90 78 -82 100 return
          </CharString>
          <CharString index="56">
            -47 callsubr
            -56 -47 -41 -99 -21 vhcurveto
            return
          </CharString>
          <CharString index="57">
            18 -38 37 -37 19 -2 13 -1 16 15 1 8 1 11 -9 50 -4 24 return
          </CharString>
          <CharString index="58">
            -17 callgsubr
            102 90 callsubr
            359 -140 hlineto
            22 -29 -41 20 -52 hhcurveto
            -81 -84 -47 -94 -90 77 -82 101 47 32 18 24 30 hvcurveto
            -173 -105 callgsubr
          </CharString>
          <CharString index="59">
            hmoveto
            261 hlineto
            17 -38 16 -54 -50 vvcurveto
            -25 -4 -24 -10 -21 vhcurveto
            -11 4 -13 4 -16 1 rrcurveto
            44 -21 -42 22 -50 hhcurveto
            -53 -43 -27 -29 -31 hvcurveto
            -53 14 callgsubr
            return
          </CharString>
          <CharString index="60">
            32 -36 16 -35 -27 vvcurveto
            return
          </CharString>
          <CharString index="61">
            5 2 19 -36 callsubr
            return
          </CharString>
          <CharString index="62">
            vlineto
            -104 callsubr
            286 vlineto
            43 33 49 52 62 hhcurveto
            return
          </CharString>
          <CharString index="63">
            38 74 28 42 hhcurveto
            35 13 -21 -29 -74 -87 -28 -67 -18 -17 2 4 -13 hvcurveto
            33 -16 -23 40 -32 hhcurveto
            -23 return
          </CharString>
          <CharString index="64">
            hlineto
            28 -4 29 10 -1 hvcurveto
            return
          </CharString>
          <CharString index="65">
            26 callgsubr
            35 -2 31 -1 27 -3 return
          </CharString>
          <CharString index="66">
            130 callsubr
            -24 -1 -10 rlinecurve
            return
          </CharString>
          <CharString index="67">
            -236 -105 callgsubr
          </CharString>
          <CharString index="68">
            rmoveto
            189 callsubr
            56 37 -22 -35 40 hvcurveto
            -116 vlineto
            -7 -10 -8 -9 -8 -8 rrcurveto
            -36 -27 21 callsubr
            return
          </CharString>
          <CharString index="69">
            -96 callgsubr
            -79 -59 -56 -71 82 callgsubr
            -93 78 -53 86 return
          </CharString>
          <CharString index="70">
            -87 callsubr
            -53 40 -63 72 -21 hvcurveto
            -35 -28 -11 -39 -26 190 callgsubr
            return
          </CharString>
          <CharString index="71">
            119 callsubr
            -46 59 -70 111 85 vvcurveto
            return
          </CharString>
          <CharString index="72">
            -1 4 6 -1 5 -4 callgsubr
            return
          </CharString>
          <CharString index="73">
            -85 -50 -29 -66 -69 52 -78 67 hvcurveto
            -78 callgsubr
            return
          </CharString>
          <CharString index="74">
            rmoveto
            133 -89 12 6 8 10 6 10 rlinecurve
            -130 119 -15 4 -24 1 -19 -5 rlinecurve
            -130 -119 6 -10 8 -10 12 -6 rlinecurve
            return
          </CharString>
          <CharString index="75">
            -46 callsubr
            81 53 28 128 vhcurveto
            return
          </CharString>
          <CharString index="76">
            hlineto
            28 -4 25 10 -1 hvcurveto
            return
          </CharString>
          <CharString index="77">
            -77 callgsubr
            -577 -107 callgsubr
            379 26 callsubr
            return
          </CharString>
          <CharString index="78">
            -24 vvcurveto
            -46 29 -53 95 -41 vhcurveto
            3 2 9 12 2 10 rrcurveto
            -71 45 -12 return
          </CharString>
          <CharString index="79">
            -6 75 -123 -16 rlineto
            -13 -1 -20 72 callgsubr
            -400 170 callsubr
            192 -31 callsubr
            -87 6 rlineto
            336 vlineto
            42 46 42 27 35 hhcurveto
            33 5 -36 -35 hvcurveto
            16 -1 12 2 9 8 rrcurveto
            8 10 4 36 21 vvcurveto
            38 -30 11 -26 return
          </CharString>
          <CharString index="80">
            rmoveto
            -57 -31 -55 -36 -57 hhcurveto
            -80 -21 52 149 hvcurveto
            return
          </CharString>
          <CharString index="81">
            -20 callsubr
            118 return
          </CharString>
          <CharString index="82">
            -107 callgsubr
            111 -2 callgsubr
            return
          </CharString>
          <CharString index="83">
            -52 -46 -19 -18 -27 hvcurveto
            9 -27 17 -25 7 -6 rrcurveto
            14 18 44 30 44 hhcurveto
            74 62 -103 -85 41 hvcurveto
            55 -53 -70 51 -59 hhcurveto
            -48 -48 -21 -24 -29 hvcurveto
            8 -23 10 -19 14 -15 rrcurveto
            19 23 50 30 41 hhcurveto
            return
          </CharString>
          <CharString index="84">
            -97 callsubr
            290 vlineto
            42 32 48 49 58 hhcurveto
            return
          </CharString>
          <CharString index="85">
            -119 110 -104 89 -68 return
          </CharString>
          <CharString index="86">
            11 21 26 -50 callgsubr
            -89 -50 -106 return
          </CharString>
          <CharString index="87">
            -21 callsubr
            -95 69 -95 return
          </CharString>
          <CharString index="88">
            rmoveto
            212 callgsubr
            -137 -355 -135 357 43 3 33 2 -6 24 1 10 rlinecurve
            -158 hlineto
            -28 4 -25 -10 1 hvcurveto
            48 -6 172 -425 rlineto
            -58 -24 -56 -124 -38 hhcurveto
            -26 -2 18 18 4 hvcurveto
            2 -5 -4 0 -4 hhcurveto
            -22 -14 -17 -25 -23 19 -25 43 78 53 138 89 36 hvcurveto
            0 vlineto
            176 436 12 1 34 3 -7 23 248 callgsubr
          </CharString>
          <CharString index="89">
            rmoveto
            -48 -31 -53 -28 -44 hhcurveto
            -39 -64 22 84 82 63 29 61 46 35 -17 -20 26 hvcurveto
            198 185 -102 callsubr
            return
          </CharString>
          <CharString index="90">
            207 -102 callsubr
            return
          </CharString>
          <CharString index="91">
            58 -97 115 -121 19 -15 return
          </CharString>
          <CharString index="92">
            -105 callsubr
            -249 hmoveto
            -51 callsubr
            return
          </CharString>
          <CharString index="93">
            hhcurveto
            -48 -53 27 58 66 67 34 75 25 hvcurveto
            -7 19 -15 18 -11 11 -30 -9 -28 -10 -23 -13 rrcurveto
            -35 6 -46 30 57 vvcurveto
            27 10 28 16 18 vhcurveto
            return
          </CharString>
          <CharString index="94">
            rmoveto
            -45 callgsubr
            69 -6 -169 -315 -178 317 48 -49 callgsubr
            -173 hlineto
            -45 callgsubr
            54 -6 204 -360 rlineto
            -229 vlineto
            -50 -74 callgsubr
            189 -43 callsubr
            -74 6 rlineto
            227 vlineto
            202 362 rlineto
            1 hlineto
            20 3 33 5 -6 25 248 callgsubr
          </CharString>
          <CharString index="95">
            rmoveto
            -27 -31 callgsubr
            105 -6 rlineto
            -178 vlineto
            -29 -37 -63 -19 -60 hhcurveto
            -165 -58 136 161 186 77 131 153 91 64 -38 -96 hvcurveto
            47 6 33 20 60 -52 67 -142 -203 -109 -159 -223 6 hvcurveto
            -205 6 100 -120 168 hhcurveto
            86 96 32 48 48 hvcurveto
            195 vlineto
            24 3 32 4 -5 26 248 callgsubr
          </CharString>
          <CharString index="96">
            28 148 callgsubr
            -28 -25 -21 -22 -25 -26 21 -21 25 hvcurveto
            return
          </CharString>
          <CharString index="97">
            rmoveto
            -334 -9 388 619 -3 7 -3 7 -4 7 rlinecurve
            -414 -178 hlineto
            14 -3 21 5 4 29 13 91 rcurveline
            291 9 -387 -617 3 -7 2 -7 5 -7 rlinecurve
            457 184 hlineto
            -15 3 -21 -5 -4 -29 rrcurveto
            endchar
          </CharString>
          <CharString index="98">
            -45 -33 -60 -73 53 -76 67 hvcurveto
            -44 callsubr
            return
          </CharString>
          <CharString index="99">
            -74 callgsubr
            168 -43 callsubr
            -74 6 return
          </CharString>
          <CharString index="100">
            vvcurveto
            -42 -27 -54 -91 -2 vhcurveto
            38 -22 -23 35 -27 hhcurveto
            -21 -40 -21 -31 -23 45 -39 64 -10 hvcurveto
            34 -56 30 -61 24 -49 21 8 19 16 9 12 -16 29 -43 58 -35 40 rrcurveto
            84 4 66 50 84 vvcurveto
            61 -36 73 -87 65 vhcurveto
            return
          </CharString>
          <CharString index="101">
            rmoveto
            22 -29 -41 21 -54 hhcurveto
            -80 -84 -46 -98 -85 63 -80 112 50 33 15 24 30 hvcurveto
            -55 vlineto
            -25 -63 -60 -7 -57 197 callsubr
            367 hlineto
            -293 vmoveto
            -44 -32 -52 -20 -44 hhcurveto
            -40 -64 21 76 83 63 29 61 47 35 -17 -21 26 hvcurveto
            198 201 callgsubr
            -770 0 callsubr
            483 155 rlineto
            -63 -105 callgsubr
          </CharString>
          <CharString index="102">
            rmoveto
            -272 -4 rlineto
            589 vlineto
            50 -49 callgsubr
            -187 hlineto
            78 callgsubr
            rlineto
            -589 vlineto
            -50 -74 callgsubr
            457 129 hlineto
            28 -29 -4 -10 -1 vhcurveto
            endchar
          </CharString>
          <CharString index="103">
            -45 -41 callsubr
            return
          </CharString>
          <CharString index="104">
            -274 -6 rlineto
            270 vlineto
            196 -11 4 22 0 24 -4 19 rlinecurve
            -196 -11 rlineto
            return
          </CharString>
          <CharString index="105">
            223 callgsubr
            27 -19 20 -27 -27 -19 -20 -27 -27 19 -20 27 hvcurveto
            return
          </CharString>
          <CharString index="106">
            -107 callgsubr
            366 16 callgsubr
            -85 64 -76 89 -14 hvcurveto
            88 callgsubr
            return
          </CharString>
          <CharString index="107">
            -107 callgsubr
            143 hlineto
            18 -38 15 -44 -52 vvcurveto
            -26 -3 -41 -10 -31 91 callsubr
            -47 -22 -23 -33 -106 138 -108 184 -9 hvcurveto
            -292 -82 3 -20 9 -21 10 -10 rlinecurve
            return
          </CharString>
          <CharString index="108">
            11 15 4 10 5 return
          </CharString>
          <CharString index="109">
            119 callsubr
            -45 58 -71 110 89 vvcurveto
            return
          </CharString>
          <CharString index="110">
            164 callsubr
            20 callgsubr
          </CharString>
          <CharString index="111">
            8 -17 16 -20 15 -11 rlinecurve
            165 121 141 -111 12 6 16 16 5 11 rlinecurve
            return
          </CharString>
          <CharString index="112">
            8 callgsubr
            240 callgsubr
            hvcurveto
            -1 4 6 -1 5 hhcurveto
            9 10 2 6 6 hvcurveto
            9 8 8 37 30 vvcurveto
            return
          </CharString>
          <CharString index="113">
            61 13 -15 -20 -24 -18 -15 -31 -23 -14 8 11 -14 hvcurveto
            -6 -4 -8 -10 2 -15 rrcurveto
            -15 14 24 -13 35 hhcurveto
            52 39 29 50 39 -23 30 -57 hvcurveto
            return
          </CharString>
          <CharString index="114">
            28 -32 -50 31 -69 hhcurveto
            return
          </CharString>
          <CharString index="115">
            rmoveto
            35 callsubr
            137 callgsubr
            return
          </CharString>
          <CharString index="116">
            -106 callgsubr
            -304 -107 callgsubr
            106 -204 hlineto
            -13 -27 -36 -6 -36 hhcurveto
            -44 -42 9 19 -26 hvcurveto
            48 40 34 47 48 vvcurveto
            65 -46 60 -71 -67 -49 -53 -60 -61 52 -53 29 -23 vhcurveto
            -54 -34 -60 -27 -47 -13 8 -21 11 -18 9 -10 54 18 65 32 54 39 return
          </CharString>
          <CharString index="117">
            -99 callsubr
            53 214 rmoveto
            343 -91 callgsubr
            -762 hlineto
            -17 7 -23 8 -10 vhcurveto
            366 -165 hlineto
            38 -38 -56 19 -51 hhcurveto
            -95 -76 -63 -93 -85 64 -76 89 -14 hvcurveto
            -135 -72 7 -20 11 -18 13 -12 rlinecurve
            267 169 rlineto
            34 callgsubr
          </CharString>
          <CharString index="118">
            -101 85 -129 52 -70 hvcurveto
            12 callsubr
            return
          </CharString>
          <CharString index="119">
            5 2 19 2 callsubr
            return
          </CharString>
          <CharString index="120">
            244 25 callgsubr
            return
          </CharString>
          <CharString index="121">
            hhcurveto
            -76 -55 42 61 -31 50 callsubr
            return
          </CharString>
          <CharString index="122">
            1 13 -17 callgsubr
            return
          </CharString>
          <CharString index="123">
            -141 81 -56 88 100 50 71 115 vhcurveto
            212 return
          </CharString>
          <CharString index="124">
            -99 callsubr
            53 214 rmoveto
            90 callgsubr
            -761 hlineto
            -17 7 -23 8 -10 vhcurveto
            366 65 callgsubr
          </CharString>
          <CharString index="125">
            -80 hhcurveto
            -3 -1 -18 -20 -5 -15 rrcurveto
            46 -40 37 -40 -45 vvcurveto
            -42 -31 -25 -42 -93 -67 121 94 -35 vhcurveto
            -10 -18 -6 -9 -9 hvcurveto
            -118 40 78 -138 124 hhcurveto
            73 38 47 58 48 -26 46 -26 27 hvcurveto
            64 -14 81 -48 58 -67 rrcurveto
            -26 vlineto
            return
          </CharString>
          <CharString index="126">
            rmoveto
            51 31 -27 -43 -51 -42 -30 -53 -33 hvcurveto
            -27 15 -49 44 50 vvcurveto
            40 30 35 59 vhcurveto
            return
          </CharString>
          <CharString index="127">
            -94 -71 -88 -45 26 -37 32 -36 hvcurveto
            endchar
          </CharString>
          <CharString index="128">
            rmoveto
            -17 -30 -34 -10 -38 hhcurveto
            -52 1 callgsubr
            return
          </CharString>
          <CharString index="129">
            1 rrcurveto
            75 callsubr
            return
          </CharString>
          <CharString index="130">
            66 callsubr
            -114 vlineto
            -10 22 -30 259 callsubr
          </CharString>
          <CharString index="131">
            -80 30 -51 21 1 50 1 48 47 32 61 -1 62 -1 24 -34 -1 -43 17 -1 34 8 1 37 1 54 -71 24 -57 1 return
          </CharString>
          <CharString index="132">
            -78 126 -35 vhcurveto
            8 8 3 15 4 15 rrcurveto
            -130 37 return
          </CharString>
          <CharString index="133">
            -156 hlineto
            7 callsubr
            return
          </CharString>
          <CharString index="134">
            -51 callsubr
            -115 21 74 -88 133 -99 callgsubr
          </CharString>
          <CharString index="135">
            rmoveto
            652 vlineto
            -131 -18 171 callgsubr
            67 callgsubr
            return
          </CharString>
          <CharString index="136">
            rmoveto
            26 17 17 26 26 -17 17 -26 -26 -17 -17 -26 -26 17 -17 26 hvcurveto
            return
          </CharString>
          <CharString index="137">
            rmoveto
            -125 vlineto
            7 -7 31 7 2 28 3 57 rcurveline
            210 5 -290 -428 2 -9 3 -7 4 -6 rlinecurve
            349 129 hlineto
            -7 7 -30 -7 -2 -28 -5 -58 rcurveline
            -244 -4 287 424 -3 10 -3 6 -4 6 rlinecurve
            return
          </CharString>
          <CharString index="138">
            -35 callsubr
            61 83 -2 -5 70 hvcurveto
            -294 -223 37 callsubr
            260 214 rlineto
            169 callsubr
          </CharString>
          <CharString index="139">
            -41 callgsubr
            rrcurveto
            -93 70 78 -40 85 hhcurveto
            101 73 56 87 return
          </CharString>
          <CharString index="140">
            rmoveto
            -45 callgsubr
            73 -6 rlineto
            return
          </CharString>
          <CharString index="141">
            vlineto
            51 2 rlineto
            209 8 112 -86 -220 vvcurveto
            -204 -112 -92 -186 vhcurveto
            -182 635 33 callsubr
            return
          </CharString>
          <CharString index="142">
            -46 callgsubr
            587 return
          </CharString>
          <CharString index="143">
            190 callsubr
            53 214 rmoveto
            return
          </CharString>
          <CharString index="144">
            5 -17 17 -21 13 -8 rlinecurve
            return
          </CharString>
          <CharString index="145">
            73 callgsubr
            20 3 20 5 17 5 18 5 16 6 13 5 rrcurveto
            -227 -105 callgsubr
          </CharString>
          <CharString index="146">
            -77 32 -89 37 84 vvcurveto
            71 62 35 76 87 38 -45 -67 vhcurveto
            24 31 13 44 84 -116 23 -62 -2 hvcurveto
            return
          </CharString>
          <CharString index="147">
            56 -96 114 -117 19 -15 137 callsubr
            -100 102 -56 90 37 11 38 16 46 20 rrcurveto
            22 50 51 27 59 hhcurveto
            return
          </CharString>
          <CharString index="148">
            rmoveto
            -91 -69 52 93 131 122 31 87 70 90 -21 -106 -105 -98 -75 -111 hvcurveto
            return
          </CharString>
          <CharString index="149">
            -80 126 -173 228 -42 return
          </CharString>
          <CharString index="150">
            69 -26 34 -19 -1 -51 -1 -60 -56 -33 -63 1 -65 1 -46 37 -12 51 -23 1 -18 -17 -1 -27 -1 return
          </CharString>
          <CharString index="151">
            -84 callsubr
            endchar
          </CharString>
          <CharString index="152">
            152 178 42 rmoveto
            273 189 45 -189 274 34 callsubr
            -272 -51 -45 51 -272 49 callgsubr
          </CharString>
          <CharString index="153">
            245 callgsubr
            -97 80 -120 57 -74 hvcurveto
            213 callgsubr
            57 -70 106 82 vvcurveto
            83 53 28 128 return
          </CharString>
          <CharString index="154">
            99 callsubr
            196 return
          </CharString>
          <CharString index="155">
            -27 callgsubr
            61 84 -2 -5 70 hvcurveto
            -40 callsubr
          </CharString>
          <CharString index="156">
            -54 132 callgsubr
            return
          </CharString>
          <CharString index="157">
            hvcurveto
            145 34 60 74 79 vvcurveto
            82 -63 60 -78 return
          </CharString>
          <CharString index="158">
            94 callsubr
            118 callgsubr
            hvcurveto
            endchar
          </CharString>
          <CharString index="159">
            -306 vmoveto
            -58 -39 -74 -34 -50 hhcurveto
            -40 -67 22 92 98 76 37 64 53 40 -25 -33 37 hvcurveto
            return
          </CharString>
          <CharString index="160">
            rmoveto
            9 22 21 25 27 -2 53 -4 21 -52 62 -4 62 -4 36 42 14 49 -30 11 rcurveline
            -9 -28 -23 -21 -33 2 -53 4 -19 53 -59 4 -42 3 -47 -26 -19 -61 rrcurveto
            endchar
          </CharString>
          <CharString index="161">
            -54 15 -5 vhcurveto
            -1 4 4 -1 4 hhcurveto
            10 10 4 10 7 hvcurveto
            10 15 10 40 2 28 rrcurveto
            1 19 20 0 21 hhcurveto
            return
          </CharString>
          <CharString index="162">
            -91 callsubr
            -323 -48 callsubr
            return
          </CharString>
          <CharString index="163">
            -216 342 -80 callsubr
            -352 -107 callgsubr
            156 hlineto
            17 -38 16 -54 -50 vvcurveto
            32 callgsubr
            rrcurveto
            99 4 33 90 90 vvcurveto
            45 -7 44 -9 34 vhcurveto
            return
          </CharString>
          <CharString index="164">
            163 callsubr
            129 callgsubr
            -25 -22 -5 -10 -17 vhcurveto
            return
          </CharString>
          <CharString index="165">
            rmoveto
            10 23 21 24 27 -1 53 -4 21 -52 62 -4 62 -4 36 42 13 49 -29 11 rcurveline
            -9 -28 -24 -21 -32 2 -53 4 -20 53 -59 4 -41 3 -47 -26 -20 -61 rrcurveto
            return
          </CharString>
          <CharString index="166">
            vlineto
            -28 callgsubr
            -77 6 rlineto
            return
          </CharString>
          <CharString index="167">
            255 callsubr
            59 -26 -127 219 -232 96 callsubr
          </CharString>
          <CharString index="168">
            -12 -16 -8 -21 -30 vvcurveto
            -51 22 -49 73 -31 vhcurveto
            -24 -24 -14 -30 -38 vvcurveto
            return
          </CharString>
          <CharString index="169">
            rmoveto
            -274 -6 rlineto
            270 161 callsubr
            -418 vlineto
            -29 4 -28 247 callgsubr
            -7 rlineto
            -587 vlineto
            -50 -74 callgsubr
            459 129 hlineto
            30 -29 -6 -10 -1 vhcurveto
            endchar
          </CharString>
          <CharString index="170">
            vlineto
            16 -36 -36 12 -49 hhcurveto
            -150 -90 -106 -169 4 hvcurveto
            -161 4 88 -79 101 hhcurveto
            74 54 41 38 36 hvcurveto
            -45 3 16 -34 45 hhcurveto
            32 21 15 28 1 hvcurveto
            return
          </CharString>
          <CharString index="171">
            -230 -105 callgsubr
          </CharString>
          <CharString index="172">
            -88 callgsubr
            -42 18 vhcurveto
            -7 -21 -3 -17 118 callsubr
            26 23 -26 -36 10 hvcurveto
            -115 21 74 -88 133 -99 callgsubr
          </CharString>
          <CharString index="173">
            hhcurveto
            38 27 -9 -29 hvcurveto
            -1 -39 -43 -33 -92 -21 rrcurveto
            -109 20 71 -84 127 78 callsubr
            18 27 hvcurveto
            return
          </CharString>
          <CharString index="174">
            rmoveto
            -15 220 callgsubr
            42 26 32 42 24 33 -10 -40 -52 -37 -35 -58 -16 vhcurveto
            return
          </CharString>
          <CharString index="175">
            vvcurveto
            -94 78 -83 104 54 44 23 33 36 vhcurveto
            return
          </CharString>
          <CharString index="176">
            hlineto
            -47 callsubr
            return
          </CharString>
          <CharString index="177">
            240 callsubr
            -11 -39 hhcurveto
            -52 -59 37 82 37 11 30 19 23 hvcurveto
            return
          </CharString>
          <CharString index="178">
            78 hhcurveto
            92 74 71 43 26 hvcurveto
            -13 21 -17 16 -20 11 rrcurveto
            -156 51 rmoveto
            -9 -37 -29 -12 -10 30 -35 11 11 34 31 10 9 -29 36 -11 hvcurveto
            endchar
          </CharString>
          <CharString index="179">
            -107 callgsubr
            148 93 callsubr
            return
          </CharString>
          <CharString index="180">
            -54 callsubr
            215 -346 -71 callgsubr
          </CharString>
          <CharString index="181">
            rmoveto
            237 -223 hlineto
            -46 -43 -21 -34 -12 vhcurveto
            6 -23 12 -19 11 -11 rrcurveto
            52 23 49 38 61 vvcurveto
            233 115 vlineto
            -106 callgsubr
            return
          </CharString>
          <CharString index="182">
            1 -42 -47 1 -42 hhcurveto
            return
          </CharString>
          <CharString index="183">
            12 9 11 14 2 12 rrcurveto
            -73 46 -10 34 26 vvcurveto
            50 41 25 43 62 23 -54 -49 -93 -82 -79 -71 -15 vhcurveto
            25 -19 -31 26 -22 hhcurveto
            -23 -36 175 callgsubr
            51 9 11 -72 callgsubr
            return
          </CharString>
          <CharString index="184">
            hhcurveto
            56 46 17 18 30 hvcurveto
            -159 -105 callgsubr
          </CharString>
          <CharString index="185">
            hhcurveto
            50 42 17 return
          </CharString>
          <CharString index="186">
            176 callgsubr
            -62 -41 -37 -73 -83 -81 51 124 -89 hvcurveto
            -13 -6 -8 -5 -7 -9 rrcurveto
            -82 46 111 -124 140 hhcurveto
            85 55 45 70 10 hvcurveto
            6 5 0 5 hhcurveto
            return
          </CharString>
          <CharString index="187">
            14 callsubr
            -23 -22 -5 -10 -17 vhcurveto
            return
          </CharString>
          <CharString index="188">
            hhcurveto
            -47 -66 22 93 98 72 36 68 26 23 -5 -21 34 hvcurveto
            15 36 rlineto
            25 -31 -37 17 -52 hhcurveto
            return
          </CharString>
          <CharString index="189">
            vhcurveto
            -30 83 callgsubr
            return
          </CharString>
          <CharString index="190">
            261 -18 callsubr
            return
          </CharString>
          <CharString index="191">
            -107 callgsubr
            155 hlineto
            -98 callgsubr
            return
          </CharString>
          <CharString index="192">
            218 callgsubr
            -95 70 -93 118 60 43 24 29 37 hvcurveto
            -153 -105 callgsubr
          </CharString>
          <CharString index="193">
            vhcurveto
            184 -14 callgsubr
          </CharString>
          <CharString index="194">
            -107 callgsubr
            95 -125 hlineto
            -74 21 -60 52 -28 vhcurveto
            -57 -23 -32 -47 -60 vvcurveto
            return
          </CharString>
          <CharString index="195">
            rmoveto
            -23 -1 -24 -21 -11 -22 196 -106 rcurveline
            12 6 8 10 6 10 rrcurveto
            return
          </CharString>
          <CharString index="196">
            -22 -21 21 vhcurveto
            16 13 rlineto
            36 -15 -32 47 -75 hhcurveto
            return
          </CharString>
          <CharString index="197">
            98 vvcurveto
            45 -7 44 -9 34 vhcurveto
            return
          </CharString>
          <CharString index="198">
            vhcurveto
            5 -17 -20 5 -20 hhcurveto
            return
          </CharString>
          <CharString index="199">
            -2 -4 -2 -9 -8 vvcurveto
            return
          </CharString>
          <CharString index="200">
            117 callsubr
            -39 -27 -22 -36 -23 14 -32 22 -38 hvcurveto
            40 callsubr
            return
          </CharString>
          <CharString index="201">
            155 callsubr
            -576 81 callgsubr
            return
          </CharString>
          <CharString index="202">
            225 callsubr
            -21 5 -19 204 callsubr
            -141 33 -114 42 -68 121 rrcurveto
            99 5 30 103 90 callsubr
            return
          </CharString>
          <CharString index="203">
            hhcurveto
            -97 -69 -42 -74 -59 43 -51 13 -9 hvcurveto
            9 16 9 6 4 hvcurveto
            -11 11 -22 27 41 vvcurveto
            62 54 28 79 168 121 -157 -70 32 vhcurveto
            -143 -3 callgsubr
          </CharString>
          <CharString index="204">
            -94 -99 callsubr
            return
          </CharString>
          <CharString index="205">
            hhcurveto
            100 callsubr
          </CharString>
          <CharString index="206">
            hhcurveto
            49 callsubr
            hvcurveto
            return
          </CharString>
          <CharString index="207">
            54 44 23 33 36 hvcurveto
            -1 callgsubr
          </CharString>
          <CharString index="208">
            91 callgsubr
            -144 -94 -68 -117 return
          </CharString>
          <CharString index="209">
            -50 -74 callgsubr
            187 -43 callsubr
            -74 6 rlineto
            return
          </CharString>
          <CharString index="210">
            vhcurveto
            6 4 10 11 4 11 rrcurveto
            58 return
          </CharString>
          <CharString index="211">
            -107 callgsubr
            321 return
          </CharString>
          <CharString index="212">
            -81 93 callgsubr
            return
          </CharString>
          <CharString index="213">
            -107 callgsubr
            348 -99 -142 154 callsubr
            -45 29 -34 29 -27 hvcurveto
            -40 -26 -26 -40 -55 vvcurveto
            -103 81 -83 166 -32 vhcurveto
            8 8 3 15 4 15 rrcurveto
            -161 32 -44 59 72 vvcurveto
            89 76 34 83 return
          </CharString>
          <CharString index="214">
            165 callgsubr
            69 callgsubr
            return
          </CharString>
          <CharString index="215">
            54 45 23 20 28 return
          </CharString>
          <CharString index="216">
            59 callsubr
            185 vlineto
            -16 36 36 -12 49 hhcurveto
            150 89 106 169 -4 hvcurveto
            162 -4 -87 78 -101 hhcurveto
            -67 -59 -42 -37 -38 hvcurveto
            endchar
          </CharString>
          <CharString index="217">
            550 163 callsubr
            return
          </CharString>
          <CharString index="218">
            -107 callgsubr
            147 225 callsubr
            -20 5 -20 231 callgsubr
            11 15 12 23 1 13 -140 33 -115 43 return
          </CharString>
          <CharString index="219">
            -16 callsubr
            rlinecurve
            -59 callgsubr
            37 38 215 callsubr
            -259 -105 callgsubr
          </CharString>
          <CharString index="220">
            550 121 callsubr
            return
          </CharString>
          <CharString index="221">
            -154 -80 -126 -155 2 hvcurveto
            -132 2 64 -102 127 hhcurveto
            83 92 43 40 8 -3 6 -7 5 hvcurveto
            return
          </CharString>
          <CharString index="222">
            397 104 rmoveto
            -39 -48 -36 -28 -59 hhcurveto
            -112 -42 100 105 111 46 100 112 70 51 -35 -17 18 hvcurveto
            return
          </CharString>
          <CharString index="223">
            rmoveto
            -5 vlineto
            -202 -193 24 -24 244 200 4 18 0 2 -4 20 rlinecurve
            -244 199 -23 -24 rlineto
            return
          </CharString>
          <CharString index="224">
            hlineto
            17 -38 16 -54 -50 vvcurveto
            -25 -4 -17 -10 -21 vhcurveto
            4 -17 -21 3 -26 hhcurveto
            return
          </CharString>
          <CharString index="225">
            -9 vvcurveto
            5 -13 22 -18 22 -7 rrcurveto
            99 13 51 82 65 hhcurveto
            return
          </CharString>
          <CharString index="226">
            10 10 13 rrcurveto
            return
          </CharString>
          <CharString index="227">
            -107 callgsubr
            360 -95 callsubr
            return
          </CharString>
          <CharString index="228">
            133 callsubr
            -23 -22 -5 -10 -17 vhcurveto
            return
          </CharString>
          <CharString index="229">
            126 7 55 73 67 vvcurveto
            140 callsubr
            return
          </CharString>
          <CharString index="230">
            -102 callsubr
            -577 -107 callgsubr
            379 return
          </CharString>
          <CharString index="231">
            103 callgsubr
            38 -31 -50 42 -87 hhcurveto
            return
          </CharString>
          <CharString index="232">
            -20 -11 -14 -24 15 -23 rlinecurve
            22 -36 40 -32 20 -1 13 1 13 16 1 8 1 11 -15 49 -7 24 return
          </CharString>
          <CharString index="233">
            -92 253 callsubr
            -18 hhcurveto
            -146 -93 -70 -111 return
          </CharString>
          <CharString index="234">
            vvcurveto
            -95 69 -95 118 61 42 25 -20 callgsubr
          </CharString>
          <CharString index="235">
            146 callgsubr
            6 2 18 -36 callsubr
            83 return
          </CharString>
          <CharString index="236">
            vhcurveto
            5 4 6 14 5 11 rrcurveto
            58 return
          </CharString>
          <CharString index="237">
            -3 -33 -2 6 return
          </CharString>
          <CharString index="238">
            vvcurveto
            -38 -24 -24 -40 -16 vhcurveto
            7 -20 16 -21 9 -9 rrcurveto
            42 17 33 42 44 vvcurveto
            55 -42 81 -119 -44 -41 -9 -17 -34 82 callsubr
            endchar
          </CharString>
          <CharString index="239">
            -107 callgsubr
            100 -156 hlineto
            155 callgsubr
            102 vhcurveto
            183 callsubr
            return
          </CharString>
          <CharString index="240">
            -102 callsubr
            -252 -107 callgsubr
            54 39 callgsubr
            return
          </CharString>
          <CharString index="241">
            -107 callgsubr
            95 -125 hlineto
            -82 26 -54 47 -26 vhcurveto
            -48 -20 -41 -43 -66 vvcurveto
            return
          </CharString>
          <CharString index="242">
            vlineto
            -11 -18 -6 -21 -23 vvcurveto
            82 callgsubr
            -93 78 -53 86 return
          </CharString>
          <CharString index="243">
            hlineto
            144 callsubr
            return
          </CharString>
          <CharString index="244">
            11 6 24 16 10 13 -57 46 return
          </CharString>
          <CharString index="245">
            -127 108 -94 119 return
          </CharString>
          <CharString index="246">
            rmoveto
            28 18 -18 -28 -28 -18 -18 -28 -28 -18 18 28 28 18 18 28 hvcurveto
            -2 -132 rmoveto
            54 37 35 53 1 hvcurveto
            50 -34 34 -54 -55 -37 -35 -53 -50 35 -34 53 vhcurveto
            return
          </CharString>
          <CharString index="247">
            77 -71 30 -50 -66 -33 -53 -53 -32 13 -36 27 -34 vhcurveto
            36 callgsubr
            return
          </CharString>
          <CharString index="248">
            -107 callgsubr
            146 -10 callgsubr
            return
          </CharString>
          <CharString index="249">
            560 -18 callgsubr
            return
          </CharString>
          <CharString index="250">
            rmoveto
            89 70 69 76 37 hvcurveto
            -18 13 -18 11 -23 8 rrcurveto
            -73 -29 -49 -45 -69 hhcurveto
            -62 -39 36 82 -47 hvcurveto
            -13 -3 -11 -6 -11 -7 rrcurveto
            -79 35 62 -82 96 hhcurveto
            return
          </CharString>
          <CharString index="251">
            18 -38 15 -53 -53 vvcurveto
            -31 -3 -33 -10 -25 vhcurveto
            return
          </CharString>
          <CharString index="252">
            -123 209 callsubr
            return
          </CharString>
          <CharString index="253">
            4 -17 12 -19 13 -12 rlinecurve
            return
          </CharString>
          <CharString index="254">
            hlineto
            -36 -19 -28 -38 -49 vvcurveto
            return
          </CharString>
          <CharString index="255">
            87 callsubr
            -99 88 -64 104 108 85 70 94 67 -43 50 -72 22 vhcurveto
            return
          </CharString>
          <CharString index="256">
            860 rmoveto
            -29 -7 -22 -23 -33 -53 -23 52 -59 hhcurveto
            -42 -45 -29 -63 -15 hvcurveto
            30 -11 rlineto
            23 8 19 26 27 53 25 -50 62 hhcurveto
            62 33 45 50 10 hvcurveto
            return
          </CharString>
          <CharString index="257">
            -25 600 rmoveto
            -107 callsubr
            return
          </CharString>
          <CharString index="258">
            rmoveto
            -30 -30 -51 -20 -52 hhcurveto
            -86 -54 46 66 -24 hvcurveto
            179 callgsubr
            198 -79 callsubr
            return
          </CharString>
          <CharString index="259">
            -194 5 94 -131 180 hhcurveto
            126 76 64 31 8 -4 8 -8 4 hvcurveto
            return
          </CharString>
          <CharString index="260">
            hhcurveto
            -48 -53 27 58 66 67 34 75 25 hvcurveto
            -7 19 -15 18 -11 11 -31 -9 -27 -10 -24 -13 rrcurveto
            -34 5 -46 31 57 vvcurveto
            27 10 28 16 18 vhcurveto
            return
          </CharString>
          <CharString index="261">
            hlineto
            -109 -32 -40 -46 return
          </CharString>
          <CharString index="262">
            41 callsubr
            108 471 258 callgsubr
            return
          </CharString>
          <CharString index="263">
            69 callsubr
            -47 -34 -37 -70 -23 vhcurveto
            83 -25 -48 14 -35 hhcurveto
            -69 -46 -50 252 callgsubr
            -45 68 105 callsubr
            return
          </CharString>
          <CharString index="264">
            190 callsubr
            214 vmoveto
            -165 vlineto
            38 -38 -56 19 -51 hhcurveto
            return
          </CharString>
          <CharString index="265">
            196 634 -196 hlineto
            236 -185 rmoveto
            196 185 -196 hlineto
            return
          </CharString>
          <CharString index="266">
            318 -80 callsubr
            return
          </CharString>
          <CharString index="267">
            182 callsubr
            -87 -89 -50 -106 -95 69 -95 118 61 42 25 29 37 hvcurveto
            -153 -105 callgsubr
          </CharString>
          <CharString index="268">
            vlineto
            196 -11 4 22 0 24 -4 19 rlinecurve
            -196 -11 rlineto
            272 vlineto
            262 -5 10 -112 rlineto
            10 -1 29 -4 28 vvcurveto
            139 return
          </CharString>
          <CharString index="269">
            -178 244 149 162 31 3 33 3 -6 23 1 10 rlinecurve
            -152 hlineto
            212 callgsubr
            -197 -219 rlineto
            return
          </CharString>
          <CharString index="270">
            -102 callsubr
            -307 -107 callgsubr
            109 return
          </CharString>
          <CharString index="271">
            12 callsubr
            78 56 31 73 return
          </CharString>
          <CharString index="272">
            -131 -15 rlineto
            -13 -1 return
          </CharString>
          <CharString index="273">
            -10 22 -17 32 vhcurveto
            242 vlineto
            68 -34 80 -141 -42 -41 -7 -14 -34 vhcurveto
            -26 23 -11 28 21 vvcurveto
            33 14 18 105 vhcurveto
            endchar
          </CharString>
          <CharString index="274">
            rmoveto
            -53 255 53 vlineto
            endchar
          </CharString>
          <CharString index="275">
            -102 callsubr
            -1153 -107 callgsubr
            return
          </CharString>
          <CharString index="276">
            -191 -105 callgsubr
          </CharString>
          <CharString index="277">
            vlineto
            -4 callsubr
            return
          </CharString>
          <CharString index="278">
            141 callsubr
            -115 21 74 -88 133 hhcurveto
            return
          </CharString>
          <CharString index="279">
            -9 16 -13 13 -13 10 rrcurveto
            -32 -27 -28 -19 -41 hhcurveto
            -35 -20 14 28 34 33 23 40 49 hvcurveto
            22 27 47 43 72 vvcurveto
            56 return
          </CharString>
          <CharString index="280">
            620 rmoveto
            -52 hlineto
            -354 -620 rlineto
            52 hlineto
            return
          </CharString>
          <CharString index="281">
            vvcurveto
            -62 46 -48 72 44 50 18 35 28 vhcurveto
            -8 10 -10 10 -21 17 rrcurveto
            -37 -29 -43 -11 -25 hhcurveto
            -30 -32 19 38 55 return
          </CharString>
          <CharString index="282">
            -42 -29 -18 -24 -42 48 -54 15 -5 hvcurveto
            -1 4 4 -1 4 hhcurveto
            10 10 4 10 7 hvcurveto
            10 15 10 35 2 28 return
          </CharString>
          <CharString index="283">
            -68 -81 -55 27 -45 29 -28 hvcurveto
            endchar
          </CharString>
          <CharString index="284">
            69 callsubr
            -51 return
          </CharString>
          <CharString index="285">
            vvcurveto
            -22 13 -30 20 -33 vhcurveto
            -78 callsubr
            return
          </CharString>
          <CharString index="286">
            -156 hlineto
            218 callgsubr
            -23 4 return
          </CharString>
          <CharString index="287">
            -107 callgsubr
            336 return
          </CharString>
          <CharString index="288">
            -99 -115 154 callsubr
            return
          </CharString>
          <CharString index="289">
            31 -34 -53 27 -64 hhcurveto
            return
          </CharString>
          <CharString index="290">
            3 hlineto
            -170 -127 37 callsubr
            259 216 rlineto
            -214 vlineto
            -104 callsubr
            return
          </CharString>
          <CharString index="291">
            62 callgsubr
            -171 47 78 -160 134 -54 callsubr
            return
          </CharString>
          <CharString index="292">
            -76 -30 -51 -44 -65 hhcurveto
            -57 -47 34 82 -40 hvcurveto
            -13 -3 -11 -6 -11 -7 rrcurveto
            -79 31 62 -74 91 hhcurveto
            return
          </CharString>
          <CharString index="293">
            155 callgsubr
            114 56 46 24 21 28 vhcurveto
            -192 -105 callgsubr
          </CharString>
          <CharString index="294">
            -53 -104 hvcurveto
            -251 vlineto
            -44 -41 callsubr
            181 -31 callsubr
            return
          </CharString>
          <CharString index="295">
            181 callgsubr
            -38 return
          </CharString>
          <CharString index="296">
            11 21 26 6 28 hhcurveto
            return
          </CharString>
          <CharString index="297">
            249 -99 callsubr
            return
          </CharString>
          <CharString index="298">
            -115 hlineto
            -23 callgsubr
            -28 -32 return
          </CharString>
          <CharString index="299">
            -240 159 callsubr
            return
          </CharString>
          <CharString index="300">
            188 callsubr
            -81 -23 vhcurveto
            return
          </CharString>
          <CharString index="301">
            rrcurveto
            18 28 49 26 37 hhcurveto
            return
          </CharString>
          <CharString index="302">
            48 43 12 21 30 return
          </CharString>
          <CharString index="303">
            -107 callgsubr
            93 -159 241 callsubr
            return
          </CharString>
          <CharString index="304">
            214 callsubr
            72 101 callgsubr
            return
          </CharString>
          <CharString index="305">
            435 rmoveto
            -23 callgsubr
            return
          </CharString>
          <CharString index="306">
            -12 29 23 vvcurveto
            33 14 19 92 vhcurveto
            34 65 -1 28 hhcurveto
            12 11 18 12 hvcurveto
            endchar
          </CharString>
          <CharString index="307">
            -81 -65 34 86 101 79 40 103 96 51 -34 -74 return
          </CharString>
          <CharString index="308">
            202 -91 callgsubr
            return
          </CharString>
          <CharString index="309">
            vhcurveto
            6 1 15 11 5 8 rrcurveto
            60 return
          </CharString>
          <CharString index="310">
            -131 -18 rlineto
            -13 -1 return
          </CharString>
          <CharString index="311">
            231 callgsubr
            9 10 14 28 1 13 return
          </CharString>
          <CharString index="312">
            -56 -43 -30 -65 -91 -94 68 126 -82 hvcurveto
            -16 -6 -11 -10 -6 -9 rrcurveto
            -101 64 return
          </CharString>
          <CharString index="313">
            29 callsubr
            endchar
          </CharString>
          <CharString index="314">
            19 -37 38 -35 20 -2 rrcurveto
            13 14 15 8 2 hvcurveto
            1 10 -11 51 -5 24 return
          </CharString>
          <CharString index="315">
            550 rmoveto
            213 callsubr
            return
          </CharString>
          <CharString index="316">
            hlineto
            130 callgsubr
            return
          </CharString>
          <CharString index="317">
            -10 callgsubr
            6 -32 10 -30 14 return
          </CharString>
          <CharString index="318">
            rmoveto
            -2 callsubr
            return
          </CharString>
          <CharString index="319">
            -150 vlineto
            -104 callsubr
            return
          </CharString>
          <CharString index="320">
            99 -91 callgsubr
            return
          </CharString>
          <CharString index="321">
            hhcurveto
            -132 -109 55 return
          </CharString>
          <CharString index="322">
            5 9 31 hvcurveto
            return
          </CharString>
          <CharString index="323">
            -29 -56 hhcurveto
            -48 -66 22 93 98 73 36 67 36 24 -8 -19 32 hvcurveto
            return
          </CharString>
          <CharString index="324">
            hlineto
            -50 -74 callgsubr
            return
          </CharString>
          <CharString index="325">
            -107 callgsubr
            172 hlineto
            return
          </CharString>
          <CharString index="326">
            -88 -88 -50 -108 -94 68 -93 122 return
          </CharString>
          <CharString index="327">
            -10 rlinecurve
            130 return
          </CharString>
          <CharString index="328">
            -91 callgsubr
            -524 -107 callgsubr
            return
          </CharString>
          <CharString index="329">
            -91 callgsubr
            -527 -107 callgsubr
            return
          </CharString>
          <CharString index="330">
            -34 -1 -28 -6 -7 -16 69 callgsubr
            -15 9 return
          </CharString>
          <CharString index="331">
            145 callsubr
            -142 -94 -74 -122 return
          </CharString>
          <CharString index="332">
            187 callgsubr
            -17 return
          </CharString>
          <CharString index="333">
            -106 callgsubr
            -574 -107 callgsubr
            return
          </CharString>
          <CharString index="334">
            164 -102 callsubr
            return
          </CharString>
          <CharString index="335">
            -65 -40 -52 -40 -77 hhcurveto
            -54 return
          </CharString>
          <CharString index="336">
            -1 -87 86 -29 80 -29 return
          </CharString>
          <CharString index="337">
            rlineto
            200 hlineto
            53 hmoveto
            return
          </CharString>
          <CharString index="338">
            -10 callgsubr
            5 return
          </CharString>
          <CharString index="339">
            34 22 47 51 62 vvcurveto
            44 -17 32 -20 22 vhcurveto
            endchar
          </CharString>
          <CharString index="340">
            121 -2 65 83 1 77 2 76 -59 24 -81 32 return
          </CharString>
          <CharString index="341">
            88 70 67 78 37 hvcurveto
            -18 13 -13 7 -23 8 rrcurveto
            return
          </CharString>
          <CharString index="342">
            70 -70 31 -44 -57 -34 -52 -51 -29 11 -35 28 -36 return
          </CharString>
          <CharString index="343">
            vhcurveto
            47 16 -3 26 hhcurveto
            12 10 23 13 hvcurveto
            endchar
          </CharString>
          <CharString index="344">
            -101 hlineto
            2 -19 -15 2 -25 hhcurveto
            return
          </CharString>
          <CharString index="345">
            -10 7 15 -7 32 -10 15 rlinecurve
            return
          </CharString>
          <CharString index="346">
            -114 21 80 -83 124 hhcurveto
            return
          </CharString>
          <CharString index="347">
            rmoveto
            -18 -28 -34 return
          </CharString>
          <CharString index="348">
            hlineto
            -141 81 -56 88 100 50 71 115 vhcurveto
            return
          </CharString>
          <CharString index="349">
            -32 -43 -33 -14 15 27 -2 vhcurveto
            -25 2 -14 -15 return
          </CharString>
          <CharString index="350">
            34 17 111 hvcurveto
            46 22 -3 26 hhcurveto
            11 10 return
          </CharString>
          <CharString index="351">
            154 callsubr
            -50 34 -35 32 -29 hvcurveto
            return
          </CharString>
          <CharString index="352">
            hhcurveto
            -56 -24 47 106 hvcurveto
            return
          </CharString>
          <CharString index="353">
            rmoveto
            -50 370 50 vlineto
            return
          </CharString>
          <CharString index="354">
            -72 -46 -50 -57 return
          </CharString>
          <CharString index="355">
            hhcurveto
            90 82 49 33 7 -3 8 -7 5 hvcurveto
            return
          </CharString>
          <CharString index="356">
            -3 -14 -14 -2 -14 hhcurveto
            -101 -51 57 68 73 return
          </CharString>
          <CharString index="357">
            hlineto
            -4 -12 -2 -13 -14 vvcurveto
            -93 78 -53 86 return
          </CharString>
          <CharString index="358">
            rmoveto
            -255 -53 255 hlineto
            return
          </CharString>
          <CharString index="359">
            -80 48 -65 73 -37 return
          </CharString>
          <CharString index="360">
            hlineto
            2 -20 -19 1 return
          </CharString>
          <CharString index="361">
            rlineto
            -258 vlineto
            return
          </CharString>
          <CharString index="362">
            -102 callsubr
            -140 hlineto
            return
          </CharString>
          <CharString index="363">
            69 callsubr
            -47 -33 -36 return
          </CharString>
          <CharString index="364">
            -68 47 -71 112 31 31 8 17 28 return
          </CharString>
          <CharString index="365">
            hlineto
            30 2 0 24 -2 10 rrcurveto
            endchar
          </CharString>
          <CharString index="366">
            31 vhcurveto
            570 vlineto
            endchar
          </CharString>
        <CharString name=".notdef">
          217 180 hmoveto
          390 701 -390 hlineto
          54 -50 rmoveto
          282 -601 -282 hlineto
          endchar
        </CharString>
        <CharString name="A">
          64 197 281 -86 callsubr
        </CharString>
        <CharString name="AE">
          321 280 362 rmoveto
          131 270 rlineto
          8 -270 hlineto
          340 -311 rmoveto
          144 callgsubr
          vlineto
          -401 -1 -310 -633 -39 -8 callsubr
          132 272 rlineto
          160 -274 217 callsubr
          467 129 hlineto
          30 -29 -6 -10 -1 vhcurveto
          endchar
        </CharString>
        <CharString name="Aacute">
          64 442 835 -84 callsubr
          -49 -448 -86 callsubr
        </CharString>
        <CharString name="Abreve">
          64 418 870 61 callgsubr
          -254 -576 -86 callsubr
        </CharString>
        <CharString name="Acircumflex">
          64 299 808 -33 callsubr
          31 -438 -86 callsubr
        </CharString>
        <CharString name="Adieresis">
          64 377 750 rmoveto
          -11 callsubr
          -156 hmoveto
          26 148 callgsubr
          -26 -27 -21 -22 -25 -26 21 -21 27 hvcurveto
          -24 -469 -86 callsubr
        </CharString>
        <CharString name="Agrave">
          64 231 869 88 callsubr
          -198 -464 -86 callsubr
        </CharString>
        <CharString name="Amacron">
          64 426 821 251 callsubr
          -229 -487 -86 callsubr
        </CharString>
        <CharString name="Aogonek">
          64 197 281 rmoveto
          96 328 97 -328 rlineto
          173 -281 rmoveto
          28 -4 29 10 -1 hvcurveto
          -64 6 rlineto
          -1 hlineto
          -193 631 -19 3 -18 0 -19 -3 rlinecurve
          -194 -633 rlineto
          0 vlineto
          -40 -8 callsubr
          56 191 rlineto
          220 hlineto
          57 -193 -50 -74 callgsubr
          97 hlineto
          -30 -21 -22 -29 -37 -29 callgsubr
          34 24 24 43 18 hvcurveto
          endchar
        </CharString>
        <CharString name="Aring">
          64 301 864 139 callsubr
          -102 -451 -86 callsubr
        </CharString>
        <CharString name="Atilde">
          64 433 149 callsubr
          -266 -570 -86 callsubr
        </CharString>
        <CharString name="B">
          -2 178 43 rmoveto
          288 vlineto
          61 1 rlineto
          140 2 60 -36 -111 vvcurveto
          -87 -41 -60 -144 2 vhcurveto
          -25 595 rmoveto
          112 7 64 -42 -91 vvcurveto
          -88 -48 -51 -130 vhcurveto
          -49 262 1 hlineto
          -109 43 33 callsubr
          -589 vlineto
          -50 -74 callgsubr
          237 hlineto
          131 92 71 125 -1 hvcurveto
          -1 94 -71 56 -69 14 rrcurveto
          59 26 48 47 78 vvcurveto
          90 -62 76 -131 vhcurveto
          endchar
        </CharString>
        <CharString name="C">
          14 326 690 rmoveto
          -183 -109 -163 -217 6 hvcurveto
          152 callsubr
          35 callgsubr
          vhcurveto
          endchar
        </CharString>
        <CharString name="CR">
          -265 endchar
        </CharString>
        <CharString name="Cacute">
          14 326 690 rmoveto
          -183 -109 -163 -217 6 hvcurveto
          152 callsubr
          35 callgsubr
          vhcurveto
          141 145 44 callsubr
        </CharString>
        <CharString name="Ccaron">
          14 483 853 -69 callgsubr
          156 -634 rmoveto
          35 callgsubr
          -183 -109 -163 -217 6 vhcurveto
          152 callsubr
          endchar
        </CharString>
        <CharString name="Ccedilla">
          14 287 -77 rmoveto
          6 callsubr
          6 27 rlineto
          114 6 68 59 29 vvcurveto
          8 -4 8 -8 4 vhcurveto
          35 callgsubr
          -183 -109 -163 -217 6 vhcurveto
          5 -188 89 -129 169 -8 rrcurveto
          endchar
        </CharString>
        <CharString name="D">
          119 178 42 rmoveto
          592 34 callsubr
          -589 49 callgsubr
        </CharString>
        <CharString name="Dcaron">
          119 432 855 -69 callgsubr
          -124 -694 rmoveto
          592 34 callsubr
          -589 49 callgsubr
        </CharString>
        <CharString name="Dcroat">
          45 callsubr
        </CharString>
        <CharString name="E">
          -68 callgsubr
          endchar
        </CharString>
        <CharString name="Eacute">
          -68 callgsubr
          266 477 44 callsubr
        </CharString>
        <CharString name="Ecaron">
          14 460 853 -69 callgsubr
          122 -683 62 callsubr
        </CharString>
        <CharString name="Ecircumflex">
          14 301 808 -33 callsubr
          284 -668 62 callsubr
        </CharString>
        <CharString name="Edieresis">
          -68 callgsubr
          45 392 -18 callgsubr
          endchar
        </CharString>
        <CharString name="Edotaccent">
          -68 callgsubr
          121 439 206 callsubr
        </CharString>
        <CharString name="Egrave">
          -68 callgsubr
          193 361 45 callgsubr
        </CharString>
        <CharString name="Emacron">
          -68 callgsubr
          -5 463 167 callsubr
        </CharString>
        <CharString name="Eogonek">
          14 549 39 rmoveto
          -17 -5 -16 -6 -15 -9 rrcurveto
          110 vlineto
          30 -29 -6 -10 -1 vhcurveto
          -10 -101 -274 -6 rlineto
          270 161 callsubr
          -418 vlineto
          -29 4 -28 247 callgsubr
          -7 rlineto
          -587 vlineto
          -50 -74 callgsubr
          431 hlineto
          -23 -20 -16 -25 -32 -29 callgsubr
          37 29 26 51 18 hvcurveto
          endchar
        </CharString>
        <CharString name="Eth">
          45 callsubr
        </CharString>
        <CharString name="Euro">
          -3 362 226 rmoveto
          45 -202 vlineto
          -1 9 0 9 9 8 0 8 8 vvcurveto
          203 45 -199 hlineto
          130 16 62 81 84 hhcurveto
          67 43 -48 -70 hvcurveto
          26 2 23 10 38 vvcurveto
          60 -56 50 -90 -142 -75 -105 -148 -18 vhcurveto
          -63 -45 60 hlineto
          -1 -10 0 -10 -10 vvcurveto
          -21 -59 -45 63 vlineto
          -154 18 82 -88 121 hhcurveto
          92 74 52 33 8 -4 7 -6 3 hvcurveto
          -33 -36 -48 -28 -60 hhcurveto
          -100 -57 78 122 -16 hvcurveto
          endchar
        </CharString>
        <CharString name="F">
          -23 490 675 rmoveto
          -419 hlineto
          -29 4 -28 247 callgsubr
          -7 rlineto
          -587 vlineto
          -50 -74 callgsubr
          201 -43 callsubr
          -86 6 rlineto
          282 vlineto
          195 -11 4 22 0 24 -4 19 rlinecurve
          -195 -11 rlineto
          260 260 vlineto
          11 -107 rlineto
          10 -1 29 -4 28 vvcurveto
          endchar
        </CharString>
        <CharString name="G">
          79 402 303 -12 callsubr
        </CharString>
        <CharString name="Gbreve">
          79 434 870 61 callgsubr
          -65 -554 -12 callsubr
        </CharString>
        <CharString name="H">
          166 629 635 rmoveto
          33 2 -6 28 1 10 rrcurveto
          -186 71 callgsubr
          -269 -342 271 vlineto
          50 -49 callgsubr
          -187 hlineto
          -46 callgsubr
          271 343 -273 vlineto
          -50 -74 callgsubr
          186 -43 callsubr
          -73 6 rlineto
          587 vlineto
          endchar
        </CharString>
        <CharString name="I">
          -234 179 632 rmoveto
          50 -49 callgsubr
          -187 hlineto
          35 callsubr
          vlineto
          endchar
        </CharString>
        <CharString name="Iacute">
          -234 297 835 -84 callsubr
          -31 -54 8 callsubr
          endchar
        </CharString>
        <CharString name="Icircumflex">
          -234 70 675 8 callsubr
          -74 189 86 callgsubr
        </CharString>
        <CharString name="Idieresis">
          -234 122 797 rmoveto
          25 -20 22 -26 -27 -21 -22 -25 -26 21 -21 27 26 20 21 26 vhcurveto
          -52 -122 8 callsubr
          -25 169 rmoveto
          -25 -21 -22 -25 -26 21 -21 25 28 148 callgsubr
          -28 hvcurveto
          endchar
        </CharString>
        <CharString name="Idotaccent">
          -234 152 797 29 callsubr
          27 -165 rmoveto
          50 -49 callgsubr
          -187 hlineto
          35 callsubr
          vlineto
          endchar
        </CharString>
        <CharString name="Igrave">
          -234 86 869 88 callsubr
          -71 -113 rmoveto
          50 -49 callgsubr
          -187 hlineto
          35 callsubr
          vlineto
          endchar
        </CharString>
        <CharString name="Imacron">
          -234 70 675 8 callsubr
          -231 146 167 callsubr
        </CharString>
        <CharString name="Iogonek">
          -234 291 39 rmoveto
          -13 -4 -13 -5 -12 -6 rrcurveto
          6 -1 6 3 vvcurveto
          -74 6 rlineto
          587 137 callgsubr
          -187 71 callgsubr
          -587 vlineto
          -50 -74 callgsubr
          173 hlineto
          -23 -20 -16 -25 -32 -29 callgsubr
          37 29 26 51 18 hvcurveto
          endchar
        </CharString>
        <CharString name="J">
          -227 72 675 rmoveto
          -45 callgsubr
          84 -6 rlineto
          -513 vlineto
          -100 -22 242 callsubr
          -21 vvcurveto
          -32 35 -23 39 87 50 81 109 vhcurveto
          504 vlineto
          45 177 callgsubr
        </CharString>
        <CharString name="K">
          57 395 675 rmoveto
          -45 callgsubr
          63 -6 -257 -313 1 315 50 -49 callgsubr
          -187 hlineto
          -46 callgsubr
          208 vlineto
          53 64 223 -317 rlineto
          83 -31 callsubr
          -61 6 -231 320 226 271 39 177 callgsubr
        </CharString>
        <CharString name="L">
          -14 450 49 -5 callsubr
        </CharString>
        <CharString name="Lacute">
          -14 337 835 -84 callsubr
          309 -680 -5 callsubr
        </CharString>
        <CharString name="Lcaron">
          67 348 550 rmoveto
          39 45 19 66 -3 68 -10 19 -48 6 -19 -14 13 -42 -3 -85 -19 -47 rrcurveto
          -7 24 -13 7 4 vhcurveto
          102 -501 -5 callsubr
        </CharString>
        <CharString name="Lslash">
          -5 459 49 rmoveto
          -272 -4 rlineto
          239 vlineto
          152 120 -29 36 -123 -98 rlineto
          292 vlineto
          50 -49 callgsubr
          -187 hlineto
          78 callgsubr
          rlineto
          -336 vlineto
          -94 -75 28 -35 66 52 rlineto
          -195 vlineto
          -50 -74 callgsubr
          457 129 hlineto
          28 -29 -4 -10 -1 vhcurveto
          endchar
        </CharString>
        <CharString name="M">
          253 706 47 rmoveto
          -46 585 70 6 rlineto
          10 1 4 29 -28 hhcurveto
          -109 hlineto
          -193 -468 -210 468 rlineto
          -106 hlineto
          -45 callgsubr
          72 -6 -49 -589 -46 -74 callgsubr
          175 -43 callsubr
          -71 6 40 514 197 -434 10 -2 19 2 10 2 rlinecurve
          190 448 38 -532 -46 -74 callgsubr
          175 111 callgsubr
        </CharString>
        <CharString name="N">
          149 478 675 -55 callgsubr
        </CharString>
        <CharString name="NULL">
          -533 endchar
        </CharString>
        <CharString name="Nacute">
          149 479 835 -84 callsubr
          195 -54 -55 callgsubr
        </CharString>
        <CharString name="Ncaron">
          149 495 853 -69 callgsubr
          113 -59 -55 callgsubr
        </CharString>
        <CharString name="Ntilde">
          149 470 149 callsubr
          -22 -176 -55 callgsubr
        </CharString>
        <CharString name="O">
          96 326 690 -63 callgsubr
          endchar
        </CharString>
        <CharString name="OE">
          341 828 hmoveto
          129 vlineto
          30 -29 -6 -10 -1 vhcurveto
          -10 -101 144 callgsubr
          -368 vlineto
          11 -34 -34 4 -29 hhcurveto
          -199 -110 -159 -223 6 hvcurveto
          -200 5 101 -125 167 hhcurveto
          38 34 5 10 31 hvcurveto
          -314 333 rmoveto
          182 70 130 159 1 vhcurveto
          42 36 -8 -17 30 hvcurveto
          -564 vlineto
          -17 -30 -36 -9 -43 hhcurveto
          -165 -1 -63 138 165 vvcurveto
          endchar
        </CharString>
        <CharString name="Oacute">
          96 326 690 -63 callgsubr
          158 191 44 callsubr
        </CharString>
        <CharString name="Ocircumflex">
          96 330 808 -33 callsubr
          117 -688 rmoveto
          -156 -1 -59 138 165 vvcurveto
          105 callgsubr
          156 1 60 -138 -172 vvcurveto
          -173 -66 -130 -151 -1 vhcurveto
          275 327 rmoveto
          284 -4 -161 48 -98 hhcurveto
          -188 -103 -159 -221 5 hvcurveto
          -200 5 95 -125 158 hhcurveto
          198 96 158 215 -3 hvcurveto
          endchar
        </CharString>
        <CharString name="Odieresis">
          96 326 690 -63 callgsubr
          -63 106 -18 callgsubr
          endchar
        </CharString>
        <CharString name="Ograve">
          96 315 644 rmoveto
          156 1 60 -138 -172 vvcurveto
          -173 -66 -130 -151 -1 vhcurveto
          -156 -1 -59 138 165 vvcurveto
          105 callgsubr
          11 46 rmoveto
          -188 -103 -159 -221 5 hvcurveto
          -200 5 95 -125 158 hhcurveto
          198 96 158 215 -3 hvcurveto
          284 -4 -161 48 -98 hhcurveto
          74 29 45 callgsubr
        </CharString>
        <CharString name="Ohungarumlaut">
          96 589 794 -84 callsubr
          17 106 -84 callsubr
          112 2 -63 callgsubr
          endchar
        </CharString>
        <CharString name="Omacron">
          96 326 690 -63 callgsubr
          -113 177 167 callsubr
        </CharString>
        <CharString name="Oslash">
          147 496 527 rmoveto
          24 -52 11 -67 -73 vvcurveto
          -173 -66 -130 -151 -1 vhcurveto
          -37 -31 7 14 -27 hvcurveto
          -44 33 rmoveto
          -54 55 -22 91 102 vvcurveto
          105 callgsubr
          65 49 -24 -40 34 hvcurveto
          112 83 rmoveto
          -49 24 -33 -57 rlineto
          48 -53 -65 12 -49 hhcurveto
          -188 -103 -159 -221 5 hvcurveto
          3 -124 38 -95 66 -55 -15 -25 rcurveline
          48 -26 13 22 rlineto
          -14 31 35 -8 39 hhcurveto
          198 96 158 215 -3 hvcurveto
          -1 106 -24 73 -33 50 rrcurveto
          endchar
        </CharString>
        <CharString name="Otilde">
          96 326 690 -63 callgsubr
          -120 113 rmoveto
          23 8 19 26 27 53 25 -50 62 hhcurveto
          62 33 45 50 10 hvcurveto
          -30 9 rlineto
          -29 -7 -22 -23 -33 -53 -23 52 -59 hhcurveto
          -42 -45 -29 -63 -15 hvcurveto
          endchar
        </CharString>
        <CharString name="P">
          7 229 637 rmoveto
          160 10 69 -55 -115 vvcurveto
          -108 -67 -50 -149 -20 -21 1 2 -23 vhcurveto
          312 vlineto
          -108 43 33 callsubr
          -589 vlineto
          102 callsubr
          235 vlineto
          -2 24 25 -1 23 hhcurveto
          148 122 50 163 101 -72 86 -174 hvcurveto
          endchar
        </CharString>
        <CharString name="Q">
          113 99 333 rmoveto
          105 callgsubr
          156 1 60 -138 -172 vvcurveto
          -173 -66 -130 -151 -1 vhcurveto
          -156 -1 -59 138 165 vvcurveto
          499 -399 rmoveto
          -11 -17 -17 -5 -16 hhcurveto
          -42 -70 31 41 -79 hvcurveto
          158 29 77 147 -3 192 rrcurveto
          284 -4 -161 48 -98 hhcurveto
          -188 -103 -159 -221 5 hvcurveto
          5 -193 88 -123 148 -8 rrcurveto
          -49 77 98 -78 91 hhcurveto
          34 25 18 34 8 -3 9 -5 6 hvcurveto
          endchar
        </CharString>
        <CharString name="R">
          30 179 634 -56 callsubr
        </CharString>
        <CharString name="Racute">
          30 405 835 -84 callsubr
          -30 -95 -56 callsubr
        </CharString>
        <CharString name="Rcaron">
          30 421 853 -69 callgsubr
          -112 -100 -56 callsubr
        </CharString>
        <CharString name="S">
          -47 251 690 rmoveto
          2 callgsubr
          39 callsubr
          endchar
        </CharString>
        <CharString name="Sacute">
          -47 251 690 rmoveto
          2 callgsubr
          39 callsubr
          142 145 44 callsubr
        </CharString>
        <CharString name="Scaron">
          -47 409 853 -69 callgsubr
          -2 -353 rmoveto
          39 callsubr
          2 callgsubr
          endchar
        </CharString>
        <CharString name="T">
          61 20 675 -11 callgsubr
        </CharString>
        <CharString name="Tcaron">
          61 460 853 -69 callgsubr
          -310 -59 -11 callgsubr
        </CharString>
        <CharString name="Thorn">
          71 229 505 rmoveto
          158 71 -44 -115 -108 -67 -50 -149 -15 -27 1 1 -22 hvcurveto
          315 vlineto
          41 vmoveto
          88 137 callgsubr
          -187 71 callgsubr
          -589 vlineto
          102 callsubr
          103 vlineto
          -1 24 31 -1 17 hhcurveto
          153 122 50 163 101 -72 86 -179 hvcurveto
          endchar
        </CharString>
        <CharString name="U">
          107 442 675 54 callgsubr
        </CharString>
        <CharString name="Uacute">
          107 442 675 -81 callsubr
          -150 160 44 callsubr
        </CharString>
        <CharString name="Ucircumflex">
          107 322 808 -33 callsubr
          253 -44 54 callgsubr
        </CharString>
        <CharString name="Udieresis">
          107 442 675 -81 callsubr
          -371 75 -18 callgsubr
          endchar
        </CharString>
        <CharString name="Ugrave">
          107 442 675 -81 callsubr
          -223 44 45 callgsubr
        </CharString>
        <CharString name="Uhungarumlaut">
          107 581 794 -84 callsubr
          17 106 -84 callsubr
          236 -13 54 callgsubr
        </CharString>
        <CharString name="Umacron">
          107 442 675 -81 callsubr
          -421 146 167 callsubr
        </CharString>
        <CharString name="Uogonek">
          107 442 675 33 callsubr
          -394 vlineto
          -142 -68 -64 -110 -92 -66 56 151 vhcurveto
          1 395 50 -49 callgsubr
          -186 71 callgsubr
          -402 vlineto
          -132 45 -109 159 -2 vhcurveto
          -26 -20 -17 -27 -33 -29 callgsubr
          37 29 26 51 18 hvcurveto
          0 vlineto
          104 33 41 94 120 vvcurveto
          68 callgsubr
          endchar
        </CharString>
        <CharString name="Uring">
          107 442 675 -81 callsubr
          -289 229 57 callgsubr
        </CharString>
        <CharString name="V">
          72 454 675 rmoveto
          -45 callgsubr
          70 -6 rlineto
          0 vlineto
          -196 -547 -181 549 rlineto
          1 hlineto
          50 -49 callgsubr
          -174 hlineto
          -45 callgsubr
          54 -6 217 -630 rlineto
          42 hlineto
          234 632 19 3 33 5 -6 25 248 callgsubr
        </CharString>
        <CharString name="W">
          405 780 675 rmoveto
          78 callgsubr
          -170 -539 -156 525 rlineto
          -52 hlineto
          -177 -522 -151 538 47 -49 callgsubr
          -171 hlineto
          -45 callgsubr
          53 -6 189 -630 rlineto
          43 hlineto
          180 511 161 -511 rlineto
          47 hlineto
          208 633 18 2 33 3 -6 27 248 callgsubr
        </CharString>
        <CharString name="X">
          73 541 45 rmoveto
          0 vlineto
          -204 300 183 290 rlineto
          7 hlineto
          19 2 33 3 -6 27 1 10 rlinecurve
          -149 hlineto
          -45 callgsubr
          57 -5 -148 -249 -170 250 34 3 33 3 -6 27 1 10 rlinecurve
          -164 hlineto
          -45 callgsubr
          54 -6 201 -297 -200 -293 -33 -2 -33 -2 6 -28 -1 -10 rlinecurve
          158 -43 callsubr
          -57 6 rlineto
          -1 hlineto
          165 251 171 -253 rlineto
          0 vlineto
          -30 -3 -33 -3 6 -27 -1 -10 rlinecurve
          161 111 callgsubr
        </CharString>
        <CharString name="Y">
          47 427 677 -13 callsubr
        </CharString>
        <CharString name="Yacute">
          47 442 835 -84 callsubr
          181 -52 -13 callsubr
        </CharString>
        <CharString name="Ydieresis">
          47 377 750 rmoveto
          -11 callsubr
          -156 hmoveto
          26 148 callgsubr
          -26 -27 -21 -22 -25 -26 21 -21 27 hvcurveto
          206 -73 -13 callsubr
        </CharString>
        <CharString name="Z">
          -15 437 54 -10 callsubr
        </CharString>
        <CharString name="Zacute">
          -15 429 835 -84 callsubr
          204 -675 -10 callsubr
        </CharString>
        <CharString name="Zcaron">
          -15 445 853 -69 callgsubr
          122 -680 -10 callsubr
        </CharString>
        <CharString name="Zdotaccent">
          -15 284 797 29 callsubr
          153 -743 -10 callsubr
        </CharString>
        <CharString name="a">
          -36 355 96 -90 callsubr
        </CharString>
        <CharString name="aacute">
          -36 372 635 -84 callsubr
          179 -433 -90 callsubr
        </CharString>
        <CharString name="abreve">
          -36 348 665 61 callgsubr
          -26 -556 -90 callsubr
        </CharString>
        <CharString name="acircumflex">
          -36 229 618 -33 callsubr
          259 -433 -90 callsubr
        </CharString>
        <CharString name="acute">
          67 408 635 44 callsubr
        </CharString>
        <CharString name="adieresis">
          -36 307 560 rmoveto
          -11 callsubr
          -156 hmoveto
          26 148 callgsubr
          -26 -27 -21 -22 -25 -26 21 -21 27 hvcurveto
          204 -464 -90 callsubr
        </CharString>
        <CharString name="ae">
          234 579 500 rmoveto
          -69 -67 -36 -67 -43 hvcurveto
          97 -27 -123 6 -19 hhcurveto
          -90 1 -62 -44 -56 vvcurveto
          -37 26 -9 20 2 vhcurveto
          29 3 14 70 92 hhcurveto
          86 35 -61 -64 hvcurveto
          -89 vlineto
          9 -30 -40 7 -45 hhcurveto
          -151 -39 -76 -67 -80 56 -50 94 95 65 51 37 30 hvcurveto
          -60 35 59 -28 69 248 callsubr
          -37 -46 -44 -16 -49 hhcurveto
          -119 -40 96 99 16 1 11 233 callgsubr
          -344 -285 rmoveto
          54 42 -15 -15 24 hvcurveto
          -91 vlineto
          -34 -35 -46 -27 -59 hhcurveto
          -60 -41 32 63 49 35 38 86 hvcurveto
          332 243 rmoveto
          73 36 -69 -82 -2 hvcurveto
          -249 hlineto
          90 19 54 61 69 hhcurveto
          endchar
        </CharString>
        <CharString name="agrave">
          -36 161 679 88 callsubr
          30 -459 -90 callsubr
        </CharString>
        <CharString name="amacron">
          -36 356 631 251 callsubr
          -1 -482 -90 callsubr
        </CharString>
        <CharString name="ampersand">
          188 256 26 rmoveto
          -115 -41 72 69 59 37 57 67 37 hvcurveto
          15 -18 16 -19 19 -20 55 -59 60 -60 59 -49 rrcurveto
          -47 -51 -62 -22 -59 hhcurveto
          -24 351 rmoveto
          -4 -2 rlineto
          -48 63 -26 54 39 vvcurveto
          52 29 47 77 29 57 -22 -66 -62 -30 -72 -83 -32 vhcurveto
          380 -80 rmoveto
          34 2 -7 24 1 10 rrcurveto
          -142 hlineto
          -28 4 -25 -10 1 hvcurveto
          57 -6 -14 -65 -25 -52 -31 -41 rlinecurve
          -58 50 -63 62 -55 60 -12 13 -12 13 -10 13 rrcurveto
          70 27 76 72 98 vvcurveto
          90 -82 44 -57 -96 -60 -56 -93 -46 20 -55 54 -72 vhcurveto
          -102 -54 -36 -80 -64 vvcurveto
          -97 67 -76 140 79 76 28 57 61 vhcurveto
          -50 67 63 -34 49 hhcurveto
          43 21 25 23 11 -5 11 -9 8 hvcurveto
          -18 -13 -22 -10 -20 hhcurveto
          -33 -50 29 44 -56 hvcurveto
          37 48 29 62 16 78 rrcurveto
          endchar
        </CharString>
        <CharString name="aogonek">
          -36 355 96 rmoveto
          -37 -35 -53 -26 -53 hhcurveto
          -62 -38 35 60 47 33 40 87 56 41 -15 -15 24 hvcurveto
          55 -150 rmoveto
          299 vlineto
          153 -130 13 -49 -91 -61 -43 -54 -38 23 -10 23 2 vhcurveto
          34 4 14 65 94 hhcurveto
          81 37 -60 -65 hvcurveto
          -89 vlineto
          9 -30 -40 7 -45 hhcurveto
          -153 -37 -79 -61 -84 56 -49 93 70 57 34 32 30 hvcurveto
          3 -23 7 -19 14 -12 rrcurveto
          -36 -21 -27 -32 -41 -29 callgsubr
          30 19 23 35 17 hvcurveto
          23 1 29 8 34 vvcurveto
          endchar
        </CharString>
        <CharString name="apostrophemod">
          -365 84 679 157 callgsubr
          endchar
        </CharString>
        <CharString name="approxequal">
          1 91 163 58 callsubr
          29 109 58 callsubr
          endchar
        </CharString>
        <CharString name="aring">
          -36 231 674 139 callsubr
          126 -446 -90 callsubr
        </CharString>
        <CharString name="asciicircum">
          -55 428 204 rmoveto
          -165 449 rlineto
          -38 hlineto
          -175 -449 rlineto
          56 hlineto
          138 360 130 -360 rlineto
          endchar
        </CharString>
        <CharString name="asciitilde">
          1 129 244 58 callsubr
          endchar
        </CharString>
        <CharString name="asterisk">
          67 270 547 rmoveto
          23 151 -25 7 -27 0 -27 -7 rlinecurve
          24 -152 -137 71 -14 -19 -9 -26 -3 -30 rlinecurve
          151 -27 -108 -111 16 -22 22 -17 26 -8 rlinecurve
          72 138 71 -137 27 9 22 16 15 21 rlinecurve
          -109 112 152 27 rlineto
          27 -9 26 -16 22 vhcurveto
          endchar
        </CharString>
        <CharString name="at">
          417 564 147 rmoveto
          -33 -45 -35 -24 -50 hhcurveto
          -98 -21 88 82 12 hvcurveto
          84 12 49 92 101 hhcurveto
          55 40 -27 -16 14 hvcurveto
          130 -456 rmoveto
          -39 -61 -81 -21 -86 hhcurveto
          -240 -160 152 227 233 159 155 239 212 142 -114 -171 -165 -99 -106 -149 5 hvcurveto
          53 387 -48 -7 -2 -16 rlineto
          15 -29 -29 9 -41 hhcurveto
          -127 -90 -91 -144 -17 hvcurveto
          -137 -16 64 -68 88 hhcurveto
          61 52 34 32 35 hvcurveto
          -1 -7 rlineto
          -44 -4 22 -3 25 hhcurveto
          180 120 124 186 193 -160 128 -240 -270 -180 -174 -262 -247 177 -164 266 100 80 24 36 67 hvcurveto
          endchar
        </CharString>
        <CharString name="atilde">
          -36 366 654 rmoveto
          -9 -28 -23 -21 -33 2 -53 4 -19 53 -59 4 -42 3 -47 -26 -19 -61 29 -13 rcurveline
          9 22 21 25 27 -2 53 -4 21 -52 62 -4 62 -4 36 42 14 49 rrcurveto
          -41 -547 -90 callsubr
        </CharString>
        <CharString name="b">
          10 147 381 rmoveto
          39 48 36 28 59 hhcurveto
          112 41 -99 -105 -111 -45 -101 -112 -70 -51 35 17 -18 hvcurveto
          610 vmoveto
          89 callgsubr
          -596 vlineto
          48 -19 rlineto
          -19 39 37 -13 52 hhcurveto
          150 89 107 169 -4 hvcurveto
          161 -4 -87 78 -101 hhcurveto
          -73 -55 -40 -37 -36 hvcurveto
          endchar
        </CharString>
        <CharString name="backslash">
          -124 388 -142 rmoveto
          -310 838 rlineto
          -59 hlineto
          310 -838 rlineto
          endchar
        </CharString>
        <CharString name="bar">
          -279 100 -196 rmoveto
          54 897 -54 hlineto
          endchar
        </CharString>
        <CharString name="braceleft">
          -227 221 701 rmoveto
          -66 -54 -50 -82 hvcurveto
          -77 16 -47 -76 vvcurveto
          -44 -7 -13 -16 -19 vhcurveto
          -7 -9 -3 -6 -34 -13 rrcurveto
          -24 vlineto
          31 -13 3 -2 10 -13 rrcurveto
          16 -19 7 -11 -43 -81 -16 -48 -75 vvcurveto
          -82 54 -50 66 30 30 4 9 15 vhcurveto
          -7 29 rlineto
          -1 -11 -10 -1 -9 hhcurveto
          -66 -36 24 73 hvcurveto
          50 17 73 61 vvcurveto
          84 -24 32 -27 9 vhcurveto
          6 vlineto
          27 9 24 32 84 61 -17 72 50 vvcurveto
          73 36 24 66 9 10 -1 -1 11 vhcurveto
          7 29 rlineto
          9 -15 -30 4 -30 hhcurveto
          endchar
        </CharString>
        <CharString name="braceright">
          -227 -3 659 rmoveto
          1 11 10 1 9 hhcurveto
          66 36 -24 -73 hvcurveto
          -50 -17 -72 -61 vvcurveto
          -84 24 -32 27 -9 vhcurveto
          -6 vlineto
          -27 -9 -24 -32 -84 -61 17 -73 -50 vvcurveto
          -73 -36 -24 -66 -9 -10 1 1 -11 vhcurveto
          -7 -29 rlineto
          -9 15 30 -4 30 hhcurveto
          66 54 50 82 hvcurveto
          75 -16 48 81 vvcurveto
          43 7 11 16 19 vhcurveto
          10 13 3 2 31 13 rrcurveto
          24 vlineto
          -34 13 -3 6 -7 9 rrcurveto
          -16 19 -7 13 44 76 16 47 77 vvcurveto
          82 -54 50 -66 -30 -30 -4 -9 -15 vhcurveto
          endchar
        </CharString>
        <CharString name="bracketleft">
          -325 114 645 rmoveto
          84 40 -138 -865 138 40 -84 hlineto
          endchar
        </CharString>
        <CharString name="bracketright">
          -335 94 -140 rmoveto
          -84 -40 138 865 -138 -40 84 hlineto
          endchar
        </CharString>
        <CharString name="breve">
          67 287 588 rmoveto
          -74 -35 50 29 -11 hvcurveto
          -33 -15 rlineto
          -54 8 47 -69 97 hhcurveto
          96 48 69 54 8 hvcurveto
          -33 13 rlineto
          -29 -11 -25 -48 -82 hhcurveto
          endchar
        </CharString>
        <CharString name="brokenbar">
          -279 154 170 rmoveto
          -54 -366 54 hlineto
          -54 531 rmoveto
          54 366 -54 hlineto
          endchar
        </CharString>
        <CharString name="bullet">
          -99 217 230 rmoveto
          42 35 34 43 42 -35 35 -42 -43 -34 -35 -42 -43 34 -34 43 hvcurveto
          endchar
        </CharString>
        <CharString name="c">
          -86 272 500 rmoveto
          114 callsubr
          46 callgsubr
          hvcurveto
          endchar
        </CharString>
        <CharString name="cacute">
          -86 402 635 -84 callsubr
          66 -29 rmoveto
          114 callsubr
          46 callgsubr
          hvcurveto
          endchar
        </CharString>
        <CharString name="caron">
          67 269 600 rmoveto
          -133 89 -12 -6 -8 -10 -6 220 callsubr
          -119 19 -5 24 1 15 4 rlinecurve
          130 119 -6 10 -8 10 -12 6 rlinecurve
          endchar
        </CharString>
        <CharString name="ccaron">
          -86 418 663 -69 callgsubr
          110 -457 rmoveto
          46 callgsubr
          114 callsubr
          endchar
        </CharString>
        <CharString name="ccedilla">
          -86 189 -77 rmoveto
          6 callsubr
          6 26 rlineto
          81 3 86 41 39 vvcurveto
          8 -3 6 -7 5 vhcurveto
          46 callgsubr
          -154 -80 -126 -155 2 hvcurveto
          2 -122 55 -97 109 -13 rrcurveto
          endchar
        </CharString>
        <CharString name="cedilla">
          67 312 18 rmoveto
          -35 hlineto
          -25 -95 rlineto
          6 callsubr
          endchar
        </CharString>
        <CharString name="cent">
          -65 293 592 rmoveto
          -19 6 -24 -1 -17 -5 7 -95 rcurveline
          -127 -21 -66 -117 3 -140 2 -132 63 -101 124 -2 -6 -86 rcurveline
          17 -6 24 0 19 6 -5 90 rcurveline
          68 11 62 35 33 vvcurveto
          8 -3 6 -7 5 vhcurveto
          -37 -47 -45 -16 -48 hhcurveto
          -125 -33 108 96 118 49 103 107 73 27 -49 -46 1 hvcurveto
          27 21 10 36 52 -47 37 -80 2 hvcurveto
          endchar
        </CharString>
        <CharString name="circumflex">
          67 298 674 86 callgsubr
        </CharString>
        <CharString name="colon">
          -361 86 -15 211 callsubr
          306 vmoveto
          -2 callsubr
          endchar
        </CharString>
        <CharString name="comma">
          -361 86 77 -83 callgsubr
          endchar
        </CharString>
        <CharString name="copyright">
          105 320 580 rmoveto
          -161 -109 -107 -162 -161 108 -108 161 163 106 108 160 163 -108 107 -160 hvcurveto
          -43 vmoveto
          125 93 -88 -139 -135 -89 -90 -129 -131 -89 90 135 131 85 96 135 hvcurveto
          95 -128 rmoveto
          31 -27 22 -49 -90 -47 -73 -89 1 vhcurveto
          -77 1 41 -59 83 hhcurveto
          48 41 26 22 8 -2 3 -4 3 hvcurveto
          -21 -27 -26 -1 -21 hhcurveto
          -72 -15 54 52 63 27 54 52 37 17 -21 -24 hvcurveto
          15 17 9 18 hvcurveto
          endchar
        </CharString>
        <CharString name="currency">
          45 486 278 rmoveto
          51 -15 43 -27 33 vhcurveto
          84 74 -14 19 -9 9 -17 10 rlinecurve
          -75 -83 rlineto
          23 -32 -40 13 -47 hhcurveto
          -50 -43 -15 -25 -32 hvcurveto
          -79 87 -17 -10 -9 -9 -14 -19 rlinecurve
          90 -80 rlineto
          -24 -32 -13 -41 -48 vvcurveto
          -46 12 -40 22 -31 vhcurveto
          -87 -78 14 -19 9 -9 17 -10 rlinecurve
          76 84 rlineto
          -27 33 43 -15 51 hhcurveto
          49 42 13 25 32 hvcurveto
          72 -80 17 10 9 9 14 19 rlinecurve
          -81 72 rlineto
          25 32 14 42 49 vvcurveto
          -190 -143 rmoveto
          -83 -56 58 85 85 56 59 83 82 54 -59 -85 -85 -54 -58 -82 hvcurveto
          endchar
        </CharString>
        <CharString name="d">
          2 115 callsubr
          55 -365 rmoveto
          658 vlineto
          89 callgsubr
          -160 63 callsubr
          endchar
        </CharString>
        <CharString name="dagger">
          -33 281 511 rmoveto
          183 callgsubr
          7 -616 14 -4 21 0 14 4 rlinecurve
          6 616 156 238 callsubr
          endchar
        </CharString>
        <CharString name="daggerdbl">
          -33 279 316 rmoveto
          2 152 156 238 callsubr
          -146 -9 183 callgsubr
          2 -152 -158 9 -7 -15 7 -32 10 -15 rlinecurve
          148 10 4 -421 14 -4 22 0 14 4 rlinecurve
          4 421 158 238 callsubr
          endchar
        </CharString>
        <CharString name="danda">
          -138 225 -19 rmoveto
          169 callgsubr
          endchar
        </CharString>
        <CharString name="dcaron">
          45 115 callsubr
          55 293 rmoveto
          89 callgsubr
          -160 63 callsubr
          -63 8 rlineto
          116 677 rmoveto
          158 callgsubr
          39 45 15 66 -3 68 rrcurveto
          endchar
        </CharString>
        <CharString name="dcroat">
          16 115 callsubr
          132 133 rmoveto
          46 -77 114 vlineto
          89 callgsubr
          -52 -76 -46 76 -62 63 callsubr
          -63 8 rlineto
          498 vlineto
          endchar
        </CharString>
        <CharString name="degree">
          -226 50 579 rmoveto
          -59 43 -41 61 59 44 41 59 60 -43 39 -60 -59 -45 -39 -60 vhcurveto
          45 1 rmoveto
          35 23 25 36 35 23 -25 -36 -35 -22 -26 -36 -35 -24 26 36 vhcurveto
          endchar
        </CharString>
        <CharString name="dieresis">
          67 177 142 callsubr
          endchar
        </CharString>
        <CharString name="divide">
          -63 50 316 246 callsubr
          -189 -214 211 callsubr
          284 vmoveto
          -2 callsubr
          endchar
        </CharString>
        <CharString name="dollar">
          -75 252 677 rmoveto
          -18 6 -24 -1 -16 -5 6 -84 rcurveline
          -82 -13 -65 -55 -79 vvcurveto
          -81 86 -47 97 -37 vhcurveto
          80 -32 51 -22 -75 vvcurveto
          -87 -70 -39 -74 -72 -54 36 65 -18 vhcurveto
          -24 -15 -21 -23 -57 84 -37 76 -5 hvcurveto
          -6 -83 16 -5 24 -1 18 6 rlinecurve
          -5 84 rlineto
          106 14 65 84 87 vvcurveto
          91 -70 34 -90 34 vhcurveto
          -66 25 -84 35 73 vvcurveto
          58 54 30 70 80 30 -38 -56 vhcurveto
          21 28 10 39 68 -86 21 -58 2 hvcurveto
          endchar
        </CharString>
        <CharString name="dotaccent">
          67 159 607 206 callsubr
        </CharString>
        <CharString name="dotlessi">
          134 callgsubr
          endchar
        </CharString>
        <CharString name="dottedcircle">
          127 139 517 rmoveto
          -26 18 -19 26 26 18 19 26 25 -18 19 -26 -26 -18 -19 -25 vhcurveto
          -82 -110 rmoveto
          -25 20 -19 26 24 20 19 25 25 -20 19 -24 -26 -20 -19 -25 vhcurveto
          -13 -126 rmoveto
          -25 19 -18 25 26 18 18 255 callgsubr
          52 -116 rmoveto
          -26 18 -18 26 25 19 18 26 25 -19 19 -25 -26 -18 -19 -25 vhcurveto
          101 -75 rmoveto
          -26 19 -20 26 25 19 20 26 24 -19 20 -25 -26 -19 -20 -24 vhcurveto
          127 -16 rmoveto
          -26 18 -18 26 26 19 18 26 26 -19 18 -26 -26 -18 -18 -26 vhcurveto
          121 53 rmoveto
          -26 19 -18 25 25 20 18 26 25 -20 19 -25 -25 -19 -19 -25 vhcurveto
          73 98 rmoveto
          -25 19 -19 26 24 19 19 25 26 -19 19 -24 -26 -19 -19 -26 vhcurveto
          10 134 rmoveto
          -26 18 -18 26 25 19 18 26 26 -19 18 -25 -26 -18 -18 -26 vhcurveto
          -50 118 rmoveto
          -25 19 -19 25 26 18 19 255 callgsubr
          -95 68 rmoveto
          -24 19 -20 26 25 18 20 24 26 -18 19 -25 -26 -19 -19 -26 vhcurveto
          -126 15 rmoveto
          -26 18 -18 26 26 18 18 26 26 -18 18 -26 -26 -18 -18 -26 vhcurveto
          endchar
        </CharString>
        <CharString name="doubledanda">
          66 225 -19 rmoveto
          169 callgsubr
          204 hmoveto
          169 callgsubr
          endchar
        </CharString>
        <CharString name="dvA">
          173 731 -80 callsubr
          -304 -70 callgsubr
          vlineto
          endchar
        </CharString>
        <CharString name="dvAA">
          447 1005 -80 callsubr
          -578 -70 callgsubr
          221 -542 -105 callgsubr
        </CharString>
        <CharString name="dvAI">
          25 159 550 74 callsubr
          -108 hlineto
          62 -28 -109 218 -150 hhcurveto
          -46 -53 -12 -11 -25 hvcurveto
          3 -22 8 -22 8 -15 rrcurveto
          14 36 63 14 41 hhcurveto
          78 99 -160 -66 32 hvcurveto
          -405 23 callgsubr
        </CharString>
        <CharString name="dvAU">
          408 965 -80 callsubr
          -136 hlineto
          113 -29 -94 186 -123 hhcurveto
          -24 callsubr
          65 70 -67 -46 32 hvcurveto
          -353 -70 callgsubr
          181 -542 -105 callgsubr
        </CharString>
        <CharString name="dvAbbreviationsign">
          -149 162 501 rmoveto
          -69 -38 -56 -69 -95 70 -56 65 59 49 43 76 87 -58 70 -78 hvcurveto
          13 -45 rmoveto
          47 33 -36 -60 -58 -31 -36 -47 -60 -15 55 44 54 26 37 47 hvcurveto
          endchar
        </CharString>
        <CharString name="dvAnusvara">
          -533 -150 708 rmoveto
          -30 callgsubr
          endchar
        </CharString>
        <CharString name="dvAnusvara.amI">
          -533 -30 908 rmoveto
          -70 -69 71 -69 69 68 rlineto
          endchar
        </CharString>
        <CharString name="dvAvagraha">
          1 144 520 rmoveto
          37 33 9 70 vhcurveto
          172 hlineto
          18 -4 17 -10 16 vhcurveto
          -169 hlineto
          -106 -35 -41 -49 -55 54 -59 88 -76 hvcurveto
          68 -59 92 -68 -78 vvcurveto
          -53 -43 -19 -63 vhcurveto
          -142 1 -64 97 -37 53 -15 -5 -17 -11 -9 -11 rrcurveto
          -133 82 107 -56 106 hhcurveto
          85 75 38 80 102 -123 98 -62 51 hvcurveto
          -77 63 -56 56 37 vvcurveto
          endchar
        </CharString>
        <CharString name="dvB">
          -192 150 callsubr
          373 -91 callgsubr
          -25 -422 70 callsubr
          250 -109 rmoveto
          -9 -15 -11 -15 -13 -13 -182 180 rcurveline
          11 21 25 -50 callgsubr
          -88 -50 -106 -95 68 -95 118 68 61 35 52 39 hvcurveto
          endchar
        </CharString>
        <CharString name="dvBA">
          10 162 386 -39 callsubr
          441 193 -102 callsubr
          -578 -107 callgsubr
          380 -155 hlineto
          160 callsubr
        </CharString>
        <CharString name="dvBH">
          -99 151 615 rmoveto
          -63 -41 -32 -56 -58 44 -51 78 -39 hvcurveto
          7 6 6 12 3 10 rrcurveto
          -45 24 -39 35 51 vvcurveto
          33 17 25 38 63 9 -66 -93 vhcurveto
          -115 195 callgsubr
          -49 60 -42 24 -27 callgsubr
          64 88 -2 -6 72 hvcurveto
          -2 51 rlineto
          4 -48 -140 2 -34 hhcurveto
          170 vlineto
          82 -42 63 -88 vhcurveto
          294 -15 rmoveto
          -73 -107 callgsubr
          73 -91 callgsubr
          endchar
        </CharString>
        <CharString name="dvBHA">
          136 694 110 callsubr
          -255 hlineto
          3 -53 -130 2 -32 8 callgsubr
          -46 55 -45 29 48 callsubr
        </CharString>
        <CharString name="dvBH_LA">
          558 1116 -80 callsubr
          -709 -107 callgsubr
          511 126 callgsubr
          hvcurveto
          3 -56 -80 1 -27 5 callsubr
          54 56 -1 -4 59 hvcurveto
          25 -98 92 -85 76 -58 -94 callgsubr
        </CharString>
        <CharString name="dvBH_NA">
          136 694 110 callsubr
          -255 hlineto
          3 -53 -130 2 -32 5 callsubr
          58 78 -2 -4 67 hvcurveto
          -135 -65 -48 -23 -28 -12 -26 -16 rlinecurve
          -20 -12 -17 -19 12 -25 -50 callsubr
          182 105 rcurveline
          -200 -105 callgsubr
        </CharString>
        <CharString name="dvBH_R">
          -77 470 600 rmoveto
          -93 -107 callgsubr
          93 -91 callgsubr
          -314 15 rmoveto
          -63 -41 -32 -56 -58 44 -51 78 -39 hvcurveto
          7 6 6 12 3 10 rrcurveto
          -45 24 -39 35 51 vvcurveto
          33 17 25 38 63 9 -66 -93 vhcurveto
          -105 107 callgsubr
          57 89 -2 -4 70 hvcurveto
          -296 -224 37 callsubr
          287 236 rlineto
          82 vlineto
          4 -49 -159 3 -34 hhcurveto
          160 vlineto
          82 -42 63 -88 vhcurveto
          endchar
        </CharString>
        <CharString name="dvBH_RA">
          141 699 110 callsubr
          -245 151 callgsubr
          160 vlineto
          82 -42 63 -88 -63 -41 -32 -56 -69 callsubr
          -105 vlineto
          -44 -29 -6 -36 -39 54 -45 15 -5 hvcurveto
          31 callsubr
        </CharString>
        <CharString name="dvBH_R_YA">
          387 747 235 151 callsubr
          -593 -107 callgsubr
          146 188 callsubr
          -80 -23 vhcurveto
          -22 2 -26 1 -25 1 rrcurveto
          1 -33 -30 0 -17 hhcurveto
          125 vlineto
          82 -42 63 -88 -63 -41 -32 -56 -69 callsubr
          -70 vlineto
          -36 -26 -4 -22 -8 hvcurveto
          -2 -4 -1 -6 -6 vvcurveto
          240 callgsubr
          vhcurveto
          -35 callsubr
          32 26 0 -2 26 hvcurveto
          17 -1 17 -1 19 -1 6 -19 8 -19 10 -17 -254 -152 rcurveline
          5 -17 17 -21 13 -8 245 163 rcurveline
          -43 39 55 -27 73 -99 callgsubr
        </CharString>
        <CharString name="dvBH_VA">
          409 769 -12 callgsubr
          hvcurveto
          3 -56 -78 1 -26 5 callsubr
          53 55 -1 -4 59 hvcurveto
          -75 20 64 -63 97 hhcurveto
          60 43 24 29 37 hvcurveto
          -153 -105 callgsubr
        </CharString>
        <CharString name="dvBH_YA">
          402 762 235 151 callsubr
          -593 -107 callgsubr
          146 193 callsubr
          3 -51 -79 2 -30 hhcurveto
          125 vlineto
          82 -42 63 -88 -63 -41 -32 -56 -69 callsubr
          -70 107 callgsubr
          52 41 -1 -4 52 hvcurveto
          -93 30 71 -67 116 -99 callgsubr
        </CharString>
        <CharString name="dvB_BA">
          333 485 386 -39 callsubr
          -142 -177 240 callsubr
          -12 -37 hhcurveto
          -52 1 callgsubr
          764 192 -102 callsubr
          -902 -107 callgsubr
          704 -155 hlineto
          182 callsubr
          -87 -89 -50 -106 -17 2 -18 5 -17 hvcurveto
          -8 -13 -10 -13 -12 -11 -181 179 -16 callgsubr
          67 60 34 50 39 hvcurveto
          -49 31 54 -36 72 hhcurveto
          61 42 25 29 37 hvcurveto
          -153 -105 callgsubr
        </CharString>
        <CharString name="dvB_BHA">
          311 317 186 240 callsubr
          -12 -37 hhcurveto
          -52 1 callgsubr
          733 186 57 callsubr
          -287 -107 callgsubr
          236 hlineto
          -1 -4 0 -3 -4 vvcurveto
          -38 31 -27 26 -13 vhcurveto
          6 5 7 6 4 9 rrcurveto
          -14 12 -9 17 23 vvcurveto
          22 22 20 34 62 9 -67 -60 vhcurveto
          -147 195 callgsubr
          -11 3 -10 5 -10 hvcurveto
          -167 165 rlineto
          -26 callsubr
          57 52 25 39 39 hvcurveto
          -7 10 10 -3 7 167 callgsubr
        </CharString>
        <CharString name="dvB_BH_RA">
          309 287 186 240 callsubr
          -12 -37 hhcurveto
          -52 1 callgsubr
          761 186 140 callgsubr
          -287 -107 callgsubr
          236 hlineto
          -1 -4 0 -3 -4 vvcurveto
          -38 31 -27 26 -13 vhcurveto
          6 5 7 6 4 9 rrcurveto
          -14 12 -9 17 23 vvcurveto
          22 22 20 34 62 9 -67 -60 vhcurveto
          -137 195 callgsubr
          -12 5 -12 7 -11 hvcurveto
          -6 -7 -6 -7 -6 -6 -181 179 -16 callgsubr
          66 59 33 49 39 hvcurveto
          10 -9 9 -5 5 -2 rrcurveto
          31 callsubr
        </CharString>
        <CharString name="dvB_DA">
          290 310 178 70 callsubr
          594 192 rmoveto
          126 -91 callgsubr
          -858 -107 callgsubr
          679 101 callsubr
          -8 0 -8 1 -8 hvcurveto
          -8 -13 -10 -13 -11 -11 -182 180 rcurveline
          11 21 25 -50 callgsubr
          -88 -50 -106 -95 68 -95 118 63 58 30 47 39 hvcurveto
          -83 34 85 -55 91 hhcurveto
          -48 callgsubr
        </CharString>
        <CharString name="dvB_DHA">
          358 313 167 rmoveto
          -15 -27 -32 -10 -36 hhcurveto
          -61 1 callgsubr
          788 200 -102 callsubr
          -299 -107 callgsubr
          102 -314 hlineto
          -46 -35 -59 -34 -54 17 callgsubr
          -23 -6 -10 -20 vhcurveto
          1 -421 vlineto
          -107 callsubr
          353 hlineto
          244 callgsubr
          -16 -19 -11 -23 -2 -28 -9 -21 -21 -31 -33 -27 156 callgsubr
          70 75 33 67 52 hvcurveto
          -56 25 61 -30 65 hhcurveto
          57 43 17 27 40 hvcurveto
          -150 -105 callgsubr
        </CharString>
        <CharString name="dvB_DH_VA">
          665 1019 13 callsubr
          -705 -176 rmoveto
          -15 -27 -32 -10 -36 hhcurveto
          -61 1 callgsubr
          1089 200 123 callsubr
          -156 hlineto
          218 callgsubr
          -26 5 -25 10 -24 hvcurveto
          -40 -35 -53 -25 -49 -70 callsubr
          -428 -107 callgsubr
          359 hlineto
          244 callgsubr
          -17 -20 -11 -25 -1 -30 -10 -20 -21 -29 -30 -25 156 callgsubr
          69 74 32 66 53 hvcurveto
          -54 25 60 -30 65 hhcurveto
          64 50 20 37 46 hvcurveto
          -38 32 49 -25 61 hhcurveto
          60 43 24 29 37 hvcurveto
          -153 -105 callgsubr
        </CharString>
        <CharString name="dvB_JA">
          575 311 206 rmoveto
          -19 -30 -33 -9 -33 hhcurveto
          -57 1 callgsubr
          1006 227 callsubr
          -1144 -107 callgsubr
          945 -142 -259 -24 callgsubr
          215 -346 hlineto
          -104 callgsubr
          endchar
        </CharString>
        <CharString name="dvB_JHA">
          466 826 301 rmoveto
          -33 -26 -52 -20 -36 -8 rrcurveto
          26 -16 -26 19 -34 29 callgsubr
          119 151 vlineto
          -514 -345 rmoveto
          -17 -29 -34 -10 -39 hhcurveto
          -52 1 callgsubr
          897 227 callsubr
          -1044 -107 callgsubr
          641 215 callgsubr
          -89 -45 -33 -60 -27 7 -28 13 -24 hvcurveto
          -10 -18 -12 -16 -15 -14 162 callgsubr
          116 75 70 41 62 43 hvcurveto
          -17 19 23 -11 25 38 callsubr
        </CharString>
        <CharString name="dvB_J_YA">
          852 1212 -105 callsubr
          -890 -364 rmoveto
          -19 -30 -33 -9 -33 hhcurveto
          -57 1 callgsubr
          1271 184 -102 callsubr
          -1421 -107 callgsubr
          974 69 callsubr
          -35 -18 -29 -37 -22 vhcurveto
          14 -55 -66 8 -60 hhcurveto
          -88 -24 callgsubr
          134 hlineto
          -115 21 74 -88 133 -99 callgsubr
        </CharString>
        <CharString name="dvB_JxA">
          575 712 52 rmoveto
          -92 callsubr
          -401 154 rmoveto
          -19 -30 -33 -9 -33 hhcurveto
          -57 1 callgsubr
          1006 227 callsubr
          -1144 -107 callgsubr
          945 -142 -259 -24 callgsubr
          215 -346 hlineto
          -104 callgsubr
          endchar
        </CharString>
        <CharString name="dvB_LA">
          484 310 178 70 callsubr
          914 192 -102 callsubr
          -1051 -107 callgsubr
          853 126 callgsubr
          -17 2 -17 4 -16 hvcurveto
          -8 -14 -11 -14 -12 -12 -182 180 rcurveline
          11 21 25 -50 callgsubr
          -88 -50 -106 -95 68 -95 118 67 61 34 51 39 hvcurveto
          38 -75 72 -65 62 -47 -94 callgsubr
        </CharString>
        <CharString name="dvB_L_YA">
          859 1219 -105 callsubr
          -905 -372 70 callsubr
          1285 192 -102 callsubr
          -1427 -107 callgsubr
          980 156 callsubr
          -17 2 -17 5 -17 hvcurveto
          -9 -14 -10 -13 -12 -12 -182 180 rcurveline
          11 21 25 -50 callgsubr
          -88 -50 -106 -95 68 -95 118 67 60 34 51 39 hvcurveto
          38 -75 72 -65 62 -47 65 callsubr
        </CharString>
        <CharString name="dvB_NA">
          10 311 176 21 callsubr
          243 -127 rmoveto
          -7 -10 -8 -9 -8 -8 -185 183 rcurveline
          189 callsubr
          56 37 -22 -35 40 hvcurveto
          198 204 -102 callsubr
          -578 -107 callgsubr
          380 -155 hlineto
          182 callsubr
          -87 -89 -50 -106 -83 52 -83 92 -19 hvcurveto
          -26 -13 -19 -9 -18 -11 -20 -12 -17 -19 12 -25 -50 callsubr
          179 103 rcurveline
          -148 -105 callgsubr
        </CharString>
        <CharString name="dvB_R">
          -204 150 callsubr
          362 -91 callgsubr
          -13 -423 rmoveto
          -17 -28 -35 -11 -39 hhcurveto
          -52 -59 37 82 37 11 30 19 23 hvcurveto
          252 -111 rmoveto
          -9 -15 -11 -15 -13 -13 -184 182 rcurveline
          11 21 25 -50 callgsubr
          -88 -50 -106 -91 61 -90 108 -9 hvcurveto
          -141 -75 51 callgsubr
          rlinecurve
          298 189 rlineto
          endchar
        </CharString>
        <CharString name="dvB_RA">
          9 311 176 21 callsubr
          242 -129 rmoveto
          -7 -9 -7 -8 -8 -8 -185 183 rcurveline
          189 callsubr
          55 37 -21 -35 40 hvcurveto
          198 203 123 callsubr
          -154 hlineto
          31 -34 -52 26 -64 hhcurveto
          -87 -89 -50 -106 -90 62 -90 106 -9 hvcurveto
          -142 -76 51 callgsubr
          rlinecurve
          269 170 rlineto
          -144 -105 callgsubr
        </CharString>
        <CharString name="dvB_SA">
          422 782 330 rmoveto
          -22 -32 -49 -9 -48 -91 callsubr
          236 hlineto
          -474 -371 240 callsubr
          -11 -37 hhcurveto
          -52 1 callgsubr
          853 192 -102 callsubr
          -989 -107 callgsubr
          493 hlineto
          -86 callgsubr
          -39 -27 -22 -36 -10 2 -11 5 -12 hvcurveto
          -9 -18 -13 -17 -15 -15 -181 179 -16 callgsubr
          69 69 39 57 39 hvcurveto
          58 -96 114 -120 -58 callsubr
          37 38 215 callsubr
          -259 -105 callgsubr
        </CharString>
        <CharString name="dvB_SHA">
          489 308 180 240 callsubr
          -12 -37 hhcurveto
          -52 1 callgsubr
          922 192 -102 callsubr
          -1060 -107 callgsubr
          470 hlineto
          -14 -19 -8 -24 -29 callsubr
          35 27 vvcurveto
          45 32 26 38 5 vhcurveto
          28 hlineto
          51 -8 20 -50 -45 vvcurveto
          -93 -82 -79 -71 -15 vhcurveto
          26 -20 -21 25 -30 hhcurveto
          -32 -13 -27 -31 -14 hvcurveto
          -9 -16 -12 -15 -14 -14 -181 179 -16 callgsubr
          68 69 37 69 46 hvcurveto
          -8 13 23 -3 12 hhcurveto
          -63 callsubr
          87 28 96 87 106 vvcurveto
          46 77 callgsubr
        </CharString>
        <CharString name="dvB_TA">
          327 312 178 70 callsubr
          755 192 -102 callsubr
          -895 -107 callgsubr
          697 -126 -84 hlineto
          -143 -88 -38 -105 -13 1 -13 3 -13 hvcurveto
          -8 -13 -10 -12 -11 -11 -182 180 rcurveline
          11 21 25 -50 callgsubr
          -88 -50 -106 -95 68 -95 118 63 58 30 47 39 hvcurveto
          27 -75 51 -76 39 -53 -65 callgsubr
        </CharString>
        <CharString name="dvB_VA">
          338 696 13 callsubr
          -386 -165 70 callsubr
          766 192 -102 callsubr
          -905 -107 callgsubr
          707 -156 hlineto
          218 callgsubr
          -18 2 -17 5 -17 hvcurveto
          -8 -14 -10 -12 -12 -12 -182 180 rcurveline
          11 21 25 -50 callgsubr
          -88 -50 -106 -95 68 -95 118 68 60 35 51 39 hvcurveto
          -49 31 55 -36 73 hhcurveto
          60 43 24 29 37 hvcurveto
          -153 -105 callgsubr
        </CharString>
        <CharString name="dvB_YA">
          350 710 -105 callsubr
          -399 -373 rmoveto
          -17 -26 -33 -10 -37 hhcurveto
          -58 1 callgsubr
          781 192 -102 callsubr
          -919 -107 callgsubr
          472 231 callsubr
          -27 8 -25 10 -23 -10 -19 -14 -19 -16 -16 162 callgsubr
          118 66 73 36 67 46 hvcurveto
          -49 39 58 -31 79 -99 callgsubr
        </CharString>
        <CharString name="dvC">
          -165 364 435 rmoveto
          79 callgsubr
          -71 59 -83 117 60 54 21 38 42 vhcurveto
          -5 91 rlineto
          -67 -36 -71 -39 -59 -13 callgsubr
          15 165 rmoveto
          -404 -107 callgsubr
          404 -91 callgsubr
          endchar
        </CharString>
        <CharString name="dvCA">
          74 632 -80 callsubr
          -642 -107 callgsubr
          444 -290 hlineto
          -58 -38 -65 -33 -54 -13 callgsubr
          79 callgsubr
          -71 59 -83 117 54 48 17 30 40 vhcurveto
          -164 -105 callgsubr
        </CharString>
        <CharString name="dvCH">
          94 637 600 rmoveto
          -662 -107 callgsubr
          662 -91 callgsubr
          -475 -116 rmoveto
          247 callsubr
          -53 40 -63 72 -21 hvcurveto
          -35 -28 -11 -39 -26 190 callgsubr
          171 119 130 187 89 -36 89 -100 -67 -45 -48 -67 -81 67 -46 51 -23 vhcurveto
          9 6 5 7 1 9 rrcurveto
          -45 27 -31 36 53 vvcurveto
          52 31 23 37 50 34 -42 -78 -137 -100 -142 -167 -86 -37 40 56 71 82 34 54 7 vhcurveto
          -10 22 -7 9 -14 16 rrcurveto
          -7 -34 -7 -20 -41 hvcurveto
          -41 10 -49 39 51 vvcurveto
          37 25 32 52 43 20 -19 -20 17 vhcurveto
          5 1 7 5 3 3 rrcurveto
          31 -8 -29 52 -73 hhcurveto
          endchar
        </CharString>
        <CharString name="dvCHA">
          94 507 550 rmoveto
          145 -91 callgsubr
          -662 -40 callgsubr
          136 callgsubr
          vhcurveto
          endchar
        </CharString>
        <CharString name="dvCH_RA">
          94 507 550 rmoveto
          145 -91 callgsubr
          -662 -40 callgsubr
          vhcurveto
          4 hlineto
          -176 -113 4 callsubr
          -163 121 rlineto
          148 20 99 123 171 vvcurveto
          73 -24 74 -65 23 vhcurveto
          endchar
        </CharString>
        <CharString name="dvCH_R_YA">
          698 1053 38 callgsubr
          -49 32 -91 -50 -75 -17 -35 -76 vhcurveto
          -15 28 -21 21 -30 11 rrcurveto
          73 553 vlineto
          200 -79 callsubr
          -1263 -107 callgsubr
          457 -37 callsubr
          vhcurveto
          5 hlineto
          -187 -120 4 callsubr
          -170 126 rlineto
          157 13 107 126 177 vvcurveto
          19 -2 19 -3 18 vhcurveto
          39 57 87 21 59 23 callsubr
        </CharString>
        <CharString name="dvCH_YA">
          693 1053 38 callgsubr
          -49 32 -91 -50 -75 -17 -35 -76 vhcurveto
          -15 28 -21 21 -30 11 rrcurveto
          73 553 vlineto
          200 -79 callsubr
          -1270 -40 callgsubr
          171 119 130 187 19 -2 19 -3 18 vhcurveto
          39 57 87 21 59 23 callsubr
        </CharString>
        <CharString name="dvC_CA">
          322 428 385 rmoveto
          -36 -19 -28 -38 -49 vvcurveto
          -17 3 -18 7 -17 vhcurveto
          -37 -37 -50 -21 -43 hhcurveto
          -51 -55 28 63 87 92 38 81 hvcurveto
          569 165 -102 callsubr
          -890 -107 callgsubr
          692 -290 hlineto
          -58 -38 -65 -33 -54 -13 callgsubr
          -607 238 callgsubr
          121 147 callsubr
          -71 59 -83 117 56 45 19 33 46 vhcurveto
          -30 29 45 -22 60 hhcurveto
          54 44 18 31 44 hvcurveto
          -166 -105 callgsubr
        </CharString>
        <CharString name="dvC_CHA">
          433 847 550 rmoveto
          145 -91 callgsubr
          -1002 -107 callgsubr
          804 -87 callsubr
          -52 38 -61 69 -23 hvcurveto
          -2 -4 -3 -4 -3 -5 -7 -7 -5 -8 -5 -8 rrcurveto
          -48 -40 -65 -37 -80 hhcurveto
          -53 -55 28 67 83 70 38 81 hvcurveto
          21 hlineto
          -2 20 -5 16 -8 14 rrcurveto
          -335 hlineto
          2 -19 4 -17 11 -14 rrcurveto
          170 147 callsubr
          -74 59 -80 117 57 57 19 30 44 vhcurveto
          -67 12 65 -68 117 hhcurveto
          136 callgsubr
          hvcurveto
          endchar
        </CharString>
        <CharString name="dvC_CH_VA">
          456 766 -94 rmoveto
          -36 -34 -46 -16 -45 hhcurveto
          -54 -45 28 52 71 73 25 64 13 hvcurveto
          25 5 30 8 32 13 rrcurveto
          102 481 rmoveto
          146 -91 callgsubr
          -1024 -107 callgsubr
          825 -40 -10 hlineto
          -72 -40 -52 -63 -76 59 -47 59 -27 hvcurveto
          6 4 8 9 1 9 rrcurveto
          -43 26 -33 33 57 vvcurveto
          51 29 24 39 35 49 -23 -98 -128 -96 -121 -154 -82 -50 22 60 56 75 35 53 6 vhcurveto
          -10 22 -7 9 -14 16 -18 -3 -27 -4 -37 -20 rrcurveto
          -36 9 -54 33 58 vvcurveto
          40 28 29 49 45 19 -21 -18 16 vhcurveto
          5 1 7 5 3 3 rrcurveto
          30 -8 -27 53 -75 hhcurveto
          247 callsubr
          -55 40 -58 65 -23 hvcurveto
          -64 -33 -72 -59 -96 hhcurveto
          -53 -55 28 67 83 70 38 81 hvcurveto
          21 hlineto
          -2 20 -5 16 -8 14 rrcurveto
          -335 218 callsubr
          -36 -19 -28 -38 -49 vvcurveto
          -74 59 -80 117 57 56 21 32 42 vhcurveto
          11 -35 33 -39 59 -19 rrcurveto
          -45 -22 -32 -33 -55 vvcurveto
          -68 56 -71 109 46 38 11 18 30 vhcurveto
          -92 vlineto
          -104 callsubr
          378 vlineto
          65 42 57 71 122 vvcurveto
          74 -24 62 -49 27 vhcurveto
          endchar
        </CharString>
        <CharString name="dvC_MA">
          370 730 295 -54 callgsubr
          198 hmoveto
          16 -6 23 -9 11 vhcurveto
          -938 -107 callgsubr
          458 107 callsubr
          -14 7 -15 11 -15 vhcurveto
          -29 -35 -44 -16 -40 -13 callgsubr
          -367 hlineto
          2 -19 3 -17 10 -14 rrcurveto
          168 147 callsubr
          -71 59 -83 117 53 52 19 31 41 vhcurveto
          -5 8 8 -3 5 hhcurveto
          11 15 4 10 5 hvcurveto
          -79 callgsubr
        </CharString>
        <CharString name="dvC_NA">
          80 638 -80 callsubr
          -648 -107 callgsubr
          450 -290 hlineto
          -58 -38 -65 -33 -54 -13 callgsubr
          79 callgsubr
          -60 42 -69 84 -19 vhcurveto
          -68 -28 -21 -10 -16 -21 12 -25 rlinecurve
          -50 callsubr
          193 88 rcurveline
          170 callgsubr
        </CharString>
        <CharString name="dvC_R">
          -169 376 600 rmoveto
          -401 -107 callgsubr
          401 -91 callgsubr
          -13 -165 rmoveto
          79 callgsubr
          -68 53 -79 107 -7 vhcurveto
          -132 -70 51 callgsubr
          rlinecurve
          239 153 11 7 24 17 -6 93 rcurveline
          -67 -36 -71 -39 -59 -13 callgsubr
          endchar
        </CharString>
        <CharString name="dvC_RA">
          73 631 -80 callsubr
          -641 -107 callgsubr
          443 -290 hlineto
          -58 -38 -65 -33 -54 -13 callgsubr
          79 callgsubr
          -68 54 -78 106 -7 vhcurveto
          -132 -71 51 callgsubr
          rlinecurve
          228 147 11 6 10 7 10 7 rlinecurve
          -164 -105 callgsubr
        </CharString>
        <CharString name="dvC_YA">
          394 754 235 151 callsubr
          -962 -107 callgsubr
          515 231 callsubr
          -28 8 -26 12 -24 rrcurveto
          -55 -38 -64 -32 -56 -13 callgsubr
          -367 hlineto
          2 -19 3 -17 10 -14 rrcurveto
          168 147 callsubr
          -71 59 -83 117 68 64 30 47 46 vhcurveto
          -44 38 56 -27 74 -99 callgsubr
        </CharString>
        <CharString name="dvCandrabindu">
          -533 -8 823 rmoveto
          228 callsubr
          -35 17 61 -64 hvcurveto
          -8 -6 -12 -11 -5 -8 rrcurveto
          -66 50 77 -44 71 callsubr
        </CharString>
        <CharString name="dvD">
          18 callgsubr
          -37 -458 -80 callgsubr
          endchar
        </CharString>
        <CharString name="dvDA">
          18 callgsubr
          endchar
        </CharString>
        <CharString name="dvDA_mvR">
          -145 331 550 rmoveto
          82 -91 callgsubr
          -423 -107 callgsubr
          288 -63 -73 hlineto
          -95 -60 -34 -65 -46 30 -38 34 -30 hvcurveto
          -38 -23 -23 -33 -47 vvcurveto
          -91 80 -55 92 77 53 25 34 38 vhcurveto
          -6 14 -12 20 -12 12 rrcurveto
          -22 -20 -49 -39 -80 hhcurveto
          -54 -53 32 58 81 86 21 127 2 hvcurveto
          -3 19 -12 20 -8 11 -55 -1 -50 -7 -41 -14 rrcurveto
          -22 19 -27 28 37 vvcurveto
          45 31 13 93 vhcurveto
          22 251 callgsubr
        </CharString>
        <CharString name="dvDD">
          -72 381 208 callsubr
          -476 -42 callgsubr
          -87 -462 -80 callgsubr
          endchar
        </CharString>
        <CharString name="dvDDA">
          -92 367 208 callsubr
          -476 -42 callgsubr
          endchar
        </CharString>
        <CharString name="dvDDH">
          6 324 191 callgsubr
          71 367 rmoveto
          165 hlineto
          226 callsubr
          356 -101 hlineto
          -22 callgsubr
          -54 -458 -80 callgsubr
          endchar
        </CharString>
        <CharString name="dvDDHA">
          6 358 141 callgsubr
          41 446 rmoveto
          165 hlineto
          226 callsubr
          356 -101 hlineto
          -22 callgsubr
          endchar
        </CharString>
        <CharString name="dvDDH_DDHA">
          6 316 -114 rmoveto
          205 callgsubr
          393 vmoveto
          205 callgsubr
          67 -108 rmoveto
          58 28 35 50 49 vvcurveto
          235 callsubr
          vhcurveto
          249 callsubr
          36 64 139 249 callgsubr
          73 181 vlineto
          226 callsubr
          340 -52 hlineto
          221 callgsubr
          20 19 2 4 17 hvcurveto
          -48 vlineto
          221 callgsubr
          122 80 77 74 235 callsubr
          hvcurveto
          249 callsubr
          45 64 130 249 callgsubr
          endchar
        </CharString>
        <CharString name="dvDDH_R">
          6 328 191 callgsubr
          121 -284 rmoveto
          12 6 16 16 5 11 -160 119 rcurveline
          122 callsubr
          122 165 vlineto
          226 callsubr
          356 237 callsubr
          -152 -85 -75 -112 -108 79 -100 151 -7 hvcurveto
          -176 -114 8 -17 16 -20 15 -11 rlinecurve
          165 121 rlineto
          62 -103 -80 callgsubr
          endchar
        </CharString>
        <CharString name="dvDDH_RA">
          6 358 141 callgsubr
          41 446 rmoveto
          165 hlineto
          226 callsubr
          356 237 callsubr
          -152 -85 -75 -112 -108 79 -100 151 -7 hvcurveto
          -176 -114 4 callsubr
          -160 119 rlineto
          122 callsubr
          endchar
        </CharString>
        <CharString name="dvDDH_YA">
          523 883 205 rmoveto
          -31 -30 -52 -21 -53 hhcurveto
          -80 -51 42 60 -23 hvcurveto
          83 20 58 45 55 vvcurveto
          79 -115 18 -116 -41 -41 -2 -3 -37 vhcurveto
          83 498 vlineto
          -501 -293 rmoveto
          24 33 -10 -40 -53 -37 -34 -59 -16 hvcurveto
          -14 220 callgsubr
          42 26 32 42 vhcurveto
          699 293 -102 callsubr
          -1091 -107 callgsubr
          342 -88 hlineto
          -21 -2 -17 -2 -13 -1 rrcurveto
          -167 -14 -78 -65 -112 152 callgsubr
          80 54 58 154 17 hvcurveto
          4 35 100 11 90 hhcurveto
          85 76 -10 -36 -30 -49 -32 -92 -21 hvcurveto
          -109 20 71 -84 127 hhcurveto
          52 42 18 18 27 hvcurveto
          -127 -105 callgsubr
        </CharString>
        <CharString name="dvDDHxA">
          -17 305 -34 rmoveto
          -92 callsubr
          56 138 67 callsubr
          41 446 rmoveto
          165 hlineto
          226 callsubr
          356 -101 hlineto
          -22 callgsubr
          endchar
        </CharString>
        <CharString name="dvDD_DDA">
          5 394 550 rmoveto
          169 -91 callgsubr
          -573 -107 callgsubr
          351 -57 -108 hlineto
          -96 -45 -36 -57 -64 56 -70 63 hvcurveto
          185 callgsubr
          32 -44 37 -32 36 -21 rrcurveto
          -38 -16 -19 -23 -35 vvcurveto
          -60 56 -71 63 vhcurveto
          185 callgsubr
          rrcurveto
          -94 70 77 -39 86 hhcurveto
          99 65 52 81 53 -28 63 -67 -44 -86 -28 -2 -18 hvcurveto
          -17 -2 -37 17 45 vvcurveto
          49 26 3 107 12 vhcurveto
          55 6 109 18 106 vvcurveto
          54 -28 63 -67 -44 -86 -28 -2 -18 vhcurveto
          -25 -3 -29 28 43 vvcurveto
          42 29 16 110 236 callsubr
        </CharString>
        <CharString name="dvDD_DDHA">
          -65 333 -190 rmoveto
          -13 19 -15 24 -1 31 rrcurveto
          41 1 25 32 34 hhcurveto
          35 15 -27 -27 -43 -31 -34 -50 -16 hvcurveto
          44 740 rmoveto
          117 -91 callgsubr
          -504 -107 callgsubr
          335 -59 -96 hlineto
          -101 -53 -29 -59 -57 51 -83 67 hvcurveto
          41 64 30 37 hhcurveto
          30 20 -19 -33 -47 -45 -53 -89 -80 -59 37 71 -56 hvcurveto
          -10 -5 -12 -10 -6 -9 37 -53 46 -40 51 -21 rrcurveto
          -75 -30 -36 -65 -69 vvcurveto
          -107 1 78 -88 130 hhcurveto
          123 81 61 91 59 -56 42 -56 -66 -27 -61 -44 -41 19 -34 19 -24 hvcurveto
          -2 -14 -15 -1 -16 hhcurveto
          -92 -56 56 87 110 101 35 45 6 hvcurveto
          100 13 74 25 93 vvcurveto
          66 -31 52 -59 vhcurveto
          -40 -100 -29 -20 hhcurveto
          -18 -29 25 42 45 33 14 108 hvcurveto
          50 14 -3 25 hhcurveto
          11 9 24 12 hvcurveto
          endchar
        </CharString>
        <CharString name="dvDD_R">
          -92 371 -125 rmoveto
          12 6 16 16 5 11 -157 117 rcurveline
          100 1 72 55 87 vvcurveto
          59 -33 66 -65 vhcurveto
          -43 -107 -30 -17 hhcurveto
          -20 -25 24 44 51 25 20 112 hvcurveto
          46 22 -3 26 hhcurveto
          11 16 20 13 hvcurveto
          118 99 vlineto
          -106 callgsubr
          -476 43 callgsubr
          59 -78 64 -41 70 -11 -179 -115 rcurveline
          8 -17 16 -20 15 -11 165 121 rcurveline
          49 -88 -80 callgsubr
          endchar
        </CharString>
        <CharString name="dvDD_RA">
          -99 367 208 callsubr
          -476 43 callgsubr
          65 -86 72 -41 78 -5 -175 -113 rcurveline
          8 -17 16 -20 15 -11 165 121 rcurveline
          141 -111 12 6 16 16 5 11 rlinecurve
          -159 118 rlineto
          87 9 61 54 79 vvcurveto
          59 -33 66 -65 vhcurveto
          -43 -107 -30 -17 hhcurveto
          -20 -25 24 44 51 25 20 112 hvcurveto
          46 22 -3 26 hhcurveto
          11 16 20 13 hvcurveto
          endchar
        </CharString>
        <CharString name="dvDD_VA">
          -48 328 -28 rmoveto
          -34 -34 -45 -16 -44 hhcurveto
          -54 -45 28 52 64 43 30 77 11 hvcurveto
          26 3 29 3 25 5 22 7 rlinecurve
          41 425 rmoveto
          141 -91 callgsubr
          -520 -107 callgsubr
          326 -56 -108 hlineto
          -96 -45 -32 -55 -61 56 -69 63 hvcurveto
          40 63 28 36 hhcurveto
          30 22 -19 -32 -43 -40 -51 -99 -79 -54 29 70 -56 hvcurveto
          -11 -7 -13 -9 -6 -10 37 -47 40 -32 42 -19 rrcurveto
          -59 -23 -28 -43 -52 vvcurveto
          -68 56 -71 109 45 37 11 17 30 vhcurveto
          -106 vlineto
          -9 26 -19 27 vhcurveto
          383 vlineto
          23 21 12 28 35 vvcurveto
          51 -28 64 -67 -44 -87 -28 -2 -17 vhcurveto
          -25 -3 -29 25 43 vvcurveto
          40 31 11 108 236 callsubr
        </CharString>
        <CharString name="dvDD_YA">
          492 852 38 callgsubr
          -48 29 -67 -95 -81 -85 -103 -45 vhcurveto
          9 -14 -16 6 -19 -43 -107 -30 -17 hhcurveto
          -20 -25 24 44 51 25 20 112 hvcurveto
          46 22 -3 26 hhcurveto
          11 16 20 13 hvcurveto
          118 485 vlineto
          197 -79 callsubr
          -1059 43 callgsubr
          rrcurveto
          -93 70 78 -40 85 hhcurveto
          101 73 56 87 24 -6 26 -11 21 hvcurveto
          105 42 72 79 82 hhcurveto
          33 24 -11 -26 -39 -48 -34 -92 -21 hvcurveto
          -109 20 71 -84 127 78 callsubr
          18 27 hvcurveto
          -126 -105 callgsubr
        </CharString>
        <CharString name="dvDDxA">
          -92 237 -24 rmoveto
          -92 callsubr
          130 574 rmoveto
          213 callsubr
          -476 -42 callgsubr
          endchar
        </CharString>
        <CharString name="dvDH">
          -121 432 -80 callsubr
          -81 -107 callgsubr
          114 -291 rmoveto
          -57 -31 -66 -46 -63 -38 callsubr
          72 75 35 55 44 vhcurveto
          endchar
        </CharString>
        <CharString name="dvDHA">
          76 633 -80 callsubr
          -299 -107 callgsubr
          102 -314 hlineto
          -46 -35 -59 -34 -54 -38 callsubr
          57 43 17 27 40 vhcurveto
          -150 -105 callgsubr
        </CharString>
        <CharString name="dvDH_MA">
          386 746 295 -54 callgsubr
          198 hmoveto
          16 -6 23 -9 11 vhcurveto
          -591 -107 callgsubr
          111 107 callsubr
          -15 9 -16 11 -16 vhcurveto
          -33 -34 -45 -22 -44 -38 callsubr
          57 59 22 36 44 vhcurveto
          -3 6 6 -2 4 hhcurveto
          11 15 4 10 5 hvcurveto
          -79 callgsubr
        </CharString>
        <CharString name="dvDH_NA">
          93 650 -80 callsubr
          -299 -107 callgsubr
          102 -314 hlineto
          -46 -35 -59 -34 -54 -96 callgsubr
          -79 -59 -56 -71 82 callgsubr
          -76 52 -49 65 -16 vhcurveto
          -93 -37 -21 -10 -16 -21 12 -25 rlinecurve
          -50 callsubr
          213 97 rcurveline
          -145 -105 callgsubr
        </CharString>
        <CharString name="dvDH_N_YA">
          382 742 235 151 callsubr
          -593 141 callsubr
          7 -41 15 -37 21 -31 rrcurveto
          -42 -36 -55 -27 -52 -96 callgsubr
          -79 -59 -56 -71 82 callgsubr
          -72 47 -48 61 -18 vhcurveto
          -83 -34 -21 -10 -16 -21 12 -25 rlinecurve
          -50 callsubr
          252 114 rcurveline
          -28 36 46 -17 58 -99 callgsubr
        </CharString>
        <CharString name="dvDH_R">
          -138 403 600 rmoveto
          -68 -107 callgsubr
          68 -91 callgsubr
          -100 -191 rmoveto
          -36 -11 -31 -12 -24 -16 rrcurveto
          -40 9 -55 40 67 vvcurveto
          53 35 39 42 37 4 -30 -17 -33 -16 -14 -28 -20 vhcurveto
          3 -8 8 -11 7 -4 rrcurveto
          56 21 24 32 41 vvcurveto
          55 -44 25 -46 -79 -59 -56 -71 82 callgsubr
          -88 69 -52 79 -6 vhcurveto
          -147 -78 51 callgsubr
          rlinecurve
          308 195 -13 86 rlineto
          -57 -31 -77 -54 -63 hhcurveto
          -51 -51 28 59 60 57 32 77 26 hvcurveto
          -7 19 -15 18 -11 11 rrcurveto
          endchar
        </CharString>
        <CharString name="dvDH_RA">
          92 649 -80 callsubr
          -299 -107 callgsubr
          102 -314 hlineto
          -46 -35 -59 -34 -54 -96 callgsubr
          -79 -59 -56 -71 82 callgsubr
          -87 69 -52 80 -6 vhcurveto
          -148 -79 51 callgsubr
          rlinecurve
          248 157 8 4 8 5 8 6 rlinecurve
          -150 -105 callgsubr
        </CharString>
        <CharString name="dvDH_VA">
          384 744 13 callsubr
          206 -17 callsubr
          -616 -107 callgsubr
          410 179 callsubr
          -23 8 -21 hvcurveto
          -42 -35 -53 -31 -52 -38 callsubr
          58 60 23 38 45 vhcurveto
          -40 32 49 -27 64 hhcurveto
          60 43 24 29 37 hvcurveto
          -153 -105 callgsubr
        </CharString>
        <CharString name="dvDH_YA">
          396 755 235 151 callsubr
          -593 141 callsubr
          6 -33 10 -30 15 -27 rrcurveto
          -50 -34 -60 -38 -57 -38 callsubr
          67 69 30 48 45 vhcurveto
          -38 38 53 -23 68 -99 callgsubr
        </CharString>
        <CharString name="dvD_BA">
          -46 204 64 rmoveto
          10 29 34 4 31 hhcurveto
          214 callgsubr
          -44 -12 -45 -26 -32 vhcurveto
          -35 -28 rmoveto
          -9 -16 -18 -5 -22 hhcurveto
          -46 -40 28 52 22 9 17 15 12 hvcurveto
          216 509 rmoveto
          134 -91 callgsubr
          -523 180 callsubr
          126 callsubr
          252 callsubr
          hvcurveto
          -39 -20 -25 -32 -46 vvcurveto
          -72 60 -62 88 96 74 86 103 vhcurveto
          -57 callgsubr
        </CharString>
        <CharString name="dvD_BHA">
          151 578 550 rmoveto
          132 -91 callgsubr
          -720 -107 callgsubr
          535 -94 253 callsubr
          -18 hhcurveto
          -145 -94 -54 -119 -105 83 -83 106 -18 hvcurveto
          -60 -25 -56 -22 -15 -6 -43 89 rcurveline
          63 -30 -40 35 -60 hhcurveto
          -57 -56 -39 -59 -49 34 -39 63 -19 hvcurveto
          23 -7 26 -5 30 -1 rrcurveto
          4 9 0 13 11 vvcurveto
          -77 6 -52 32 50 vvcurveto
          33 22 23 33 48 30 -57 -62 30 vhcurveto
          24 -49 -33 -14 -25 -20 16 -31 rlinecurve
          -38 20 56 -15 20 hhcurveto
          13 10 5 15 6 hvcurveto
          5 13 -7 37 -12 28 43 20 109 50 79 35 5 2 6 2 4 2 25 10 rcurveline
          35 -47 17 -39 23 -46 21 8 21 17 9 12 -15 33 -45 51 -41 40 rrcurveto
          15 20 9 23 28 vvcurveto
          38 -17 18 -19 -19 -49 -19 -37 -11 5 -20 17 -21 vhcurveto
          -13 -19 -34 -13 -42 hhcurveto
          -78 -89 43 101 96 71 42 122 hvcurveto
          44 20 -7 8 hhcurveto
          13 16 20 12 hvcurveto
          endchar
        </CharString>
        <CharString name="dvD_B_RA">
          -46 204 64 rmoveto
          10 29 34 4 31 hhcurveto
          214 callgsubr
          -44 -12 -45 -26 -32 vhcurveto
          -35 -28 rmoveto
          -9 -16 -18 -5 -22 hhcurveto
          -46 -40 28 52 22 9 17 15 12 hvcurveto
          216 509 rmoveto
          134 -91 callgsubr
          -523 180 callsubr
          126 callsubr
          252 callsubr
          hvcurveto
          -39 -20 -25 -32 -46 vvcurveto
          -59 40 -53 64 -16 vhcurveto
          -106 -51 2 -17 17 -23 13 -8 rlinecurve
          186 108 rlineto
          61 30 41 67 77 vvcurveto
          -57 callgsubr
        </CharString>
        <CharString name="dvD_DA">
          -72 336 550 rmoveto
          149 -91 callgsubr
          -495 -107 callgsubr
          293 -63 -78 hlineto
          -95 -60 -34 -65 -47 31 -37 34 -31 hvcurveto
          -38 -23 -24 -32 -47 vvcurveto
          -91 91 -62 92 48 41 11 22 30 vhcurveto
          36 -49 16 -39 24 -47 21 8 21 17 9 12 -15 33 -44 50 -41 41 rrcurveto
          15 19 8 25 28 vvcurveto
          36 -17 19 -19 -19 -49 -19 -37 -11 5 -20 17 -21 vhcurveto
          -13 -12 -31 -14 -58 hhcurveto
          -62 -53 23 67 81 89 18 124 5 hvcurveto
          19 -12 20 -11 11 vhcurveto
          -54 -2 -50 -7 -41 -14 rrcurveto
          -22 19 -28 28 38 vvcurveto
          45 31 13 93 vhcurveto
          27 251 callgsubr
        </CharString>
        <CharString name="dvD_DHA">
          -46 225 -90 rmoveto
          -46 -40 28 52 68 89 20 70 214 callgsubr
          -80 -41 -83 -88 vhcurveto
          154 640 rmoveto
          134 -91 callgsubr
          -523 180 callsubr
          126 callsubr
          252 callsubr
          hvcurveto
          -39 -20 -25 -32 -46 vvcurveto
          -72 60 -62 88 96 74 86 103 vhcurveto
          -57 callgsubr
        </CharString>
        <CharString name="dvD_GA">
          63 callgsubr
          -97 64 -79 83 -31 hvcurveto
          -90 vlineto
          -90 callgsubr
          121 vlineto
          -1 9 9 -1 9 hhcurveto
          -48 callgsubr
        </CharString>
        <CharString name="dvD_GHA">
          129 376 -90 rmoveto
          -53 -35 32 45 72 88 19 71 214 callgsubr
          -80 -42 -83 -85 vhcurveto
          -199 123 rmoveto
          -47 -40 22 45 33 21 33 62 15 19 -3 -11 21 hvcurveto
          17 -19 21 -17 24 -13 rrcurveto
          -33 -24 -38 -37 -51 hhcurveto
          351 517 rmoveto
          159 -91 callgsubr
          -697 -107 callgsubr
          485 126 callsubr
          -25 5 -24 8 -21 hvcurveto
          3 -13 -13 2 -12 hhcurveto
          -72 -46 -45 -58 -63 50 -60 89 19 21 3 7 21 hvcurveto
          -72 1 60 -61 85 hhcurveto
          100 72 86 103 hvcurveto
          -57 callgsubr
        </CharString>
        <CharString name="dvD_G_RA">
          63 callgsubr
          -79 42 -66 60 -39 hvcurveto
          -107 vlineto
          -90 callgsubr
          125 vlineto
          -8 23 24 -4 25 hhcurveto
          20 19 2 4 17 hvcurveto
          -180 vlineto
          -259 -159 37 callsubr
          224 156 rlineto
          -84 vlineto
          -104 callsubr
          361 vlineto
          4 2 4 3 4 2 -84 callgsubr
        </CharString>
        <CharString name="dvD_MA">
          -533 endchar
        </CharString>
        <CharString name="dvD_NA">
          63 callgsubr
          -111 82 -85 100 -21 hvcurveto
          -115 -46 -21 -10 -16 -21 12 -25 rlinecurve
          -50 callsubr
          216 98 rcurveline
          35 -47 17 -39 23 -46 -93 callgsubr
        </CharString>
        <CharString name="dvD_R">
          -44 377 550 rmoveto
          137 221 callsubr
          334 197 callgsubr
          hvcurveto
          6 5 0 6 hhcurveto
          -108 -76 9 -19 16 -19 13 -11 rlinecurve
          175 157 36 -48 16 -40 24 -46 rlinecurve
          -96 callsubr
          69 -512 -80 callgsubr
          endchar
        </CharString>
        <CharString name="dvD_RA">
          -44 377 550 rmoveto
          137 221 callsubr
          334 197 callgsubr
          hvcurveto
          6 5 0 6 hhcurveto
          -108 -76 9 -19 16 -19 13 -11 rlinecurve
          175 157 36 -48 16 -40 24 -46 rlinecurve
          -93 callgsubr
        </CharString>
        <CharString name="dvD_VA">
          -46 225 -90 rmoveto
          -46 -40 28 52 68 89 20 70 214 callgsubr
          -80 -41 -83 -88 vhcurveto
          154 640 rmoveto
          133 -91 callgsubr
          -522 180 callsubr
          126 callsubr
          252 callsubr
          hvcurveto
          -39 -20 -25 -32 -46 vvcurveto
          -72 60 -62 88 96 74 86 103 vhcurveto
          -57 callgsubr
        </CharString>
        <CharString name="dvD_YA">
          61 421 181 rmoveto
          -34 -35 -62 -42 -82 hhcurveto
          -61 -46 23 48 73 105 21 73 8 hvcurveto
          -3 19 -14 20 -11 11 -30 -2 -47 -7 -41 -18 rrcurveto
          -30 20 -25 29 27 vvcurveto
          34 29 22 48 vhcurveto
          100 hlineto
          11 10 21 14 hvcurveto
          82 111 219 callgsubr
          -629 -107 callgsubr
          267 -61 -79 hlineto
          -70 -48 -37 -62 -49 33 -33 38 -27 hvcurveto
          -29 -20 -21 -30 -41 vvcurveto
          -78 77 -54 99 67 58 23 26 39 vhcurveto
          -99 -105 callgsubr
        </CharString>
        <CharString name="dvE">
          -12 141 550 74 callsubr
          -556 23 callgsubr
        </CharString>
        <CharString name="dvEcandra">
          -12 248 711 143 callsubr
          -107 -161 74 callsubr
          -556 23 callgsubr
        </CharString>
        <CharString name="dvEight">
          -81 417 105 rmoveto
          -11 19 -9 10 -21 14 rrcurveto
          -50 -37 -48 -21 -54 hhcurveto
          -57 -65 49 78 90 86 165 88 117 hvcurveto
          -12 17 -14 12 -19 10 rrcurveto
          -67 -96 -112 -158 -138 vvcurveto
          -110 72 -86 115 74 61 35 43 30 vhcurveto
          endchar
        </CharString>
        <CharString name="dvEyelash">
          -266 276 600 rmoveto
          -301 -107 callgsubr
          301 -91 callgsubr
          48 -262 rmoveto
          -28 -31 -55 -11 -53 hhcurveto
          -45 -47 11 17 -30 hvcurveto
          -22 -37 rlineto
          -25 45 62 -12 60 hhcurveto
          43 43 7 12 34 hvcurveto
          endchar
        </CharString>
        <CharString name="dvEyelash_HA">
          -93 347 124 callgsubr
          -473 210 callgsubr
          -6 1 -7 1 -5 hvcurveto
          -10 -21 -27 -8 -43 hhcurveto
          -34 -65 5 19 -39 hvcurveto
          -24 -37 rlineto
          -28 51 76 -10 42 hhcurveto
          40 40 6 9 28 hvcurveto
          12 -16 14 -13 14 -13 rrcurveto
          -30 -25 -20 -36 -45 vvcurveto
          -62 callsubr
        </CharString>
        <CharString name="dvEyelash_YA">
          25 385 244 rmoveto
          -30 -25 -46 -32 -59 hhcurveto
          -83 -50 64 67 -23 hvcurveto
          80 19 60 46 80 vvcurveto
          29 -8 32 -17 31 vhcurveto
          171 hlineto
          192 -79 callsubr
          -588 -107 callgsubr
          152 hlineto
          31 -36 12 -35 -27 vvcurveto
          -88 -129 -27 -59 -21 -67 4 20 -40 vhcurveto
          -24 -37 rlineto
          -26 47 68 -14 50 hhcurveto
          23 18 3 1 8 hvcurveto
          -85 30 67 -72 111 hhcurveto
          54 38 17 21 27 hvcurveto
          -161 -105 callgsubr
        </CharString>
        <CharString name="dvFive">
          16 395 228 rmoveto
          16 22 9 24 27 vvcurveto
          39 -23 12 -15 -20 -46 -22 -34 -16 11 -24 11 -12 vhcurveto
          -18 -24 -32 -9 -33 hhcurveto
          -71 -45 50 78 98 58 81 46 58 hvcurveto
          -13 16 -11 7 -19 10 rrcurveto
          -54 -64 -57 -85 -99 vvcurveto
          -93 45 -113 131 42 40 16 25 30 vhcurveto
          44 -63 52 -98 23 -45 21 8 21 17 9 12 -15 33 -84 120 -47 42 rrcurveto
          endchar
        </CharString>
        <CharString name="dvFour">
          117 319 86 rmoveto
          -50 -26 22 39 48 40 55 49 54 hvcurveto
          48 -52 38 -48 -45 vvcurveto
          -51 -49 -22 -50 vhcurveto
          231 487 rmoveto
          -12 16 -18 11 -19 6 -16 -60 -99 -102 -54 -58 -31 35 -10 12 -180 224 -13 -3 -33 -25 -7 -10 71 -100 34 -34 131 -140 rrcurveto
          -54 -63 -44 -68 -58 vvcurveto
          -69 62 -57 79 73 52 49 74 66 -38 59 -55 65 vhcurveto
          80 81 90 82 11 67 rrcurveto
          endchar
        </CharString>
        <CharString name="dvG">
          -273 285 -80 callsubr
          -295 -107 callgsubr
          121 -218 hlineto
          -90 callgsubr
          261 vlineto
          endchar
        </CharString>
        <CharString name="dvGA">
          -8 550 -80 callsubr
          -560 -107 callgsubr
          121 -218 hlineto
          -90 callgsubr
          261 188 -542 -105 callgsubr
        </CharString>
        <CharString name="dvGH">
          -208 411 259 rmoveto
          -58 -32 -73 -43 -61 -14 callsubr
          235 -91 callgsubr
          -362 hlineto
          -17 7 -23 8 -10 vhcurveto
          63 hlineto
          61 callsubr
          -91 79 -55 93 63 49 26 31 40 vhcurveto
          endchar
        </CharString>
        <CharString name="dvGHA">
          46 406 245 rmoveto
          -51 -35 -66 -36 -56 -14 callsubr
          285 hlineto
          198 -79 callsubr
          -614 -107 callgsubr
          67 hlineto
          61 callsubr
          -91 79 -55 93 57 45 21 27 38 vhcurveto
          -154 -105 callgsubr
        </CharString>
        <CharString name="dvGH_MA">
          347 707 295 -54 callgsubr
          -282 hmoveto
          -248 vlineto
          223 callsubr
          -18 13 -16 vhcurveto
          -31 -36 -47 -20 -42 -14 callsubr
          784 -79 callsubr
          -911 hlineto
          -17 7 -23 8 -10 vhcurveto
          63 hlineto
          61 callsubr
          -91 79 -55 93 63 49 26 31 40 vhcurveto
          1 vlineto
          -3 6 5 -2 4 hhcurveto
          11 15 4 10 5 hvcurveto
          -79 callgsubr
        </CharString>
        <CharString name="dvGH_NA">
          35 395 245 rmoveto
          -51 -35 -66 -36 -56 -14 callsubr
          285 hlineto
          198 -79 callsubr
          -604 -107 callgsubr
          57 hlineto
          61 callsubr
          -74 52 -50 69 -16 vhcurveto
          -81 -33 -21 -10 -16 -21 12 -25 rlinecurve
          -50 callsubr
          205 93 rcurveline
          -146 -105 callgsubr
        </CharString>
        <CharString name="dvGH_R">
          -190 424 271 rmoveto
          -58 -32 -86 -55 -61 153 callsubr
          247 -91 callgsubr
          -374 178 callgsubr
          -87 71 -54 87 -5 vhcurveto
          -145 -77 51 callgsubr
          rlinecurve
          308 195 rlineto
          endchar
        </CharString>
        <CharString name="dvGH_RA">
          42 402 245 rmoveto
          -51 -35 -66 -36 -56 153 callsubr
          285 hlineto
          198 -79 callsubr
          -610 178 callgsubr
          -86 71 -54 87 -6 vhcurveto
          -145 -77 51 callgsubr
          rlinecurve
          268 170 rlineto
          -149 -105 callgsubr
        </CharString>
        <CharString name="dvGH_YA">
          366 726 -15 callsubr
          6 -31 9 -30 14 -26 rrcurveto
          -52 -34 -61 -37 -64 -14 callsubr
          803 -79 callsubr
          -930 hlineto
          -17 7 -23 8 -10 vhcurveto
          63 hlineto
          61 callsubr
          -91 79 -55 93 67 64 34 49 47 vhcurveto
          -41 38 54 -25 71 -99 callgsubr
        </CharString>
        <CharString name="dvG_BA">
          254 406 386 -39 callsubr
          441 193 -102 callsubr
          -822 -107 callgsubr
          121 -218 hlineto
          -90 callgsubr
          261 450 -155 vlineto
          160 callsubr
        </CharString>
        <CharString name="dvG_BHA">
          335 893 550 57 callsubr
          -311 -107 callgsubr
          121 -218 hlineto
          -90 callgsubr
          261 85 vlineto
          -2 -7 -1 -8 -8 vvcurveto
          -69 callsubr
          -115 195 callgsubr
          -49 60 -42 24 48 callsubr
        </CharString>
        <CharString name="dvG_BH_YA">
          580 940 235 151 callsubr
          -593 141 callsubr
          1 -8 2 -7 2 -8 -18 1 -20 1 -20 1 rrcurveto
          1 -32 -31 0 -17 hhcurveto
          155 99 callgsubr
          -291 -107 callgsubr
          121 -194 hlineto
          -90 callgsubr
          237 65 vlineto
          -2 -7 -1 -8 -8 vvcurveto
          -69 callsubr
          -100 vlineto
          -38 -27 -5 -24 -7 hvcurveto
          -4 -1 -4 -5 vvcurveto
          240 callgsubr
          vhcurveto
          -35 callsubr
          32 25 0 -2 27 hvcurveto
          22 -1 22 -1 28 -3 rrcurveto
          -76 35 68 -52 102 -99 callgsubr
        </CharString>
        <CharString name="dvG_DA">
          176 612 550 rmoveto
          126 -91 callgsubr
          -748 -107 callgsubr
          121 -218 hlineto
          -90 callgsubr
          261 395 -101 vlineto
          2 -20 -19 1 -19 hhcurveto
          -144 -94 -68 -117 -127 108 -94 119 -48 callgsubr
        </CharString>
        <CharString name="dvG_DHA">
          324 881 -80 callsubr
          -299 -107 callgsubr
          102 -314 hlineto
          -46 -35 -59 -34 -54 -70 callsubr
          -389 -107 callgsubr
          121 -218 hlineto
          -90 callgsubr
          261 146 135 callsubr
          57 43 17 27 40 vhcurveto
          -150 -105 callgsubr
        </CharString>
        <CharString name="dvG_DH_VA">
          595 955 -77 callgsubr
          -609 -107 callgsubr
          411 179 callsubr
          -22 8 -21 hvcurveto
          -43 -35 -54 -31 -52 -70 callsubr
          -351 -107 callgsubr
          121 -218 hlineto
          -90 callgsubr
          261 108 135 callsubr
          58 61 23 38 44 vhcurveto
          -40 32 50 -27 64 hhcurveto
          60 43 24 29 37 hvcurveto
          -153 -105 callgsubr
        </CharString>
        <CharString name="dvG_DH_YA">
          605 965 235 151 callsubr
          -598 -107 callgsubr
          151 -10 callgsubr
          7 -37 12 -34 18 -29 rrcurveto
          -45 -35 -56 -33 -53 -70 callsubr
          -364 -107 callgsubr
          121 -218 hlineto
          -90 callgsubr
          261 121 135 callsubr
          64 66 27 45 45 vhcurveto
          -34 37 51 -21 64 -99 callgsubr
        </CharString>
        <CharString name="dvG_GA">
          235 793 -80 callsubr
          -803 -107 callgsubr
          121 -218 hlineto
          -90 callgsubr
          261 190 -218 vlineto
          -90 callgsubr
          261 188 -542 -105 callgsubr
        </CharString>
        <CharString name="dvG_GHA">
          327 687 245 rmoveto
          -51 -35 -66 -36 -56 -14 callsubr
          285 hlineto
          198 -79 callsubr
          -895 -107 callgsubr
          121 -218 hlineto
          -90 callgsubr
          261 174 vlineto
          61 callsubr
          -91 79 -55 93 57 45 21 27 38 vhcurveto
          -154 -105 callgsubr
        </CharString>
        <CharString name="dvG_JA">
          415 973 -80 callsubr
          -983 -107 callgsubr
          121 -218 hlineto
          -90 callgsubr
          261 611 -142 -259 vlineto
          -87 callgsubr
          215 -346 hlineto
          -104 callgsubr
          endchar
        </CharString>
        <CharString name="dvG_LA">
          409 967 -80 callsubr
          -977 -107 callgsubr
          121 -218 hlineto
          -90 callgsubr
          261 605 -115 vlineto
          -23 callgsubr
          -62 -85 -43 -104 -22 callsubr
          hvcurveto
          -94 callgsubr
        </CharString>
        <CharString name="dvG_MA">
          305 665 295 -54 callgsubr
          198 hmoveto
          16 -6 23 -9 11 vhcurveto
          -873 -107 callgsubr
          121 -218 hlineto
          -90 callgsubr
          261 219 -248 vlineto
          -34 -1 -28 -6 -7 -16 rrcurveto
          -2 -4 -2 -9 -8 vvcurveto
          -38 58 -53 23 11 15 4 10 5 vhcurveto
          -79 callgsubr
        </CharString>
        <CharString name="dvG_NA">
          -8 549 -80 callsubr
          -559 -107 callgsubr
          121 -182 hlineto
          -88 callsubr
          55 vvcurveto
          198 188 -291 vlineto
          -231 -115 -21 -10 -16 -21 12 -25 rlinecurve
          -50 callsubr
          164 95 rcurveline
          -205 -105 callgsubr
        </CharString>
        <CharString name="dvG_NNA">
          444 591 331 -19 callgsubr
          411 -79 callsubr
          -1012 -107 callgsubr
          121 -218 hlineto
          -90 callgsubr
          261 161 -201 110 callgsubr
        </CharString>
        <CharString name="dvG_N_YA">
          252 611 203 callgsubr
          -64 -46 25 41 -30 hvcurveto
          -9 14 rlineto
          0 vlineto
          -6 10 -5 11 -4 11 rrcurveto
          179 callgsubr
          199 -79 callsubr
          -820 -107 callgsubr
          121 -194 hlineto
          -90 callgsubr
          237 198 235 callgsubr
          6 -32 10 -30 14 -26 -212 -113 rcurveline
          -21 -11 -16 -20 12 -25 -50 callsubr
          170 101 rcurveline
          -47 39 57 -30 77 -99 callgsubr
        </CharString>
        <CharString name="dvG_R">
          -247 166 550 rmoveto
          142 -91 callgsubr
          -318 -107 callgsubr
          123 -208 hlineto
          -90 callgsubr
          214 -42 rmoveto
          -321 -205 37 callsubr
          299 212 rlineto
          endchar
        </CharString>
        <CharString name="dvG_RA">
          198 callgsubr
          123 -208 hlineto
          -90 callgsubr
          251 188 -310 vlineto
          -295 -188 37 callsubr
          260 184 rlineto
          -182 -105 callgsubr
        </CharString>
        <CharString name="dvG_R_YA">
          252 612 235 151 callsubr
          -820 -107 callgsubr
          121 -194 hlineto
          -90 callgsubr
          237 199 235 callgsubr
          7 -38 13 -35 18 -30 -247 -147 rcurveline
          5 -17 17 -21 13 -8 239 158 rcurveline
          -40 38 54 -25 71 -99 callgsubr
        </CharString>
        <CharString name="dvG_SA">
          318 678 330 rmoveto
          -22 -32 -49 -9 -48 -91 callsubr
          236 hlineto
          198 -79 callsubr
          -886 -107 callgsubr
          121 -218 hlineto
          -90 callgsubr
          261 216 vlineto
          -101 callsubr
          37 38 215 callsubr
          -259 -105 callgsubr
        </CharString>
        <CharString name="dvG_VA">
          241 601 -77 callgsubr
          -809 -107 callgsubr
          121 -218 hlineto
          -90 callgsubr
          261 437 -156 vlineto
          85 callsubr
        </CharString>
        <CharString name="dvG_YA">
          252 612 -105 callsubr
          194 -79 callsubr
          -816 -107 callgsubr
          121 -218 hlineto
          -90 callgsubr
          261 199 vlineto
          27 callsubr
        </CharString>
        <CharString name="dvGx">
          -273 164 550 rmoveto
          121 -91 callgsubr
          -295 -107 callgsubr
          121 -218 hlineto
          -90 callgsubr
          -44 -197 rmoveto
          -92 callsubr
          endchar
        </CharString>
        <CharString name="dvGxA">
          -8 120 92 rmoveto
          -92 callsubr
          430 458 -102 callsubr
          -560 -107 callgsubr
          121 -218 hlineto
          -90 callgsubr
          261 188 -542 -105 callgsubr
        </CharString>
        <CharString name="dvGx_R">
          -247 166 550 rmoveto
          142 -91 callgsubr
          -318 -107 callgsubr
          123 -208 hlineto
          -90 callgsubr
          214 -42 rmoveto
          -321 -205 37 callsubr
          299 212 rlineto
          -132 -210 rmoveto
          -92 callsubr
          endchar
        </CharString>
        <CharString name="dvGx_RA">
          -8 224 8 rmoveto
          -92 callsubr
          326 542 -102 callsubr
          -562 -107 callgsubr
          123 -208 hlineto
          -90 callgsubr
          251 188 -310 vlineto
          -295 -188 37 callsubr
          260 184 rlineto
          -182 -105 callgsubr
        </CharString>
        <CharString name="dvH">
          -106 465 244 rmoveto
          55 vlineto
          -208 -1 rlineto
          -36 -36 -9 -17 -30 hvcurveto
          -31 83 callgsubr
          114 hlineto
          108 callgsubr
          82 vlineto
          -106 callgsubr
          -460 210 callgsubr
          -50 34 -36 32 -28 hvcurveto
          172 callgsubr
          63 58 47 86 vhcurveto
          endchar
        </CharString>
        <CharString name="dvHA">
          -95 345 124 callgsubr
          -473 210 callgsubr
          -50 34 -35 32 -29 hvcurveto
          -30 -25 -20 -36 -45 vvcurveto
          -62 callsubr
        </CharString>
        <CharString name="dvHA_mU">
          161 callgsubr
          -50 35 -36 31 -28 hvcurveto
          -29 -26 -20 -36 -44 vvcurveto
          -85 81 -63 88 -43 vhcurveto
          -15 -5 -15 -6 -13 -9 6 -20 10 -13 12 -16 rrcurveto
          12 20 38 13 39 hhcurveto
          42 33 -24 -45 205 callsubr
          116 -122 133 hhcurveto
          95 49 56 63 74 -44 35 -60 25 hvcurveto
          -109 46 -105 43 91 vvcurveto
          63 58 47 86 63 28 -26 -31 -38 -24 -24 -40 -16 vhcurveto
          7 -20 16 -21 9 -9 rrcurveto
          42 17 33 42 44 vvcurveto
          55 -42 81 -110 -36 -37 -9 -17 -30 vhcurveto
          -31 25 199 callsubr
        </CharString>
        <CharString name="dvHA_mUU">
          161 callgsubr
          -49 34 -36 31 -28 hvcurveto
          -30 -26 -20 -36 -45 vvcurveto
          -74 54 -51 74 -46 vhcurveto
          -84 -5 -43 -55 -59 vvcurveto
          257 callsubr
          vhcurveto
          -6 20 -8 15 -12 16 rrcurveto
          -12 -20 -32 -15 -38 hhcurveto
          -62 -22 39 30 56 46 30 62 91 95 -68 -126 82 hvcurveto
          16 6 10 10 6 9 -41 70 -77 79 -89 50 rrcurveto
          -107 60 -87 33 91 vvcurveto
          63 58 47 86 63 28 -26 -31 -38 -24 -23 -40 -16 vhcurveto
          7 -20 17 -21 9 -9 rrcurveto
          42 17 32 41 44 vvcurveto
          55 -42 81 -110 -36 -36 -9 -16 -30 vhcurveto
          -30 24 199 callsubr
        </CharString>
        <CharString name="dvHA_mvR">
          -66 340 400 rmoveto
          108 callgsubr
          129 vlineto
          -106 callgsubr
          -502 -107 callgsubr
          319 -99 -113 hlineto
          -109 -32 -40 -47 -49 36 -37 31 -28 hvcurveto
          -33 -26 -21 -36 -45 vvcurveto
          -130 177 -80 146 -35 vhcurveto
          8 8 5 15 2 15 rrcurveto
          -144 35 -137 60 99 vvcurveto
          73 75 41 82 63 20 -15 -13 vhcurveto
          -31 -121 -8 -70 vvcurveto
          -48 49 -37 61 39 31 17 26 24 vhcurveto
          -9 15 -7 8 -13 11 rrcurveto
          -22 -26 -25 -10 -23 hhcurveto
          -27 -26 11 19 hvcurveto
          47 112 -3 66 vvcurveto
          39 -33 52 -99 -42 -42 -9 -18 -35 vhcurveto
          -31 25 -13 29 26 vvcurveto
          33 20 16 99 vhcurveto
          endchar
        </CharString>
        <CharString name="dvH_LA">
          -45 369 400 rmoveto
          108 callgsubr
          120 vlineto
          -106 callgsubr
          -522 106 callsubr
          82 28 -22 -30 8 vhcurveto
          -2 -3 0 -2 hhcurveto
          -35 -25 -30 -12 -6 hvcurveto
          14 -5 -21 28 -39 hhcurveto
          -33 -35 -21 -45 -55 55 -34 54 -21 hvcurveto
          5 5 7 16 2 10 rrcurveto
          -51 16 -32 28 29 vvcurveto
          18 11 15 23 30 18 -27 -11 -3 -1 -6 -3 -7 vhcurveto
          -5 2 19 -12 13 hhcurveto
          32 6 13 45 37 hhcurveto
          1 -224 hlineto
          166 callsubr
        </CharString>
        <CharString name="dvH_MA">
          236 596 124 rmoveto
          -24 2 -27 1 -30 1 rrcurveto
          1 -36 -40 1 -42 hhcurveto
          24 vlineto
          87 -53 57 -101 -36 -36 -9 -17 -31 82 callsubr
          114 hlineto
          108 callgsubr
          242 219 callgsubr
          -804 -107 callgsubr
          310 -99 -115 244 callsubr
          172 callgsubr
          68 58 47 86 62 21 -37 -38 vhcurveto
          -43 vlineto
          -81 callgsubr
          51 39 -1 -1 33 hvcurveto
          28 -2 24 -1 24 -2 rrcurveto
          -133 vlineto
          -104 callsubr
          637 vlineto
          endchar
        </CharString>
        <CharString name="dvH_NA">
          -77 369 400 rmoveto
          108 callgsubr
          89 vlineto
          -106 callgsubr
          -491 100 callgsubr
          19 17 -2 -4 13 vhcurveto
          -119 -63 rlineto
          -14 -7 -12 -13 -17 vvcurveto
          -5 1 -6 3 -6 vhcurveto
          -38 18 32 -28 18 hhcurveto
          13 14 12 10 18 -7 25 -7 24 hvcurveto
          99 69 rlineto
          6 -8 2 -9 -9 131 callsubr
        </CharString>
        <CharString name="dvH_NNA">
          -51 294 158 rmoveto
          -26 -12 -19 -17 -22 -14 18 43 vhcurveto
          67 vlineto
          2 13 13 1 13 hhcurveto
          9 9 0 -1 8 hvcurveto
          89 307 rmoveto
          124 -91 callgsubr
          -517 -107 callgsubr
          339 -99 -142 244 callsubr
          -33 -26 -21 -37 -50 vvcurveto
          -95 77 -83 170 -30 vhcurveto
          8 8 6 16 1 14 rrcurveto
          -165 30 -40 59 64 vvcurveto
          55 30 34 41 18 vhcurveto
          -62 vlineto
          -52 30 -34 50 44 27 32 49 vhcurveto
          73 vlineto
          39 -14 19 -27 -38 vvcurveto
          -220 vlineto
          -10 20 -17 32 vhcurveto
          230 vlineto
          80 -36 80 -147 -43 -42 -9 -18 -36 vhcurveto
          -30 25 -13 30 23 vvcurveto
          33 14 19 105 vhcurveto
          44 69 -1 28 hhcurveto
          12 11 18 12 hvcurveto
          endchar
        </CharString>
        <CharString name="dvH_RA">
          -56 369 400 rmoveto
          108 callgsubr
          109 vlineto
          -106 callgsubr
          -511 100 callgsubr
          23 18 -3 -5 14 vhcurveto
          -134 -76 8 -20 9 -14 14 -12 rlinecurve
          138 96 rlineto
          4 -7 2 -8 -8 131 callsubr
        </CharString>
        <CharString name="dvH_VA">
          -44 384 81 rmoveto
          -19 -19 -29 -8 -20 hhcurveto
          -37 -16 19 27 35 27 15 37 20 20 -6 -10 17 hvcurveto
          -15 266 rmoveto
          108 callgsubr
          122 vlineto
          -106 callgsubr
          -524 106 callsubr
          96 22 -30 -39 3 vhcurveto
          12 -16 -21 9 -34 hhcurveto
          -55 -49 -24 -60 -53 38 -47 73 30 18 8 11 16 hvcurveto
          -96 vlineto
          166 callsubr
        </CharString>
        <CharString name="dvH_YA">
          187 547 12 rmoveto
          -26 -24 -46 -24 -54 hhcurveto
          -76 -46 51 52 -25 hvcurveto
          81 21 45 45 56 vvcurveto
          65 -60 49 -95 -38 -37 -8 -16 -32 vhcurveto
          -26 24 -11 27 21 vvcurveto
          33 14 18 105 vhcurveto
          114 hlineto
          108 callgsubr
          188 219 callgsubr
          -755 -107 callgsubr
          315 181 callsubr
          -47 30 -34 30 -27 hvcurveto
          -36 -28 -23 -43 -58 vvcurveto
          -129 113 -90 130 -44 vhcurveto
          8 8 3 15 4 15 rrcurveto
          -128 44 -73 78 91 vvcurveto
          87 68 49 88 60 26 -23 -34 -36 -29 -45 -101 -22 vhcurveto
          -92 22 64 -89 132 hhcurveto
          48 37 11 16 25 hvcurveto
          -130 vlineto
          -104 callsubr
          770 vlineto
          endchar
        </CharString>
        <CharString name="dvI">
          -62 369 550 rmoveto
          127 -91 callgsubr
          -506 -37 callgsubr
          endchar
        </CharString>
        <CharString name="dvII">
          -62 369 550 rmoveto
          127 -91 callgsubr
          -113 hlineto
          -30 26 -52 51 70 vvcurveto
          55 30 46 71 51 22 89 callsubr
          -82 -64 -57 -82 -73 51 -59 39 -30 hvcurveto
          -344 -37 callgsubr
          endchar
        </CharString>
        <CharString name="dvII_Anusvara">
          -62 369 550 rmoveto
          127 -91 callgsubr
          -118 hlineto
          -30 26 -52 51 70 vvcurveto
          55 30 46 71 51 22 89 callsubr
          -82 -64 -57 -82 -73 51 -59 39 -30 hvcurveto
          -339 -37 callgsubr
          -32 313 rmoveto
          -11 35 -41 11 5 callgsubr
          vhcurveto
          endchar
        </CharString>
        <CharString name="dvJ">
          48 callgsubr
          endchar
        </CharString>
        <CharString name="dvJA">
          183 741 -80 callsubr
          -737 -107 callgsubr
          539 -142 -259 hlineto
          -87 callgsubr
          215 -346 hlineto
          -104 callgsubr
          endchar
        </CharString>
        <CharString name="dvJH">
          -57 364 145 callgsubr
          -512 104 callsubr
          -66 callgsubr
          12 -2 12 -3 12 hvcurveto
          20 3 20 5 17 5 27 7 22 10 15 7 rrcurveto
          73 vlineto
          -29 -32 -66 -28 -43 -9 rrcurveto
          26 -16 -26 19 -34 22 callgsubr
          endchar
        </CharString>
        <CharString name="dvJHA">
          155 515 301 rmoveto
          -33 -26 -52 -20 -36 -8 rrcurveto
          26 -16 -26 19 -34 29 callgsubr
          119 151 vlineto
          199 -79 callsubr
          -724 104 callsubr
          -36 callgsubr
          12 -2 12 -3 12 hvcurveto
          40 6 38 12 26 11 rrcurveto
          -227 -105 callgsubr
        </CharString>
        <CharString name="dvJH_MA">
          452 812 295 -54 callgsubr
          -448 hmoveto
          166 165 callgsubr
          -2 -3 -1 -7 -1 -6 -21 -9 -22 -5 -19 -3 rrcurveto
          27 -17 -25 19 -35 22 callgsubr
          646 119 -102 callsubr
          -1020 104 callsubr
          -66 callgsubr
          12 -2 12 -3 12 hvcurveto
          20 3 20 5 17 5 3 1 rcurveline
          -28 19 32 -25 16 hhcurveto
          11 15 4 10 5 hvcurveto
          -79 callgsubr
        </CharString>
        <CharString name="dvJH_NA">
          234 594 291 rmoveto
          -21 -44 -107 -18 -62 -5 -5 0 -4 hhcurveto
          24 -17 -24 16 -32 22 callgsubr
          119 254 219 callgsubr
          -802 -107 callgsubr
          297 -66 callgsubr
          12 -2 13 -3 13 hvcurveto
          -2 13 14 0 15 hhcurveto
          50 79 6 10 36 hvcurveto
          -3 vlineto
          -169 -107 125 callsubr
          100 75 rcurveline
          -161 -105 callgsubr
        </CharString>
        <CharString name="dvJH_R">
          13 617 308 rmoveto
          -28 -36 -89 -8 -69 hhcurveto
          -19 -18 1 1 -15 hvcurveto
          11 -15 -17 7 -21 22 callgsubr
          119 207 vlineto
          -106 callgsubr
          -581 104 callsubr
          -66 callgsubr
          19 -4 20 -8 19 hvcurveto
          -4 26 34 -4 36 hhcurveto
          41 43 5 15 33 hvcurveto
          12 -29 rmoveto
          -203 -121 51 callgsubr
          rlinecurve
          184 130 rlineto
          endchar
        </CharString>
        <CharString name="dvJH_RA">
          240 600 298 rmoveto
          -20 -42 -75 -6 -60 hhcurveto
          -19 -18 1 1 -15 hvcurveto
          11 -15 -17 7 -21 22 callgsubr
          119 236 219 callgsubr
          -808 104 callsubr
          -66 callgsubr
          19 -4 20 -8 19 hvcurveto
          -4 26 34 -4 36 hhcurveto
          34 36 3 10 30 hvcurveto
          -45 vlineto
          -174 -98 51 callgsubr
          rlinecurve
          143 96 rlineto
          -128 -105 callgsubr
        </CharString>
        <CharString name="dvJH_YA">
          469 829 203 callgsubr
          -81 -52 40 60 -27 hvcurveto
          -1 13 rlineto
          88 21 60 53 72 vvcurveto
          47 -29 36 -25 23 vhcurveto
          200 hlineto
          -465 hmoveto
          216 -10 callgsubr
          3 -16 4 -16 5 -15 -31 -19 -40 -15 -29 -6 rrcurveto
          26 -16 -26 19 -34 22 callgsubr
          663 119 -102 callsubr
          -1037 104 callsubr
          -66 callgsubr
          12 -2 12 -3 12 hvcurveto
          41 6 39 13 26 11 rrcurveto
          -63 38 63 -42 92 -99 callgsubr
        </CharString>
        <CharString name="dvJ_BA">
          442 594 386 rmoveto
          189 callsubr
          56 37 -22 -35 40 hvcurveto
          -116 vlineto
          -7 -10 -8 -9 -8 -8 rrcurveto
          -221 151 rmoveto
          2 vlineto
          1 1 184 -181 rlineto
          -17 -30 -34 -10 -38 hhcurveto
          -52 -60 37 82 35 10 29 17 22 hvcurveto
          444 196 -102 callsubr
          -1010 -107 callgsubr
          812 -155 hlineto
          182 callsubr
          -47 -48 -15 -30 -34 hvcurveto
          -237 hlineto
          -87 callgsubr
          156 hlineto
          -6 -17 -4 -19 -21 127 callsubr
        </CharString>
        <CharString name="dvJ_DA">
          394 826 550 rmoveto
          126 -91 callgsubr
          -962 -107 callgsubr
          783 91 callgsubr
          -68 -58 -15 -29 -41 hvcurveto
          -264 hlineto
          -87 callgsubr
          171 hlineto
          -14 -25 -8 -29 -33 vvcurveto
          243 callgsubr
          vhcurveto
          -84 callgsubr
        </CharString>
        <CharString name="dvJ_DDA">
          357 816 208 callsubr
          -924 -107 callgsubr
          772 215 callgsubr
          -59 -43 -14 -31 -20 hvcurveto
          -233 hlineto
          -87 callgsubr
          176 hlineto
          -68 2 51 -75 66 10 callgsubr
        </CharString>
        <CharString name="dvJ_JA">
          584 1143 550 168 callsubr
          954 -142 -231 -51 callgsubr
          187 -346 -71 callgsubr
        </CharString>
        <CharString name="dvJ_JHA">
          600 960 301 rmoveto
          -33 -26 -52 -20 -36 -8 rrcurveto
          26 -16 -26 19 -34 29 callgsubr
          119 151 vlineto
          199 -79 callsubr
          -1169 -107 callgsubr
          766 215 callgsubr
          -61 -41 -16 -29 -19 hvcurveto
          -227 hlineto
          -87 callgsubr
          170 hlineto
          -71 3 52 -72 65 38 callsubr
        </CharString>
        <CharString name="dvJ_J_NYA">
          502 1061 -80 callsubr
          -1071 -107 callgsubr
          872 -126 -578 hlineto
          -87 callgsubr
          231 hlineto
          67 -53 61 -67 -65 -7 callsubr
          247 -362 -71 callgsubr
        </CharString>
        <CharString name="dvJ_J_VA">
          883 1243 -77 callgsubr
          -1451 -107 callgsubr
          1253 26 callsubr
          -48 -48 -15 -30 -34 hvcurveto
          -263 -51 callgsubr
          182 hlineto
          -6 -17 -4 -19 -22 vvcurveto
          -95 -34 callgsubr
        </CharString>
        <CharString name="dvJ_J_YA">
          876 1236 235 151 callsubr
          -1444 -107 callgsubr
          997 69 callsubr
          -36 -20 -31 -41 -22 vhcurveto
          13 -43 -80 10 -61 hhcurveto
          -90 -51 callgsubr
          145 hlineto
          -114 22 74 -87 132 -99 callgsubr
        </CharString>
        <CharString name="dvJ_KA">
          642 805 106 callgsubr
          -42 -38 -12 -22 -30 hvcurveto
          -266 hlineto
          -87 callgsubr
          176 hlineto
          -9 -20 -6 -23 -25 -52 callgsubr
        </CharString>
        <CharString name="dvJ_MA">
          462 822 295 -54 callgsubr
          198 hmoveto
          16 -6 23 -9 11 vhcurveto
          -1031 -107 callgsubr
          551 -199 hlineto
          29 -35 -55 28 -72 hhcurveto
          -94 hlineto
          -87 callgsubr
          62 hlineto
          47 63 -26 -26 33 hvcurveto
          -31 -2 -24 -6 -7 -15 69 callgsubr
          -38 58 -53 23 1 callsubr
          vhcurveto
          -79 callgsubr
        </CharString>
        <CharString name="dvJ_NA">
          154 712 -80 callsubr
          -722 -107 callgsubr
          524 -226 hlineto
          71 -75 -101 47 18 callsubr
          -235 -144 125 callsubr
          166 115 rcurveline
          -174 -105 callgsubr
        </CharString>
        <CharString name="dvJ_NY">
          -129 462 424 rmoveto
          -341 hlineto
          -3 -1 -20 -19 94 callgsubr
          286 hlineto
          -47 230 rmoveto
          -440 -107 callgsubr
          440 -91 callgsubr
          endchar
        </CharString>
        <CharString name="dvJ_NYA">
          63 621 -80 callsubr
          -631 -107 callgsubr
          433 -126 -302 hlineto
          -3 -1 -20 -19 94 callgsubr
          247 -362 -71 callgsubr
        </CharString>
        <CharString name="dvJ_NY_YA">
          399 759 235 151 callsubr
          -967 -107 callgsubr
          520 69 callsubr
          -47 -33 -37 -70 -23 vhcurveto
          71 -61 -100 19 -86 hhcurveto
          -56 hlineto
          -3 -1 -20 -20 94 callgsubr
          1 15 14 0 14 hhcurveto
          64 59 -17 -49 43 hvcurveto
          -106 25 73 -78 126 -99 callgsubr
        </CharString>
        <CharString name="dvJ_R">
          28 callgsubr
          endchar
        </CharString>
        <CharString name="dvJ_RA">
          158 716 -80 callsubr
          -726 -107 callgsubr
          528 -219 hlineto
          69 -75 -101 42 18 callsubr
          -276 -177 37 callsubr
          241 173 rlineto
          -171 -105 callgsubr
        </CharString>
        <CharString name="dvJ_TA">
          424 982 -80 callsubr
          -992 -107 callgsubr
          794 -126 -84 hlineto
          -51 -44 -5 -11 -36 hvcurveto
          -285 hlineto
          -87 callgsubr
          161 hlineto
          -13 -20 -7 -24 -29 vvcurveto
          -100 80 -124 57 -77 vhcurveto
          -65 callgsubr
        </CharString>
        <CharString name="dvJ_TTA">
          390 809 145 callgsubr
          -957 -107 callgsubr
          766 145 callsubr
          -47 -41 -8 -15 -35 hvcurveto
          -300 hlineto
          -87 callgsubr
          183 hlineto
          -26 -31 -14 -41 -47 vvcurveto
          37 callgsubr
          vhcurveto
          -73 callgsubr
          endchar
        </CharString>
        <CharString name="dvJ_VA">
          447 807 -77 callgsubr
          -1016 -107 callgsubr
          818 26 callsubr
          -48 -48 -15 -30 -34 hvcurveto
          -242 hlineto
          -87 callgsubr
          161 hlineto
          -6 -17 -4 -19 -22 vvcurveto
          -95 -34 callgsubr
        </CharString>
        <CharString name="dvJ_YA">
          443 803 235 151 callsubr
          -1011 -107 callgsubr
          564 69 callsubr
          -34 -18 -29 -36 -22 vhcurveto
          12 -53 -61 7 -56 hhcurveto
          -88 hlineto
          -87 callgsubr
          122 hlineto
          -114 22 74 -87 132 -99 callgsubr
        </CharString>
        <CharString name="dvJx">
          48 callgsubr
          212 -484 rmoveto
          -30 callgsubr
          endchar
        </CharString>
        <CharString name="dvJxA">
          148 260 47 rmoveto
          -92 callsubr
          456 503 -102 callsubr
          -737 -107 callgsubr
          539 -142 -259 hlineto
          -87 callgsubr
          215 -346 hlineto
          -104 callgsubr
          endchar
        </CharString>
        <CharString name="dvJx_JxA">
          584 341 26 rmoveto
          -92 callsubr
          449 hmoveto
          -92 callsubr
          353 524 168 callsubr
          954 -142 -231 -51 callgsubr
          187 -346 -71 callgsubr
        </CharString>
        <CharString name="dvJx_R">
          28 callgsubr
          87 -389 rmoveto
          -30 callgsubr
          endchar
        </CharString>
        <CharString name="dvJx_RA">
          158 145 139 rmoveto
          -92 callsubr
          571 411 -102 callsubr
          -726 -107 callgsubr
          528 -219 hlineto
          69 -75 -101 42 18 callsubr
          -276 -177 37 callsubr
          241 173 rlineto
          -171 -105 callgsubr
        </CharString>
        <CharString name="dvJx_YA">
          440 332 18 rmoveto
          -92 callsubr
          471 217 151 callsubr
          -1011 -107 callgsubr
          564 69 callsubr
          -34 -18 -29 -36 -22 vhcurveto
          12 -53 -61 7 -56 hhcurveto
          -88 hlineto
          -87 callgsubr
          122 hlineto
          -114 22 74 -87 132 -99 callgsubr
        </CharString>
        <CharString name="dvK">
          6 356 36 callsubr
          154 -91 callgsubr
          -573 -89 callgsubr
          17 18 -4 -9 15 hvcurveto
          26 34 rlineto
          20 -26 -32 11 -33 99 callsubr
          endchar
        </CharString>
        <CharString name="dvKA">
          193 356 249 17 callsubr
        </CharString>
        <CharString name="dvKH">
          -2 557 -80 callsubr
          -567 111 callsubr
          -68 120 rrcurveto
          99 6 30 102 90 callsubr
          373 -249 rmoveto
          -81 -30 -62 -35 -50 -52 callsubr
          72 55 42 70 39 hvcurveto
          endchar
        </CharString>
        <CharString name="dvKHA">
          198 558 83 callsubr
          -766 hlineto
          -17 7 -23 8 -10 vhcurveto
          147 hlineto
          18 -38 15 -53 -53 vvcurveto
          -31 -3 -33 -10 -25 vhcurveto
          5 -17 -20 5 -20 hhcurveto
          -47 -22 -25 -33 -80 126 -173 228 -42 hvcurveto
          11 15 12 23 1 13 -49 callsubr
        </CharString>
        <CharString name="dvKH_KHA">
          713 1073 83 callsubr
          -1281 -107 callgsubr
          147 225 callsubr
          -20 5 -20 204 callsubr
          -140 33 -115 43 -67 120 rrcurveto
          98 6 30 103 97 vvcurveto
          45 -7 44 -9 34 vhcurveto
          453 225 callsubr
          -20 5 -20 hhcurveto
          -47 -22 -25 -33 -6 1 -8 1 -7 hvcurveto
          -40 -31 -47 -23 -40 hhcurveto
          -38 -65 22 84 82 63 29 61 52 32 -14 -27 28 hvcurveto
          15 36 rlineto
          28 -24 -60 27 -58 hhcurveto
          -81 -84 -47 -94 -90 78 -82 100 53 35 23 30 34 hvcurveto
          47 -84 113 -103 169 -31 11 15 12 23 1 13 -49 callsubr
        </CharString>
        <CharString name="dvKH_MA">
          504 864 295 -54 callgsubr
          198 hmoveto
          16 -6 23 -9 11 vhcurveto
          -1072 -107 callgsubr
          147 -75 callgsubr
          383 107 callsubr
          -11 5 -12 7 -12 vhcurveto
          -26 -28 -34 -12 -29 -52 callsubr
          43 37 15 27 31 hvcurveto
          -9 12 11 -5 7 hhcurveto
          11 15 4 10 5 hvcurveto
          -79 callgsubr
        </CharString>
        <CharString name="dvKH_NA">
          206 566 409 rmoveto
          22 -29 -41 21 -54 hhcurveto
          -80 -84 -46 -98 -85 63 -80 112 50 33 15 24 30 hvcurveto
          -47 vlineto
          -25 -63 -60 -7 -57 214 callsubr
          64 101 callgsubr
          367 hlineto
          -293 vmoveto
          -44 -32 -52 -20 -44 hhcurveto
          -40 -64 21 76 83 63 29 61 47 35 -17 -21 26 hvcurveto
          198 201 callgsubr
          -774 -107 callgsubr
          147 hlineto
          18 -38 15 -44 -52 vvcurveto
          -26 -3 -41 -10 -31 91 callsubr
          -47 -22 -23 -33 -98 141 -110 184 -9 hvcurveto
          -238 -57 rlineto
          -16 -7 -14 -14 -18 vvcurveto
          -5 1 -6 2 -5 vhcurveto
          14 -33 28 -32 19 -11 rrcurveto
          -2 4 3 -2 3 hhcurveto
          13 -1 17 14 1 8 1 11 -7 42 -3 24 382 118 rcurveline
          -71 -105 callgsubr
        </CharString>
        <CharString name="dvKH_R">
          121 callgsubr
          2 227 callsubr
          -538 0 callsubr
          527 171 rlineto
          57 vlineto
          -30 -69 -93 -19 -62 197 callsubr
          endchar
        </CharString>
        <CharString name="dvKH_RA">
          202 562 409 -6 callsubr
        </CharString>
        <CharString name="dvKH_SHA">
          667 1225 -80 callsubr
          -1235 -107 callgsubr
          147 -75 callgsubr
          439 hlineto
          -15 -19 -8 -24 -24 vvcurveto
          -49 34 -52 90 -39 vhcurveto
          3 2 9 12 2 10 rrcurveto
          -70 44 -13 37 27 vvcurveto
          50 42 25 43 61 23 -53 -50 -94 -82 -78 -71 -15 vhcurveto
          28 -21 -30 23 -21 hhcurveto
          -27 -21 -36 -6 -5 hvcurveto
          -52 -41 -38 -32 -50 hhcurveto
          -41 -64 22 84 82 59 29 74 43 24 -10 -17 23 hvcurveto
          18 32 rlineto
          21 -21 -46 24 -62 hhcurveto
          -85 -83 -47 -94 -90 78 -82 100 58 52 35 47 37 hvcurveto
          -10 11 12 -8 21 hhcurveto
          10 10 -67 callgsubr
          95 31 88 89 101 vvcurveto
          46 77 callgsubr
        </CharString>
        <CharString name="dvKH_TA">
          523 1081 -80 callsubr
          -1091 -107 callgsubr
          147 -75 callgsubr
          684 -126 -84 hlineto
          -138 -87 -35 -97 -6 hvcurveto
          -75 -31 -59 -32 -48 -52 callsubr
          53 44 23 40 35 hvcurveto
          26 -80 55 -84 43 -58 -65 callgsubr
        </CharString>
        <CharString name="dvKH_VA">
          540 900 -77 callgsubr
          -1108 -107 callgsubr
          148 -75 callgsubr
          700 26 callsubr
          -88 -88 -49 -106 -1 hvcurveto
          -79 -30 -62 -34 -49 -52 callsubr
          58 46 27 47 37 hvcurveto
          -60 28 59 -45 82 hhcurveto
          60 43 24 29 37 hvcurveto
          -153 -105 callgsubr
        </CharString>
        <CharString name="dvKH_YA">
          543 903 235 151 callsubr
          -1111 -107 callgsubr
          147 -75 callgsubr
          455 -10 callgsubr
          3 -15 4 -15 4 -15 rrcurveto
          -72 -31 -58 -32 -48 -52 callsubr
          62 50 32 54 38 hvcurveto
          -57 38 61 -37 86 -99 callgsubr
        </CharString>
        <CharString name="dvKHx">
          -2 41 101 rmoveto
          -92 callsubr
          516 449 -102 callsubr
          -567 111 callsubr
          -68 120 rrcurveto
          99 6 30 102 90 callsubr
          373 -249 rmoveto
          -81 -30 -62 -35 -50 -52 callsubr
          72 55 42 70 39 hvcurveto
          endchar
        </CharString>
        <CharString name="dvKHxA">
          197 41 101 rmoveto
          -92 callsubr
          516 160 -18 callsubr
          -766 hlineto
          -17 7 -23 8 -10 vhcurveto
          147 hlineto
          18 -38 15 -53 -53 vvcurveto
          -31 -3 -33 -10 -25 vhcurveto
          5 -17 -20 5 -20 hhcurveto
          -47 -22 -25 -33 -80 126 -173 228 -42 hvcurveto
          11 15 12 23 1 13 -49 callsubr
        </CharString>
        <CharString name="dvKHx_MA">
          504 115 36 rmoveto
          -92 callsubr
          749 259 -54 callgsubr
          198 hmoveto
          16 -6 23 -9 11 vhcurveto
          -1072 -107 callgsubr
          147 -75 callgsubr
          383 107 callsubr
          -11 5 -12 7 -12 vhcurveto
          -26 -28 -34 -12 -29 -52 callsubr
          43 37 15 27 31 hvcurveto
          -9 12 11 -5 7 hhcurveto
          11 15 4 10 5 hvcurveto
          -79 callgsubr
        </CharString>
        <CharString name="dvKHx_R">
          121 callgsubr
          -127 -424 rmoveto
          -92 callsubr
          129 588 -102 callsubr
          -538 0 callsubr
          527 171 rlineto
          57 vlineto
          -30 -69 -93 -19 -62 197 callsubr
          endchar
        </CharString>
        <CharString name="dvKHx_RA">
          202 399 -38 rmoveto
          -92 callsubr
          163 447 -6 callsubr
        </CharString>
        <CharString name="dvKHx_SA">
          609 115 36 rmoveto
          -92 callsubr
          852 294 rmoveto
          -22 -32 -49 -9 -48 -91 callsubr
          236 hlineto
          199 -79 callsubr
          -1177 -107 callgsubr
          148 95 callsubr
          470 hlineto
          -86 callgsubr
          -39 -27 -22 -36 -5 1 -6 1 -6 hvcurveto
          -62 -32 -54 -27 -44 -52 callsubr
          57 46 26 46 36 hvcurveto
          3 -5 112 callsubr
        </CharString>
        <CharString name="dvKHx_SHA">
          667 115 36 rmoveto
          -92 callsubr
          1110 514 -102 callsubr
          -1235 -107 callgsubr
          147 -75 callgsubr
          439 hlineto
          -15 -19 -8 -24 -24 vvcurveto
          -49 34 -52 90 -39 vhcurveto
          3 2 9 12 2 10 rrcurveto
          -70 44 -13 37 27 vvcurveto
          50 42 25 43 61 23 -53 -50 -94 -82 -78 -71 -15 vhcurveto
          28 -21 -30 23 -21 hhcurveto
          -27 -21 -36 -6 -5 hvcurveto
          -52 -41 -38 -32 -50 hhcurveto
          -41 -64 22 84 82 59 29 74 43 24 -10 -17 23 hvcurveto
          18 32 rlineto
          21 -21 -46 24 -62 hhcurveto
          -85 -83 -47 -94 -90 78 -82 100 58 52 35 47 37 hvcurveto
          -10 11 12 -8 21 hhcurveto
          10 10 -67 callgsubr
          95 31 88 89 101 vvcurveto
          46 77 callgsubr
        </CharString>
        <CharString name="dvKHx_TA">
          523 115 36 rmoveto
          -92 callsubr
          966 514 -102 callsubr
          -1091 -107 callgsubr
          147 95 callsubr
          684 -126 -84 hlineto
          -138 -87 -35 -97 -6 hvcurveto
          -75 -31 -59 -32 -48 -52 callsubr
          53 44 23 40 35 hvcurveto
          26 -80 55 -84 43 -58 -65 callgsubr
        </CharString>
        <CharString name="dvKHx_VA">
          540 115 36 rmoveto
          -92 callsubr
          785 208 rmoveto
          -85 callgsubr
          -1108 -107 callgsubr
          148 -75 callgsubr
          700 26 callsubr
          -88 -88 -49 -106 -1 hvcurveto
          -79 -30 -62 -34 -49 -52 callsubr
          58 46 27 47 37 hvcurveto
          -60 28 59 -45 82 hhcurveto
          60 43 24 29 37 hvcurveto
          -153 -105 callgsubr
        </CharString>
        <CharString name="dvKHx_YA">
          543 115 36 rmoveto
          -92 callsubr
          788 199 151 callsubr
          -1111 -107 callgsubr
          147 -75 callgsubr
          455 -10 callgsubr
          3 -15 4 -15 4 -15 rrcurveto
          -72 -31 -58 -32 -48 -52 callsubr
          62 50 32 54 38 hvcurveto
          -57 38 61 -37 86 -99 callgsubr
        </CharString>
        <CharString name="dvK_CA">
          601 961 251 rmoveto
          -58 -38 -65 -33 -54 -13 callgsubr
          -313 hlineto
          7 -10 -19 5 -18 hhcurveto
          -54 -38 -32 -31 -30 hvcurveto
          175 552 vlineto
          -605 -301 -99 callsubr
          800 214 -102 callsubr
          -1166 -107 callgsubr
          366 -97 callsubr
          310 vlineto
          50 32 50 42 49 hhcurveto
          13 13 -3 -3 7 hvcurveto
          134 147 callsubr
          -71 59 -83 117 54 44 18 31 44 vhcurveto
          170 callgsubr
        </CharString>
        <CharString name="dvK_DA">
          478 409 550 rmoveto
          448 91 callgsubr
          -80 -64 -21 -38 -42 hvcurveto
          13 -22 -26 7 -27 99 callsubr
          -53 -105 -99 callsubr
          554 214 rmoveto
          126 -91 callgsubr
          -1046 -89 callgsubr
          10 11 -1 -4 10 hvcurveto
          -15 -25 -8 -30 -34 vvcurveto
          243 callgsubr
          vhcurveto
          -84 callgsubr
        </CharString>
        <CharString name="dvK_JA">
          726 1086 408 rmoveto
          -258 hlineto
          -3 -1 -16 -20 -3 -11 rrcurveto
          28 -31 54 -58 -65 vvcurveto
          -56 -38 -22 -38 -103 -50 118 120 -30 vhcurveto
          20 -26 -32 11 -33 47 callsubr
          677 vlineto
          -730 -301 -99 callsubr
          926 214 -102 callsubr
          -1292 -89 callgsubr
          13 14 -2 -6 12 hvcurveto
          -126 38 64 -139 127 -54 callsubr
          214 -346 -71 callgsubr
        </CharString>
        <CharString name="dvK_KA">
          702 865 190 callsubr
          -457 214 rmoveto
          457 -68 callsubr
          -47 -43 -16 -27 -31 hvcurveto
          9 -19 -21 5 -22 99 callsubr
          -53 -105 -99 callsubr
          563 214 rmoveto
          90 callgsubr
          -1270 -107 callgsubr
          365 -95 callsubr
          5 5 0 -1 6 hvcurveto
          -12 -22 -7 -24 -28 -52 callgsubr
        </CharString>
        <CharString name="dvK_KHA">
          718 409 550 rmoveto
          248 136 callsubr
          -8 3 -9 2 -10 2 rrcurveto
          68 -25 -43 21 -44 99 callsubr
          -53 -105 -99 callsubr
          722 -75 -18 callsubr
          -1286 -89 callgsubr
          25 15 -13 -22 11 hvcurveto
          -36 -5 -17 -23 -29 vvcurveto
          42 callsubr
          vhcurveto
          11 15 12 23 15 callsubr
          103 97 vvcurveto
          45 -7 44 -9 34 vhcurveto
          359 -140 hlineto
          22 -29 -41 20 -52 hhcurveto
          -81 -84 -47 -94 -90 77 -82 101 47 32 18 24 30 hvcurveto
          -173 -105 callgsubr
        </CharString>
        <CharString name="dvK_LA">
          696 1056 198 callsubr
          -38 -46 -16 -35 -30 hvcurveto
          13 -23 -27 8 -27 47 callsubr
          647 vlineto
          -700 -301 -99 callsubr
          898 214 -102 callsubr
          -1264 -89 callgsubr
          13 14 -2 -6 12 hvcurveto
          -6 -16 -4 -19 -22 vvcurveto
          -22 callsubr
          vhcurveto
          -94 callgsubr
        </CharString>
        <CharString name="dvK_MA">
          568 928 295 -54 callgsubr
          -519 hmoveto
          237 -209 hlineto
          43 -24 -43 29 -47 hhcurveto
          -48 132 callgsubr
          hvcurveto
          -53 -105 -99 callsubr
          770 214 -102 callsubr
          -1136 -107 callgsubr
          366 -97 callsubr
          287 vlineto
          44 32 48 50 46 hhcurveto
          39 27 -26 -35 17 hvcurveto
          -21 -3 -15 -7 -5 -11 69 callgsubr
          -38 58 -53 23 1 callsubr
          vhcurveto
          -79 callgsubr
        </CharString>
        <CharString name="dvK_NA">
          193 356 106 callgsubr
          -95 -76 -63 -93 -80 57 -72 81 -20 hvcurveto
          -41 -19 -14 -8 -14 -8 -20 -12 -17 -19 12 -25 -50 callsubr
          180 104 rcurveline
          -149 120 callgsubr
        </CharString>
        <CharString name="dvK_NNA">
          716 863 331 -19 callgsubr
          -454 hmoveto
          188 -149 hlineto
          8 -18 -21 4 -20 99 callsubr
          -53 -105 -99 callsubr
          918 214 -102 callsubr
          -1284 -89 callgsubr
          15 15 -3 -7 14 hvcurveto
          -2 110 callgsubr
        </CharString>
        <CharString name="dvK_PA">
          520 880 290 -27 callsubr
          152 244 vlineto
          -471 hmoveto
          168 -142 hlineto
          3 -13 -13 2 -13 99 callsubr
          -53 -105 -99 callsubr
          722 214 -102 callsubr
          -1088 -89 callgsubr
          8 8 -1 -2 8 hvcurveto
          -127 4 58 -76 111 hhcurveto
          56 46 24 21 28 hvcurveto
          -192 -105 callgsubr
        </CharString>
        <CharString name="dvK_PHA">
          721 356 190 callsubr
          579 236 rmoveto
          -53 -262 hlineto
          -54 -32 -53 -35 -55 hhcurveto
          -68 -21 52 149 hvcurveto
          143 -59 -163 vlineto
          7 -18 -19 4 -19 47 callsubr
          85 vlineto
          -8 10 -7 23 17 vvcurveto
          -504 -89 callgsubr
          14 16 -3 -6 13 hvcurveto
          -109 12 56 -64 91 hhcurveto
          108 callsubr
          hvcurveto
          -214 -92 callgsubr
        </CharString>
        <CharString name="dvK_P_RA">
          541 901 330 -27 callsubr
          112 244 vlineto
          -492 hmoveto
          189 -140 hlineto
          -10 vlineto
          9 -19 -20 4 -21 99 callsubr
          -53 -105 -99 callsubr
          744 214 -102 callsubr
          -1110 -89 callgsubr
          17 18 -4 -9 15 hvcurveto
          -97 16 57 -56 95 hhcurveto
          -26 callgsubr
        </CharString>
        <CharString name="dvK_R">
          40 356 36 callsubr
          184 -91 callgsubr
          -603 -1 callsubr
          284 vlineto
          44 33 49 53 63 hhcurveto
          17 18 -4 -9 15 hvcurveto
          26 34 rlineto
          230 callgsubr
          -54 -45 -30 -30 -31 hvcurveto
          endchar
        </CharString>
        <CharString name="dvK_RA">
          193 356 249 10 callsubr
        </CharString>
        <CharString name="dvK_SA">
          608 968 330 rmoveto
          -22 -32 -49 -9 -48 -91 callsubr
          236 hlineto
          -559 -48 callsubr
          809 214 -102 callsubr
          -1175 hlineto
          -15 7 -27 8 -8 vhcurveto
          366 -53 callgsubr
          40 2 29 15 21 24 rrcurveto
          -21 44 57 -10 55 hhcurveto
          37 38 215 callsubr
          -259 vlineto
          -104 callgsubr
          endchar
        </CharString>
        <CharString name="dvK_SHA">
          631 409 550 rmoveto
          191 hlineto
          -14 -21 -7 -25 -23 vvcurveto
          -30 11 -26 25 -26 vhcurveto
          8 -14 -22 6 -32 hhcurveto
          -58 -48 -28 -31 -32 hvcurveto
          -53 -105 -99 callsubr
          833 214 -102 callsubr
          -1199 -107 callgsubr
          366 -93 callsubr
          48 36 49 49 83 hhcurveto
          55 44 -19 -10 16 hvcurveto
          76 callsubr
          43 14 46 29 35 38 rrcurveto
          35 38 24 49 53 vvcurveto
          46 -18 40 -28 28 86 callsubr
        </CharString>
        <CharString name="dvK_SS">
          -129 429 -80 callsubr
          -40 -107 callgsubr
          -204 15 19 callsubr
          294 -192 rmoveto
          -23 -35 -50 -19 -64 hhcurveto
          -41 -37 8 7 -26 -74 callsubr
          57 38 87 54 hvcurveto
          -28 62 48 -12 61 hhcurveto
          53 36 9 13 34 hvcurveto
          endchar
        </CharString>
        <CharString name="dvK_SSA">
          108 185 565 19 callsubr
          479 -15 -102 callsubr
          -275 -107 callgsubr
          79 -184 hlineto
          -20 -34 -46 -15 -58 hhcurveto
          -41 -37 8 7 -26 -74 callsubr
          57 38 87 54 hvcurveto
          -28 62 48 -12 61 hhcurveto
          46 34 7 10 30 hvcurveto
          -292 -105 callgsubr
        </CharString>
        <CharString name="dvK_SS_MA">
          391 751 295 -54 callgsubr
          -566 15 19 callsubr
          764 -15 -102 callsubr
          -594 -107 callgsubr
          114 -203 hlineto
          -15 -35 -48 -1 -56 hhcurveto
          -33 -40 7 8 -31 -74 callsubr
          56 38 87 53 hvcurveto
          -25 46 66 -15 65 hhcurveto
          13 14 1 1 13 hvcurveto
          -1 -2 -1 -1 -1 -2 69 callgsubr
          -38 58 -53 23 1 callsubr
          vhcurveto
          -79 callgsubr
        </CharString>
</ttFont>
